<?xml version="1.0" encoding="utf-8"?>
<!-- Generator: Adobe Illustrator 18.1.1, SVG Export Plug-In . SVG Version: 6.00 Build 0)  -->
<svg version="1.1" id="Calque_2" xmlns="http://www.w3.org/2000/svg" xmlns:xlink="http://www.w3.org/1999/xlink" x="0px" y="0px"
	 viewBox="0 0 150 67.8" enable-background="new 0 0 150 67.8" xml:space="preserve">
<circle fill="#405B54" cx="103.1" cy="54.1" r="6.1"/>
<circle fill="#405B54" cx="24.4" cy="54.1" r="6.1"/>
<path fill="#405B54" d="M0,8.5V54h14.5c0-5,4.4-9.9,9.9-9.9s9.9,4.9,9.9,9.9h8.2c0,4,2.7,6.1,6.1,6.1c3.4,0,6.1-2.1,6.1-6.1h38.5
	c0,0,0,0,0,0c0-5.5,4.4-9.9,9.9-9.9s9.9,4.4,9.9,9.9c0,0,0,0,0,0h6.2c0,4,2.7,6.1,6.1,6.1s6.1-2.1,6.1-6.1H150V10.5
	c0-6-5.2-10.5-11.3-10.5L9.3,0C4.4,0,0,3.6,0,8.5z M141.1,6c0,1.4-1.1,3-2.5,3h-14.6c-1.4,0-2.5-1.6-2.5-3c0-1.4,1.1-3,2.5-3h14.6
	C139.9,3,141.1,4.6,141.1,6z M141.1,41c0-1.7,1.4-3.2,3.2-3.2c1.7,0,3.2,1.4,3.2,3.2c0,1.7-1.4,3.2-3.2,3.2
	C142.5,44.1,141.1,42.7,141.1,41z M113.8,41c0-1.7,1.4-3.2,3.2-3.2c1.7,0,3.2,1.4,3.2,3.2c0,1.7-1.4,3.2-3.2,3.2
	C115.2,44.1,113.8,42.7,113.8,41z M111,11h27.5c4.9,0,9.5,3.8,9.5,8.8V33h-31.3c-3.3,0-5.7-2.8-5.7-6.1V11z M86,11h18v22H86V11z
	 M67,11h17v22H67V11z M48,11h17v22H48V11z M29,11h17v22H29V11z M10,11h17v22H10V11z"/>
</svg>
