<?xml version="1.0" encoding="utf-8"?>
<!-- Generator: Adobe Illustrator 15.0.0, SVG Export Plug-In . SVG Version: 6.00 Build 0)  -->
<!DOCTYPE svg PUBLIC "-//W3C//DTD SVG 1.1//EN" "http://www.w3.org/Graphics/SVG/1.1/DTD/svg11.dtd">
<svg version="1.1" id="Layer_1" xmlns="http://www.w3.org/2000/svg" xmlns:xlink="http://www.w3.org/1999/xlink" x="0px" y="0px"
	 width="4342.3" height="2839.7" viewBox="0 0 4373.92 2845.63" enable-background="new 0 0 2040.5 1178.5" xml:space="preserve">
<g>
	<path id="_Trace_25" d="M2523.2,560.9c1.1,0,6.3,1,4.8-1-0.2-.2-2.2-5.4-0.4-6.3,1.3-.7,6.7.2,6.7-1.8s-2.9-12.8.2-14.4c1.1-.5,7.5-2.1-0.5-5.3-1.6-.6-5.6-13.5.1-8.3,3.8,3.4,12.5-9.2,12.8-12.1,0.4-4.1-1.7-7.8-8.3-7.9-1.5,0-6.8-2.2-7-3.1-0.5-1.9,3-1.6,3-3.8s-7.5-1.5-8-3.8,0.8-9.9-1.8-13.6-8,2.1-13.4-6.9c-1.3-2.2,17-7,15.8-9.4-0.4-.9-4.2-3.3-6.2-7.4-1.1-2.3-9.4-1.5-11.2-3s-2.6-4.7-3-6c-0.4-1.8-3.1-2.5-3.4-3.6-0.5-2.2,4.5-5.6,4.3-6.9-2-11.9-2.3-21.7-7.9-24.8-4.8-2.6-5.6,1.4-11.6,1.4-4.9,0-2.3-8.8-6-12-12.7-11.1-27.3-1.8-38-3.2-4.2-.6-2.9-7-10-5.7-16.4,3-15.5,12.9-26,9.9,0.4,12.4,12.6,10.9,15.3,14.7,1.6,2.2,2.5,13.3,3,17-6.8-2.1-13.3-10.4-17.3-9-2.4.8-5.9,7.9-11.8,8.1-3.4.1-4,10.6,0.5,12.9,3.8,1.9,6.7.7,6.7,6,0,3.2-6.4,5.2-7.1,7.9s3,8.3.4,8.7c-10.6,1.7-17.8-6.5-17.4-9.3,1-7.7,2.1-26.3-2.6-26.7-7.3-.5-1.5,10.5-3.2,18.7-0.9,4.4-2.7,3.6-5.1,6.2-4.1,4.3.6,11-4.7,11-4.5,0-2.5-17-4.3-19.6-2.7-3.8-8-.4-9.4-3.3-4.9-9.9,6.5-18.5-13.7-22.5-3.7-.7,1.7-9.2-4.6-18.6-2.6-3.8,2.4-13.3,3.1-14.7,1.2-2.4-11.3,5.2-17.4,3.2-1.7-.6-12.5,5.4-13.8,10.7-0.8,3.2-2.4,6.6-3.1,9.3-1.1,4.4-4.5-3.9-7.7-2.4-2.8,1.4-4.9,10.5-5.9,12.4-1.6,3.2-8.6,5.3-10.3-2.1-0.4-1.9-14.1-.8-12.2-4.4,1.3-2.5,19.5-11.2,19.9-18.7,1-18.7,21.8-30.5,19.6-34.1-1.2-2-12.3-.9-18.9-3.1-4.4-1.5-.4-11.8-4.5-16.6-2.3-2.8-7.2,1.3-7.6,4.8-0.4,3.2-3.9,10.6-9.9,16.7-8.6,8.7-33.2,15.2-36.9,16.1s-1,8.9-8.8,12.5c-4.3,2-12.7-4.4-11.2.9,2,6.7-4.7,14-6.7,12-1.3-1.3,2.9-14.9-1.3-19.2-7.7-7.8-19.7-6-26.7-3-4,1.7-22.9-.1-21.6,7.5,1.2,7.3,10.4,5.3,11.7,7.1,3.8,5.4-12.5,31.3-32.7,37-3,.9,3.1,8.6-18.7,8.6-3.9,0-10.5-3.7-11.8,1.4-0.9,3.6-6.6,10.3-11.8,12.8-3.5,1.7,7.6,4-5.1,9.5-7.7,3.4-19.1,24.9-41.1,40.7-2.6,1.9-3.3,10.6-1.9,13.3,1.6,3.3-9.2.5-18.1,0.4-3.6,0-8-10.5-10.9-10.5-3.8,0-7.3,1.3-8.6,3.8-1.3,2.7,2.2,15.2,3,17.3,2.3,6.4-1.6,14.7-3.9,15.8-3.7,1.8,7.1,15.3,2.8,15.3-4.5,0-18-31.2-30.3-42.7-0.4-.4,5-5.1,5.6-5.8,2-2-6.3-2-6.6-2.8-5.8-15.5,6.7-24.8,2.6-25.3-3.9-.5-38.2-8.8-45-18.1-0.6-.8-0.2-12-6.9-12-4.8,0-24.8-9.4-25.5-14.5-0.4-3.2,2.6-21.9.9-25-9.2-17-6.3-36.4-7.6-37.8-0.6-2.4-6.3-4.5-8.9-6.7s-0.4-6.3-2.9-6.8c-12.2-2.8-9-12.7-11.4-13.2-2.2-.5-4.6,7.7-19.1,3.8-3-.8-0.3-12.4-2.8-14.2-3.4-2.5-2-12.2-2.8-13.9-0.6-1.2-7.6,1.7-12.3-.2-4.2-1.7-14.2-8.9-15.9-10.7s-1.4-9.5-2.4-11.4c-1.8-3.6-9.3,3.6-10.7-1.9-0.8-3.1-6.9-6.6-3.2-7.8,10.6-3.4,8.6-7,9-8.9,0.7-3.9-3.6-7.1-4.8-8.8-1.8-2.6,11.1-8,8.4-11.8-2-2.9-11.7.6-11.7-6.2,0-3.3-1.7-9.6-5.7-10.3-1.8-.3-2.9,10.2-25.7,8.3-3.3-.3-13.4-6.6-17.1-6-7.9,1.2-15.1-5.8-14.7-11.1,0.2-2.2,10.4-2.4,11.7-2.7,6.5-1.6-11.8-2.2-12.9-3.2-2.7-2.5-9.3-10.8,2.8-8.6,0.7,0.1,4.2-7.3,4.6-8.8,0.3-1.3,12.3.9,12.8-1.3,1.1-4.2-8.8-8.3-10.6-12-2.1-4.1,5.4-5,5.1-9.3-0.4-5.1-12.5-.4-18.9-0.4-2.6,0-10.7,3.4-13.2,4-3.9,1-5.9-2.9-1.9-5.9,2.4-1.8-6.6.3-8.1,0.1-5.2-.5-4.8,2.8-7.6,4.7-6.8,4.6-9.6,10.9-10.8,17.9-1.5,8.9-3.5,36-13.5,37.8-7.6,1.3-5.7,11.7-15,13.5-3.8.7,4.9-6.4,3.2-17.8-0.3-2.4,10.6-7.8,11.9-10.2,2.1-4.1,5.9-12.8,5.9-16.5a43.71,43.71,0,0,1,1.2-10.1c0.9-3.6,5.3-4.4,5.3-7.2,0.3-11.7,7.3-9.4,6.8-12.1-2-9.3,9.8-10.9,9.5-13.1-0.5-4-16.7,3.7-21.2-2-1.7-2.2,9.6-8.8,9.6-14.2,0-4.1-5.3-10.3-6-13-1.1-4.5,7-2.5,11.8,2,1,0.9.1-11.2-10.2-12.1-3.3-.3-13.2,2.9-20,0.9-1.3-.4-4.7,3.7-9,3-2.6-.4-1.2,4.8-3.5,5.9-3.8,1.9-9.1,7.4-16.8,7.5-4.2,0-3.8-2.6-8.7-.7-1.8.7-4.3,6.4-4.5,7.7-1,6.8-8.4-4.9-11.3,4.6-1,3.3-2.7,12-6.2,14.5-2.4,1.8-1.1,6.3-1.6,10.5-1.5,10.9-19.7,28.9-22.8,26.2-4.2-3.8,13.8-14.9,14.7-19.8,0.5-2.9,7.9-22.2,2.2-27-1.4-1.2-10,3.5-11.1,1-1.8-3.8,7.7-7.8,3.7-29.9-0.3-1.4-3.6-2.2-7.4-7.2-2.7-3.5-.9,4-6.7,3-2.5-.4-2,8.1-9.2,9.9-4,1-3.7,9.8-8.1,12.1-3.9,2,1.1,16.5-8.4,13.3-11.2-3.7-5.4-7.1-9.9-8.4-5.8-1.7-6.7,10.9-9.8,14.4-1.8,2-5-7-7.8-6.8-11.3.6-10.5-7.8-16-.4-1.8,2.5-8,12-12.2,10.2-2.5-1-14.2,6.1-17.8,6.1-4,0-.7,8.6-18.7,6.7-2.8-.3.6,12,0,14.5-0.4,1.5-13.2,8.5-36.5,1.6-9-2.6,6.3-15.4,5.2-19.7-1.1-4.5-20,.4-15.1.1,3-.2-6.4,1.3-9.6.1-14-5.2-8.8-20.4-18-20-5.1.2-5.1,10.7-10,10.7-12.7,0-1.6-8.8-3.5-12.5-0.9-1.9-10.7,6.3-11.7,10.7-2.9,12.5-16,4.2-18.1,7.3-2.4,3.5,2.7,3.7,2.7,5.9,0,3.7-6.6,1.9-6.5,4.4,0.1,4.7,11,3.2,7.2,9.6-5.4,9.1-22.7-5.6-27.3-2-3.2,2.4-3.9,2.7-8.7,2.7-5.7,0,3.5,17.3,2,37.3-0.3,4.6-9,2.3-2.7,4.7,11,4.1,4.5,6.3,4.8,7.3,0.7,1.9,10.7-1.7,10.9-.2,1.4,10.5,16.2,17.5,13.9,19-11.4,7.1,1.7,5.2,1,8-0.4,1.6-20.1,13.7-23.1,14.4-3.7.9-8,3.4-7.2,7,0.7,2.9,4.9,8.9,1.6,13.9-1.1,1.6,4,9.5-1.2,14.7-2.1,2.1,7.8,5.3,10.8,5.3,1,0-4.9,19.9-31.4,18.8-4.9-.2-2.9-13.7-5-15.9-7.5-8.1-6.1,3-13.5,1.1-3.4-.9-1.1,2.7-1.1,6.7,0,4.6,1.6,4.1-2.7,2-1.4-.7-11.3-3.5-12.3-8.4-0.6-3,6.3-3.9,6.3-7.6,0-4.1,1.1-6.7-3.3-6.7-3.7,0-13.8,7.6-16.7,8.7-10.1,3.8-9.4-8.4-22.6-3.5-2.7,1-2-7-5.4-7.8-2.8-.7-7.1-0.9-5.3-7.3,1.5-5.5-3.5,2.3-6.7-2-8.3-5.3-12.9-2-16.7-2-3.6,0-7.2.6-10.7,0-8.9-1.5-12.1,7.6-17.9,6.5-9.3-1.9-8.8-16.2-16.8-11.2-0.1.1-6.2-5.6-6.7-6-4-4-2.7-.7-2.7,4,0,2.9,2.4,5.5,3.3,7.3,2.1,4.2-.5,4.5-4,4.7-12.4.6-1.5-8.9-7.3-10-3.2-.6-1.8,5.2-6.8,5.6-4.2.4,2.6,6.6,0.2,9s-6,1-8.7,4c-7.8,8.9,0,12-.2,19-0.1,3.6,3.3,8.9,2.2,14.4-0.9,4.5-6.1,1.3-5.9-.2,1.8-15-1.2-3.4-8.1-9.2,5.8,14.9,5.8,21,5.8,24.8,0,2.6,4.9,9.1,5.3,11.8,1.7,10,4.7,9.4,6.7,11.4,2.2,2.2,23.1,2.7,24,2.7,4,0-21.5,1.4-24.2,1-6.6-1-15,20.6-15,13.5,0-2.8,3.6-12,1.8-16.5-3.2-8.1-7.2-5.3-10.9-6.2-2.6-.7-1.8-3.3-15.5-7.7-2.1-.7-8.3-15.4-8.3-19.6,0-4.4,5.7-6.7,8.1-9.6,1.9-2.4-13.2,1.6-15.3-4.9-1.2-3.8-8.9,6.6-9.7,8.1-1.3,2.6-.4,7.6-3.6,9.3-4.4,2.2-3.8-4.9-6.7.7-5.1,9.8-11.5,6.2-13,4.4-1.8-2.1,6.3.5,2.7-17.2-0.7-3.5,5.5-4.5,4.8-7.6-1.2-5.5-7.1-7-8.8-14.7-1.5-6.6-6.5-2.5-8.4-8.9-4.9-16.8,4.1-26.4,3.3-29.2-1.1-3.9-8.7-1.6-12.6,1.1-2.9,2-12.5,10.2-15.4,10.2-3.8,0,.4-6.6-2.7-8.1-2.6-1.3,3-7.8.2-7.5-2.1.3-3.5,12.5-8.1,16.2s-13.7-.5-15-1.8c-2.7-2.7,2.6,8.8-4.9,11.5-4,1.5-7.3-4.5-7.8-3.6-10.8,22-.8,18.8,12.2,22.4-15.3,1.1-22.8.3-21.3,1.9,11.3,11.5,8.8,17.1,9.9,16.7,0.8-.3-10-10.2-14.1-10.8-3.7-.5-0.5-3.9-2.8-6.2-2.6-2.6-4.6-.6-5.6-7.5-0.7-4.6-6.9-.3-9.9.2-12.4,2.2-16.9-8.2-18.3-5.8-2.7,4.7-5.7.7-9.9,0.7-3.3,0-2,5.9-14.5,3.4-2.1-.4-10.3,2.7-13,5.1-5,4.5-12.7,1.3-15,1.3-1.5,0-2.8,4.9-6.2,4.1-2.1-.5-1.5,4.3-2.7,5.5-3.2,3.2-1.4,4.6-7.2,6-3.7.9-3.7,20.4-26.8,25.1-17.2,3.5-21.9-2.8-24,.4-3.5,5.2-13.7,10.4-15.8,10.4-5.3,0-5.6,2.7-1.3,4.8s-18.7,3.9-16.2-.9c1.5-3,2.2-3.2,4.5-5.5,2.9-2.9.1-4.3-3.8-4.3-4.5,0,10-4.9,11-5.9,2-2,2.5-7.8,4.3-9.6,3.3-3.3-8.1-2.9-14.7-13.2-2.2-3.4-3.9,3.3-7.4,3.3-1.1,0-1.5-9.1-2-8.7-5.3,4.3-14.3-4.2-15.3,0-0.6,2.6-5.7,2.6-8,2-0.7-.2-2.3,6-13.2,6.4-3.7.1,6.9,9.3-8.1,9.6-1.4,0-8.4,7.4-19.5,6.7-4-.3-14.2,4.1-19-0.7-2.8-2.8,1.4,7.2,4,8.7s7.6,1.3,10.5,6.1c2.6,4.2,9.6-1.3,9.1,2.7-0.5,3.3-7.8,2.5-11.1,2.5-2.2,0-4.8-5.3-9.5-5.3-2.2,0,1.7,7.8-.5,7.8-2.9,0-5.7-6.8-7.9-6.4-7.2,1.2-10.5,15.1-15.2,15.2-2.4,0-9.6,6.6-22.4,2.4-2.5-.8-5.9,5.1-11.8,1.9-8.5-4.5.1-7.4-1.5-9.8-2.6-3.8-8.5-4.3-8.5-1.1s-5,3.3-8,3.3c-6.3,0-4.9-9.1-10.5-5.7-5,3.1,3.4,11.3-.6,10.3-1.9-.5-5.7,4.1-7.6,4.1-2.1,0-4-1.5-6-2-2.8-.7-5.2,5.4-5,8.3,0.6,8.1,8,6.5,11.6,5.6,2.5-.6,1.8-0.7-3.4,6.8-2.3,3.3,11.4.6,17.4,6.7,2.2,2.2,16.1,2.8,16.1,6.7s-5.4,3.8-.5,4.2c8,0.6,16.1,2.8,17.2,7.4,1,4,6.2,6.6,9,8.7s0.8,2.4,4.6,3.4c3.6,0.9-6.5,4.7-14.5-6.2-1.3-1.8-13.8-9-17.5-8.1s-6-2.2-6.8-5.5c-0.8-3.1-5.1-5.4-9.6-5.4-3.8,0-5.5-3.4-8.6-1.9-4.2,2.1-7.5,1.6-9.3-1.8-1.6-3.1-13.8,7.6-24.1,4.7-4.8-1.3,9.2-12,4.7-10.8-5.9,1.4-8-3.3-10.7-2.7-0.2.1-5.8,6-3.6,9.5,5.4,8.4-9.1,8.2,5.9,14.4,1.9,0.8-6.7,2.8-6.1,4.7,1.6,5,7.6,6.4,10.2,7.1,3.5,0.9,1.9,7.4,6.2,10.3,1.9,1.3,9.2,3.4,14.7,2.7,12.1-1.7,14.3,3,14.7,3.3,2.3,2.3,3.9-2.5,8.7-.7,5.1,1.9,7.6-.4,8.7,4,0.2,1,7.2,2.9,8,3.3,2.8,1.4,3.3,2.7,4.7,5.3,2.1,4.3-8.1-1.2-11.3-2.8-2.8-1.4-4.1-6.8-5.3-1.8-0.9,3.7-6.4-3.7-13.5-3.6-6.8.1-14.3-2.2-17.3-2.3-7.7-.3-12.4-4-9.6,2.2,1.7,3.8-3.5,3.4-6.2.2-6.7-8-3.9-18.5-8.3-17.8-8.3,1.3-9.7-1.7-14.1-4.2-1.2-.7-6.4.5-10.4-1.8-3.2-1.8-4.8,8.1-19.2,6.7-3.3-.3-3,5.9-9.3-5-1.2-2.2.1,8.6-6.1,9-6.9,1-4.6-8.3-6.2-6-3.1,4.5-12.5,1.1-12.8,3.9-0.4,3.4,4.5,5.4-.9,6.8-2.9.7,4,9.7-.1,11.1-10.8,3.9-10.8-6.8-15-8.1-2.7-.7-2,8.2-11,12.3-2.6,1.2-4.5,6.3-10.6,6.2-3.5,0,2.4,15.6.6,14.7-1.4-.7-7.5-4.7-7.3-3.1,1.9,12-10.5,17.3-10.7,17.4-3.4,1.7,6.3,3.1,8.7,5.5,3.5,3.5-5.2,3.3-6.2,6.1-3.2,8.7-12,3.8-6.8,11,5.9,8.2,2.2,8,4.1,11.9,1.4,2.8,7.9,7.2,8.8,9,0.7,1.4-3.7,1.8-3.3,3.3,0.2,0.9,8.1,6.9,13,2.1,2.2-2.2,19.3-3,20.2-.5,1.3,4-8.6,5.1-11.8,5.1-3.8,0-6.7.3-8.7,1.3-2.6,1.3-4.4,11.7-6.6,7.8s1.1-7-2.1-7.8c-2.8-.7-0.5,7.3-3.3,8-5,1.2-4,1-4,6.7,0,4.7-3.6,2.5-5.8,5.5-2.1,2.8-3.3,5.6,3.2,7.2,2.6,0.7-2.7,4.7-4.7,6.7-3.4,3.4-1.5,1.2-2,6.7a28.56,28.56,0,0,1-7.2,15.9c-1.6,1.6-1.9,6.1,2.5,6.1,2.9,0,3.6,3.8,4.7,6,1.8,3.6,6.2-1.9,7.3-.7,5.5,5.8-5,15,.7,20.2,10.5,9.6,11.4,13.5,8.1,21.7-2.6,6.4-11.1,5.1-13.6,9.5-2.5,4.2.4,8.1,0.4,9.6,0,2.6,7.1,3.8,9.2,4.4,2.8,0.7-8.1,13.7-5.9,13.5,3.9-.4.3,9.2,5.2,9.2,5.5,0,16.6-1,24.4-4.6,3.5-1.6,15.3,2.4,18.8,2.4,3,0,10.7-6.2,12.1-7.6,2.5-2.5-11.4-8.8-1.9-14.2,2.6-1.5,14.1-4.9,18.7-4.7,17.6,0.8,33.2,26.7,57,13.5,4.1-2.3,11.9-7.3,22.7-8.5,2.5-.3,2.2-6.1,4.2-7.1,3-1.5,5.7,1.7,7.7-.3,2.4-2.4-1.2-5.4,2.3-6.2,2.5-.6,9.8,6.7,12.2,5.8,5.7-2.2-2.4-9.6,10.2-9.4,4.1,0.1,1.4-8.5,15-12.4,2-.6,4.4-1.4,6.7-2,4.2-2.1,5.6-.6,9.3-2,25.3-9.3,26.7-2.7,34.3-3,6-.2-0.9-12.3,6.1-13,4.1-.4,6.1,5.5,9.2,5.5,2.4,0,7.6-5.6,9.5-7.5,1.1-1.1,9.8-3.8,12-3.5,4.4,0.6,11.9,1.7,12.5-1,2.5-11.4,9.6-11,16.5-9,2.8,0.8,11.4-12.6,22.3-13.8,4.4-.5,13.5-6.1,15.7-8.2,1.6-1.6,14.6-14.5,18-12,2.4,1.8-7.3,9.3-8.7,11.2-6.8,9.2-1.7-1.1-16.1,12.5-3.4,3.2-19.3,13-29.1,17.8-1.6.8-5.9-2.2-7.5-1.5C717,660.3,707,671,705,671c-2.7,0-5.3-.2-8,0-6,.4-12,7.7-15.5,14.4-9.3,17.6-26.8,19.6-24,24,2,3-.5,6.1-5.6,8.7-2.9,1.5,6.7,5.9,6.1,8.2-1.5,6.3-9.3,3.3-6,12.7,0.5,1.4-7,3.8-6,4,11.3,2.4,18.6-2.5,19.8-4,1.6-2.1,23-11.6,25.4-12.8,1.8-.9-6.7,9.2-10.7,11.2-1.9.9-4,6.4-4.5,8.3-3.4,1.7,7.5,2.1,10.6-.1,4.3-2.9,11.9,2.4,16.7.1s7-10.3,7.4-11.7c0.8-3.3-3.2-7.3,2.6-11,5.5-2.9,17.4-13.5,20.2-14.2,1.4-.3-7.2,9.1-9.7,11-9.5,7.3,5.4,5.3,9.2,3.9,0.8-.3,1.6-4.4,1.7-4.7,0.7-2.8,1.1-2.2,4.1-2.2,3.4,0,8.6-10.3,9.6-11.3,1.9-1.9-9.1,17.5-7.8,19.7,3.4,6,14,1.2,14.1,1.2,2.6-1.3,7.2.4,9.8-2.7,1.8-2.2-4.8-.7-5.8-3.3-2.3-6.4,5.9-8.8,11.6-6.2,3,1.4,4.4-3,5-2.4,1.8,1.8,4.2-.5,5.3-0.1,2.1,0.8,10-4.2,12.3-4.2,2.8,0-7,7.9-10.6,9.7-2,1-13.6.5-12.1,2.4,1.1,1.4,9.2,1.2,9.9,3.8s-5.9,5.5-9.7,4.8c-2.6-.5-7.2,4.3-9.8,6.2-3.6,2.7-6-2.7-6,4,0,4.7-1.5,4.2-6.2,5.4-2.4.6,3.9,6,1.5,6.6-3.1.8-14.9,5.4-14.1,7,0.6,1.3,19.1-.2,20.1-2.5,1.2-2.8,7.2,7.9,11.3,5.2,3.8-2.5,11.7-7.3,9.5-12.5,1.7,7.7,11.2,2.1,13.3,2.1,1.7,0,7-2.4,7.8-3.5,3-4.1,4.5-3.5,7.5-3.5,5.2,0-10.1,9.8-13.2,10.6-2.6.6-9.7,3.3-13.1,4.1-4.5,1.1,3.8,8.2,14.2,7.1,3.7-.4,10.7,0,13.3-0.7,3.4-.8,12.4-5.6,15.2-6.3-3.9,4.3-11.5,10.7-10.5,19,0.4,3.8,8.3,1.3,10,.7,8-2.9,14.6-.2,17.9-0.2,3.6,0,7.8-1.8,11.4-1.8,3.4,0,0,7.3-3.3,7.3s-6.7-1.5-10-1.5c-5.1,0-12.1,8.9-15.6,7.2-3.2-1.6-2-3.8-7-5-2.5-.6-3.5,6.3-6,7.3-13,5.5-32.3,1.7-30.7,5.2,3.8,8.4,23.5,8.4,30.4,26.7,1.4,3.7,15.1-5.6,17.8-6.9,4.3-2.2,7.1,13.9,9.3,13.8,9.1-.6,21.9.7,24.5,1.9,2.2,1.1,18.3-.9,17.3,3.1-0.8,3.1,9.7,3.6,12.1,3.6,10.1,0.6,11.1-4.2,8.3,3.3-3.5,1.7-4.9,4.3-7,3.9-7.7-1.2-12.3-7.8-20.7-8.5-3.5-.3-7.1-1.5-10.7-1.5-1.1,0-3.3,8.3-3.3.7,0-3.6-7.1,0-10.7,0H833.7c-3.7,0-5.8-10.7-6.7-14.5-0.5-1.9-6.2,8.5-10.5,8.5-3.8,0-9.6-.3-11.6-1.3-0.8-.4-3-9.3-8.4-9.3-4.4,0-5.6,3.2-8.5,1.8-2.5-1.3,7.1-3.8,9.8-4.5,3.9-1-7.4-1.7-8.4-2.8-3.2-3.7-11.5-9.9-12.5-10.1-4.5-1.1-7.7,1.9-6.5-2.9,0.7-3,1.1-8.1,2-11.5,1.1-4.5,6.1-4.7,11.3-4.7,1.1,0,2.2,4.5,4.8,3.5,2.3-.9,5.7-3.6,4-7-2.3-4.6-28.8-4.4-32.2-3.8-17.9,2.9-12.3,15.4-34.4,12.1-4.2-.6-10.6,7.5-12.3,9.2-2.2,2.2-29.2,4.2-32.7,2.5-3.2-1.6-10.8-5.3-10.8-9.1-0.3-12.5-1.5-9-9.8-7.3-2.1,1.1-7.5,0-10,0-1.6,3.3-7-2.7-10.7-2.7-2.7,0-8,8.9-15.3,7.3-3-.6-4.2,3.1-7.3,4.7-4.2,2.1-7.9,1.2-10.2-1.6-11.2-13.6-8.2-15.6-.7-21.2,1.3-1,7.9-8.6,4.2-8.6-4.3,0-5.3-1.3-8.7,2-2.3,2.3-2.5,5.2-4.7,7.3s-5.4,4.5-4,8c2.1,5.1-7.9,10.2-9.9,10.7-3.3.8-3.1-3.8-3.1-6.2s-5.1-1.8-6.9-3.6c-2.4-2.4-7.4-10.3-7.4-13.8,0-2.2,6.8-3.7,10.6-3.7,3,0-7-15.2,8.1-31.5,2.6-2.9-12-1.9-14.8-.5-8.2,4.1-13.8,16.7-22.1,20.6-3.4,1.6,8.6,1.4,10.1,20.1,0.3,4.4,2.4,4.7,3.3,8,2.1,7.2-8,17.8-18.7,20-4.1.8-3.8-7-8-10.6-2.8-2.4-4.6,3.6-8,5.3-2.8,1.4-17.8.5-12,2a9.63,9.63,0,0,1,6.7,6.7c0.8,3.3-5.4,19.9-4.7,21.3,1.1,2.2,7.1-7.9,10.9-7.9,4.9,0,7.3,6.6,10.5,10,6.9,7.4,17.8-8.2,28.4-6,8.9,1.8,12.9,8.9,11.1,16.9-1.2,5.1-24.1,6-23.5,8.8,0.2,0.7,10.3,4.3,11.3,5.5,4,4.3,1.2,18.3,5.2,20.6,2.8,1.6.1,26.4,0.1,30.4,0,3.8-4.3,6.3-4,9.8,0.7,7.3,11.8,6.6,12.9,3.4,1.7-4.6-5.2-11,5.8-14.2,4-1.2,12.6-3.8,16.2-28.5,0.6-4.1,8.6-7,11-8.2,4.5-2.3-4.2-7.9-5.2-8.9-0.3-1.1,11.2-16.1,31-15.2,2.8,0.1-5.2,9,27.7,6.1,5.7-.5-2.8,4.7-6.9,9.3,1.2,1.2,7.1-4.5,8.3-4.8,3.9-1,22.9,11.9,26.6,12.8,5.5,1.4,5.2-.1,10-1.3,2.4-.6,3.7,16.4,6.9,16.4,3.6,0,26.7-1,29.8-1.8,2.2-.6-1.1,5.5,1.1,5,16.2-4,25.4,10.4,28.7,34.1,0.5,3.9-1.5,4.3-5.6,4.3-2.7,0,1.5,7.1,3.5,9.1,1.3,1.3,10.2,1.5,15.4,7.4,2,2.3,5.7,27.1,3.1,25.3-8.1-5.6-8.5-2.6-10.1-.4-5.3,7.7,1.4,11,1.8,12.5,2.4,2.4-10.6,29.5-13.2,32.1-2.8,2.8-9.8-.5-15.9-3.5-1.6-.7-10,3.8-12,1.6-7.1-7.8-7.1-12.7-16.7-12.7-4.4,0-8.1-9.6-10.5-8.2-14,7.9-27.8,9.4-30.4,7.6-6-4.1-7-1.4-13.7,3-4,2.7-2,4.9-8.1,5.4-8.6.7-19.9-1.4-23.6-2.2-2.8-.6,1-0.1-10.4,7.6-7.4,5-13.4-.4-14-0.7-1.7-.9-2.8,3.3-4.7,3.3-3.6-.7-5.5-4.2-9.3-4-2.6-.6-3.8,6-6.1,7.2-8.6-1.2-6-9.1-12.5,3-10.2,14.9-9,2.4-19.3,1.6-4.9.4-11.7,1-13.3,6.2-1.2,4.7-2.7,3.6-6,2-7.1-1.6-11.5-1.1-16,4-2.4,2.4-4,2.2-7.3,1.3-0.1,0-4.3-7-4.3.6-0.6,5.7-11.1,2.2-15.7,2.1-8.8-1.1-10.3-10.3-11.3-1.3-2.4,5.9-4.9,12.3-12.3,8.7-12.5-.1-0.9-10.1-12,0.1-2.2-1.1-9.1-4.2-11.8-4.2-3.3,3.4-3.6,12.4,1,14.6a5.64,5.64,0,0,1,2.9,6.8c-7.6,2.8-18.3,4.9-25.6,4.9-2.4,1.2,5.1,3,7,4.9,5.1,8.4,12.8-6.5,25.4,13.5,1.7-4.7,4.6-6.8,12.5-4.3,6,0.5,7.4-1.4,13.1.9,3.5,1.8,5.3,4,7.7,6.6,1.4,0.2-1.9-3.5,15.7-9,6.9-.9,1,5.8,10.4,12.3,5.7,3.1,11.5,2.4,17.7,4.9,3.7,1.8,5.6,2,6.7,8,7.2,1.8,10.9,7,18.4,7.4,5.4-3.5,9.2-8.5,12.5-15.4,3.1-2.3,7.5,3.4,7.5-3a92.12,92.12,0,0,1,1.7-12.4c0.8-4.1,1.4-8.8-2.3-11.2-4.1-2.7,1.7.9,5.9,0.9,3.7,0,3.7-4.8,7.7-4.8,3.2,0,6.5,2.3,10,3,4,0.8,10.3,2.1,8.2,2.5a30.36,30.36,0,0,1-9.3.7c-9.7-1.2-5.7-2-9.3-.7-12.2,4.7-3.2,3.4-6.3,12.9,3,3.3-.8,6.1-2.2,11.5,0.3,6.7,10.7,11.3,15,9,10.3,2.2,16.8,10.2,25.7,15.3,2.3,5.8,5,8.3,11.3,8.4,5.6-.3,10.2,5.2,14.1,9.1,8.3,5.7,17.3,13.9,23.1,21.7,4.1,11.4,12.6,17.9,17.3,28,5.4,14.8,13,25.5,19.9,39.5,7.6,6.3,12.8-1.2,21.6-3.2,4.4,4.4-12.4,6.6-15,9.8,2.2,10.4,0,17.1,3.2,25.3,10,26.2,8.6,34.5,1.9,34.7-1.8,1.8,5.2,4.2,5.2,6.7,0,2.3-6.4,1.3-8.7,1.3a41.3,41.3,0,0,0-14.7,9.3c-2.5,6.4,3,5.1,3.1,15.8,0.8,4.4-.4,7-0.4,11.5,11.2,0.5,17.8,1.2,28.8-2.9,9.8-1.2,5.5,3.6,25.3-2.1,7.1,9.3,8.2,11.6,22.2,9.8,2.7,5.1,6-3.9,17.6.4,7.7-4,8.5,1,15.9-2.2,4.2-1,10,2.8,11.2-2,5-3.3,1.7-8.3-.3-15.6-3-3-11.2-.1-6.3.3s2.7-10.5,3.6-5.4c0.5,2.8,8.8,11.9,8.5,14.7-0.4,4.3,2.9.4,5.6,0.4,2.1,0,5.2,6.8,6,4.8,2.2-5,6-2.5,9.8-6.9,1.5-1.8,4.7-1.8,3.4-9.5-0.5-2.6,8.5-.6,7.8-3.5-2.5-9.9,5.1-7,3.5-10.9,0.6-.1-5.5-3.3,2-8.2-2.8-6.6-7.7-11-13.6-9.9-3.3-3.1-12.7-3.2-10.8-7.9,5.1-4.9-4.3-6.8-6-11.8-0.7-2.7-4.5-4.2-5.9-5.6-3.3-3.3.9-4.5-4.2-5.5-6.2.3,9.2,5.2,10.3,7.2,2.7,2.7-1-2.7,1.9-4.7,3.1-2.2,1.4-6,.8-10.5-0.2-1.5,4.4-1,9-1,1,0-3.1-6.6-1.7-6.9,3.1-.8,14.5,9.5,6.7,10-2.8,0,3,2.6,4.3,3.9,5.6,4.8-3.6,4,1,8.7-0.3,13.1,7.5,1.6,10.5.1,8.1-3.1-5.8,8.1-7.2,10.5-0.5,2.8-1.4,3.1-3,6.3-0.9,1.8,5.4-3.6,7.2-4.5,5.3-1.6,8.4-6.4,13.2-8.9,5.3-3.1,8.8-3.5,14.3-6,2.6-1.3,5,2.2,7.9,2.2-0.2-8.4-3-13.8-7-18.3-1.8-3.6,3.5-7.1.4-10.1-1.7-1.7-6-3.3-8.7-4s-2.3-4-7.3-4c-9,5.1-14.3,3.2-21.3-3.3-1.9-1.9-4.3-7.4-4.3-10s6,6.9,8.3,8c6.8,4.7,8.2,3.8,13.8-.5,3.8-5-1.4-5.5-2.8-10.3,0.3-10.5,7.1-22.7,17.6-25.9a31.16,31.16,0,0,0,9.3-4c2.2-2.1,3.2-9.6.7-12-1.3-1.3,2-7.9,1.3-8.7-0.5-.6-8.2,4.5-5.5-0.9,13.1-12.8-8.5-12.7,8.8-13.1,5.8,0,5.1-.2,7.3-4.7,1.9-6.1-.7,11.8-1.3,13.3-1.7,3.5-5.7,2.4-5.7,9.5,0,2.2-.2,7.7.2,9.5,0.7,2.9,9.1-3,12.1-3,1.7,0,1.7-5.5,2.8-6.6,0.9-.9,0,5.6,6.5,5.9,2.4,0.1-9.7,1.2-9.1,3.5,2.9,1.1,13.9,7.6,6.5,6.7-4.3.5-10.3,0.5-12.6-4.1-15,1.4-.9,9.7-17.4,9.9-10.9,3.3-16.1,13.2-15.5,23.2,1.4,4.9-.5,13.3,9.5,13.5,8.7,7.5,11.7,17.4,15.9,28.1,3.8,3.2,4.6,6.1,6.4,11.2,2.2,4.4,9.5.7,10.1-1.9,0.7-3,3.5-.4,6.7-0.4,2.4,0-2-7.2-3.7-8.9,4.1-8,5.9,8.7,10,7.3,3.5-1.7,6.4-5.1,6.4.6-1.4,2.6,4.5,9,9.8,11.9,2.2,1.1,5.8,10.1,6.5,11.5,2.3,4.7,3.3.2,5.1-3.4,14.1-3.4,45.1-1.2,39.1-21.3,1.2-13.5-2-7.6-3.7-16.2,0-5.1,6.3-.6,7.6-5.4,2.6-7.6-11.2.7-10.3-9.7,0-4.9,4.9.7,6.6,1.6,6.6-2.3,2.2-7.4,3.1-12.8,4.3-7.1,3.4,5.8,4.7,9.1,2,4.1,8-1.4,13.9,1.4,3.9,0.9,4.4-8.9,7.1-9,2.8,3.2-6.6,19.4,1.5,21.2s9,12.6,11.4,15.5c10,5.7,11.6-.5,16.6,11.6,1.4,2.8,6.4-2.3,7.4.7s-5.4,5-12.7,2.7c-6.8.6,8.5,7.8,10.3,8.7,4.2,2.1,3.8-1.2,2.5-4.3-0.6-1.4,2.9,2.6,7.3-2.7,0.5,3-1,5.7-.4,10.4-11.1.3-6.1,8.1-10.3,9.5-2.3,8.3,4.8,1.5,12.7,15,16.2,13.9,11.3,16.6,18.7,20.1s9,15.2,1.9,17.6c7.1,0.7,11.1-5.4,17.6-7,21.9-1.5,14.7,14.5,31.3,9,8.9-3.8,18.8.6,28.7-2.3,4.2-3.8,7.7-7.8,12.4-10.9-4.7-8.9-4-5.9-5.3-14.4-2.8-.3-8.3-2-8.3-5,0-2,5.2-.8,6.6.7,2.7-3.7-.1-12.4-2.6-15.7-2.1-5.3.9-10.2,1-15.7,3.4-.6,3.1,9.6,3.7,12.4,3.8,6.6.3,10.8,4.6,24.5,2.4,3.5,6.3,16.2,9.8,8.5,9.2-4.8,6.6-4.9,12.1-12.3,5.9-2.5,7.4-1,9.6-5.3,1.3-2.6-.9-10.7,2.3-11.9,8.2-2.4-5.1,14.1,7.9,10.6,4.3-3.3,7.6-4.1,13.1-4.7,9.4,2.8,13.5,4,4.3,4.7-10.2-5.5-14.2,7.8-23.1,5.3-4.3-.9-4.7,1.4-5.7,5.3-0.8,3.2-4.2-1.7-5.6.5-3,4.4-5.2,7.6-9,9.9-2.4,1.5-.8,8.5,2.3,9.6,9.4,0.5,10.8,10.7,20.7,14,3.8,5.3,8.6,6.9,14.7,5.3,5-2.7,7.2-2.9,13-3.1,4.4-1.3,5.9-5.5,7.7-12.5-0.1,4,1.9,6.1-1.6,12.2-0.5,6.1,21.2,11.9,34.3,12.3,13.2,4.1,15.3-2.2,37.6,3.7,7.3-.7,15.6.9,13-12.3,2.9-7.7,5.3-10,3.1-16,1.8-3.7,6.5,1,6.9-2.1,1.3-11.4-4.9-8.2-5.9-11.3-1-3.3,5.3-3.9,2.2-7-2.4-2.4-5.2-2.1-7-4-4.3-4.3,1.7-5.9-2.3-9.4-5.2-3.8-2.8-14.3,2.4-19.3,4-1-3.7,10.4-.6,16.3,10.6,4.4-.9,9.2,5,11.2,3.3,1.3,9,4.2,7.7,7.8,4.7,11.8,4.9,14-.3,21.1,2.8,5.6-6.8,4.6-5.7,10.1-1,20.2,6.3,23.6,9.9,24.5,10.3,24.6,15.1,22.4,11.8,28-3,5,11.8,18.3,13.8,19.2,8.9,3,2.8,8.4,13,9.1,3.1,3.1,4.7,3.5,1.1,6-3.5,3.8,10.9,8.2,12.6,5,1.4-2.6,4.5-4.9,7-4.3,7.5-1.7,5.6-5.9,12.3.2,7.7-2.1,13.2-3.6,22.2-1.7,16,7.5,18.1-1.1,16.8-17.7,0-4.5,1-8.9,4.3-10.6,3-1.5,13.2-2.2,14.5-4.6,2.1-4.1-6.5-3.3-6.2-7.4,0.8-15.5-7.2-25-12.6-33.7-10.2-17.2.9-16.2-4.1-24-1.2-1.6-9.1-6.3-10.5-8.2-0.3-6.5-2.4-9.4-4.4-11.7-4.8-1.2,2.9-4.8,3.3-5,2.3-1.2-3.6-8.6-2.5-10.6,1.3-2.4,3.2-5.4,3.2-8.7,5.6,6,4.4,13.8,3,19.6-3.1,13.1,4.8,2.8,2.1,15.1,13,2-1.5,4.1,14.8,7.2,4.1,0.8,4.4,3.2,4.4,7.7-15.5,12.6-4.3,15.6,1.1,21.3,8.8,6.3,5.4,24.3,12.3,26,6.8,5.1.2-4.1,12.1-6,2.1-2.1-3.1-9.9,7.3-11.3,5.3-.8,9.9-9.6,11.8-17.6,5.6,3.1,9.2-4.7,13-5.5,1.3,6.2-3.1,10.9-9,13.7-1.3,8.1-6.6,14-9.7,21.3-1.5,4.7-12,7.9-15.3,18-0.5,3.1-9.2,5.3-11.6,6.6-10.1,11.8-.6,5-9.1,14.8-10.8,12.4,11.9,8.8,18,5.3,2.1-1.6,6.6-1.3,9.3-1.3,12.1,4.7,8.2,6.4,20.1,4.7,5.4,1.8,6.8,9.3,11,17.2-8.8,5.9-19.2-7.9-28.4-10.6-7.2-2.4-13.7-2.5-19.3,2.7-0.5.7-17.7-7.9-8.3,1,7.7,5.3,15.5.9,22.9,1,11.8,0.5,23,8.1,32.7,12,11.1,4.5,17.1,18,26.3,23.6,9.6,2.5,13.6,17.9,24.1,15.8,4.2-6.3,1.5-15.3-2.7-21.4,9.9-9.1,13.5-18.7,9.3-23.4-2.2-2.5-4.9-3.4-1.7-7.3,8.7-.2,2.8,11.8,12.7,2.8,7-6.4,8.5-.3,17.3-2.1,4.1,0.1,16.8-5,16,2-0.6,2.4-5.9,2.9-8,3.3-1.5.3-4.4,7.8-5.3,9-6.7-2.5-2.7-4.6-17.4-3-7.2,4.2,1,7.6-8.7,9.4-9,10.4-3.5,25.9-7.9,35.9-3.8,8.8,4.2,5.5,8.6,21.4,0.9,3.2,13.2,9.6,24,12.6,9.9,6.6,16.2,23.3,18.8,35.6,1.5,14.2,4.9,39.6-.8,55-3.4,3.5-15.1-.9-12.7,5.3,2,4,7.4.3,6,3.3-3.6,7.8-.5,9.9-0.6,17.7-0.3,15.3,6.2,15.8,4.6,25.1-0.4,2.3,4.3-2,10,9.3,5.3,6.2-.7-4.3,12-3.4,3.2,0,5.8,5.9,8.6,7.3,8.2,0.4,5.1-5.2,17.9,3.6,0.1-6.3-9.8-4.5-8.9-15.1-4.8-7.6-12.8-5.4-15.4-14.8-8.6-8.8.6-6.2-6.3-19.1-0.7-.5,3.1-5.9,2-8.7-14.3-26.5-6.7-55.5,6.7-63.3-9.3,1-13.8,10.4-11.3-6,1-5-5.9-11.9,1.1-13.1,11.9,16.1,12.3,6.5,14.9,12.9,1.4,3.4,12,4.5,8.5,6.2-5.4,2.6-13.6,3.1-7.4,7,5.9,3.7,7.4,12.4,16.3,5.7,6.1-4.7,7.5-6.7,20.7-5.3,0.6,0,2.4-6.4,2.7-8,0.3-1.4,8.4-.1,8.7-0.7,1.2-2.7-4.2-4.2-4.3-6.4,11-1.5,4.6,9.3,14.3,14.4,1.5,1.5,4,6.3,6,6,8.5-1.3-.4-7.1-0.7-10.7-0.3-4-2.9-4.5-4.7-8-2.7-9.7,4.4-7.8,6.8.3,1.2,4.1,4.9,1.6,5.2,7.1,0.7,7.1,4.8,13.7,9.7,8.7,2.9-2.9,6.8-5,1.4-14.7-1.5-2.7-3.6-8.6-2-10.3,7.7,4.1,3.9,3.1,6.7,10.7,10.2,11.7,9.4-.3,14.2,15.6,3.3,4.3,0,13.3,8,13,4.9-2.2-.9-14,4.7-6,2.9,2.9,3.4,5,8.6,5a19.42,19.42,0,0,1,9.3,2c7.5,0.4,1.7-6.3-4.9-8.3-1.8-7.3-8-13.6-8.5-20.4-8.6-2.1-15.6-5.9-14-8,4.5-1.7,13.4-13.9,3.7-14-4.2-4.6-13.9-7-4-8.7,4.2-2.1,2.2-9.3,8-6.1,0-2.8,1.4-4.6-2-10.6-2-3.4-1.2-8.8-4-9-15.1-.8.2-7.8-8.6-8.6-2.5-.3,4.7-2.5,2.9-7.1-0.5-1.3,1.2,2.3,7.4,7.4,2.4,1.9-5.5,2-3.6,3.7,3.8,3.4,6.4-.8,7.1,1.7,1,2,.2,6.6.7,8.6,7.6,4.3,10.4-9.7,13.4-3,1.5,3.4-7.6,7.6-7.3,13.7,2.7,9.4-4.1,9.3,2.3,15.6,7.8,4.2,4,10.3,5.3,17.7,2.9,4.5.1-13,5.7-15.9,2.8-1.4,0-4.5-.3-5.9,7.4-10,4.5,6.7,4.3,10.7,1.6,11.3,4.4-17.3,7.7-4.3,0,1.6-3.3,5.6-3.3,8.7,0,1.9-5.4,1.8-1.5,7.3,3.2,4.5,3.9,2.8,5.3,1.3,3.3-3.3-2.9-4.6,4.1-6,6.9-.5,4.9,2.4,2.7,8.7,7.7,1.4,7.6-4.7,11.1-.1,1.1,1.4.3,7.4,4.2,9.4,7.5-6.2,1.1-7.7-1.3-12.1,1.6-6.9-2.8-13.5,2.6-20.6,2-2.6,7.5,1.5,10,4,2.3,2.3,4.7,2.7,8.7,2.7,4.6,0,3.1-3.1,2.7-4.7s-3.3-1.9-3.3-6.7c0-5.4,3.5-1.4,4.7-6,1.1-4.3-3-4.4-4.7-6-3.4-3.4.9-7.2,2.7-5.7,6,5,9.5,5.6,17.3,6.4,2.2,0.5,4.4-3.4,6.7-4,0.9-.2-5.9,6-4.7,6.7,6.1,3.5,6-8.8,22.7-7.3,3,8.2,10-1.6,10.1,2,0.1,5,2.1,5.8,5.7-2.6,2.3-5.2-3.8-9,6.9-11.4,2.1,0,4.1,2.7,8,2.7,5.5,0.1,8.7-6,10.1,3.6-0.3,4,2,8.9,4.3,2.8,1.3-5.2,1,4,3,5.9,6.7,6.1,9.7,7.4,3.9,7.7-5.5,0-6.8-5.5-11.2-5.6-8.4-.1-12.2-10.2-21-6.4-3.7,4.1,18,13,21.6,14,4.6,1.1,3.6,1.1,4.7,5.3,7.2,0.1-1.1,9,15.3,3.3,3.1-3.1,5.3.6,5.3,3.3,0,4.7-4.6,4-2.2,6.4,4.1,4.1-5.6,10.4,1.6,12.2,5,0.5,4.6,6.4.4,10.5-0.6,2.5,1.6,7.6.2,8.9-15.9-1.5-.3,5.3-10.6,8.5-3.3,1.6,3.4,13.5-2.1,13.5-6.5,4.2-22.3,16.6-22.6,12-0.7-12.8-9.9-2.1-10.1-8.7-2.1-4.4-7.8-8.8-12.7-9.3s-1.6,6.6-2,8c-1.9,6.1-.9,8.3-4.6,4.7-2.9-2.9-5.6-1.1-5.6-6.7,4.2-8.9,2.6-10-2.4-8.7-1.6,1.6-4.4-2.6-6.7-2,0.2,5.6,6.5,7.2,3.3,14-1.4,2.8-5.8,3.9-8.2,5-1.8.8-2.4-7.8-10.4-7.7-2,0-1.6,6.1-2.7,5.3-3.6-2.8-4.2,0-10,.7-5-1-.3-4.1-1.9-12.4-4.4-2.5-7.2,4.5-10.7,4-4.2-.6,5.2-7,4.6-9-1.7-5.6-11,5.5-8.4-4.7,1.9-7.4-4.7-4.7-4.7-.3,0,4.8-3.6,5.3-6.9,3.7-2.4-1.2,0-6.1-2-6.7-12.1-3.4-3.2,6.5-13,5-2.9,0,1,5.6,3,7.7-7.1,16.1,8.3,1.7,4.4,15.7-2.3,10,4.2-2.5,14.3-1,8.5-.6,5,6.9,12.1,10,8.4,0.9,4.5,10.7,12.6,13.3,6.7,4,1.3,12.1,1.4,19.4,5.7,3.6,14.7,8.8,21.9,9.2,5.1,2.3,4.5,6,10.8,3.4,3.5-1.8,4.7,1.6,6.7,3.3,7.9,4.5-1.1-3.6,9.1-7.3,5.3-2.7.1-5.3,8.8-5.3,22.4-3.6,16.3,1,31.1-8.9,13.2-2.5,26.2-.5,38,8.9,8.2,6.5,8.1,6.4,5.4-.9-1.1-3.1,7.4-7.4,8.5-12.5,2.3-8.4-9.8-10.5,12.9-11.3,4.5,3.9,7.3.4,11.8,5.1,1.3,1.3.8,8.4,1,10,4.7,3.3,1.9-1.6,18.6-3.7,4.6-4.7-5.1-7.9,15.2-9.4,7.6,7.2,8.6-2.1,18,5.3,3.6,1.5,12.9,4,11.7.7-1.5-8.1,2.7-12.7,7.7-16.6,2.6-2,5.3-1.3,4.3,2.3,5.3,4,8.5-6.5,18.2,1.6,4,3.1,8.8-.2,5.8,8.6-0.8,2.3,2.3-4.4,11.5-.6,9.3-.7,15.4,5.1,24,10.9,5.8,1.7,6.6,1.1,11.4,5.7,9.3,6,19.1,6.6,27.6-1,2.4-2.4,4.8-2.3,9.6-2.3,14.5,4.9,21.8-4.6,29.7-11.6,12-2.2,5.6.2,0.3,4.3-21.4,22.1-24.2,7.2-35.3,14.7-8.5,3.8-12.6,8.7-26.7,4-9.9-7.5-7-.8-14.9,4-19.8,11.9-13.5-6.7-23.7-6-1.9,0-6.3,2-9.3,2-5.7,0,4.2,15,6,21.4,3,10.9-12.6,14.7-7,20.4,1.9,10.3,6.6,16.2,17,14.3,6.2-3,.9-8.6,15.7-2.1,3.5,2.8,7.6,6.7,9.6,10.8-6.4,2.7-11,5.3-10.6,13.3,8.5-1.1,7.9-.7,14.4,4.7,5.6,4.8,9.1,7.9-1.1,6.6-14.3-1.3-21.6,8.4-20.3-7.3,0.5-6-28.3,27-48.4,37.7-8.1,3.3-14.4-1.7-18.3,5.3-7.9,14.2-.4,7.6,5.6,14.6,8.8,10.2,39.7,29.2,30,40.4-2.5,2.5-4.6.4-3.4,5.3,7.3,6.3,8.5-5.2,3.8,16.4s-12.6,13.4-18.5,13.6c-11.4.5-14.6,8.4-5.3,11.3,3.5,1.1,7.6-.9,10.7,1.3,20.1,14.5,46.3,21.1,66.2,29.6,10.7,4.6,16.2,8.4,13.2-6.6-0.5-2.2-4.7-12.3-.4-8.7,2.7,2.3,6.9-1.9,8.3-2.3,11.9-3.8,23.4-2.1,35,11.6,12.2,14.4,34.1,22.9,47.9,34.6,5.4,4.6,20.2.5,29.8-9.2,4.7-4.7-1.2-4.8,30.6-17,9.1-3.5,8.7-8.4,19.1-13.7,5.4-2.8.6-7.8,6.4-12.4,2.9-2.3,5.3-1.4,6.6-4,0.3-.6-3.9-5.4,2.6-6,14.3-1.3,28.5-8.8,42-13.3s25.9,4.2,38.5-2c20.8-10.1,24.1-14.8,28.3.3,1.5,5.5,2.3,1.7,6.5-.3s5.3,2.8,5.3-4.7c0-4.9-.2-6.4,4.7-5.3,21.2,4.4,9.5,8.5,33.3,13.3a187.05,187.05,0,0,1,55.7,21c2.6,1.5-1.9,6.5,6.3,2.3,2.5-1.3,12.6,11.5,13.5,12.1,13.4,8.7,15.4,10.1,29.1,30.4,34.5,40.4,44.1,42.3,83.2,42.2,10.6,0-18.5,5.2-30.5,3.2-4.3-.7-9.5-4-14-4.6-19.4-2.4-42.6-21-46.8-22.1-13.6-3.6-31.1-11.6-33.9-21.9-1.3-4.8-5.7-4.8-10.9-5.9-12.9-2.8-20.7-14.9-29.8-17.3-43.4-11.2-31.4-14.1-75.9-25.5-6.4-1.6-8.8,5.6-14,7.3-27.8,9-52.6,10-69.3,11.3-3.3.3-17,5.3-17.7,7.2-6.7,17,10.8,20.2-5.5,34.8-2.7,2.5,5,10.5,6.8,13.1,16.5,23.6,2.1,28.3,5.8,54.4,1.1,8.1-1.5,15.6-10,19.8-8.9,4.3-20.8-.9-30,1.3-4.6,1.1-10.8,14.8-16.7,17.3-7,3-6.5,4.4-6.3,10.1,0.1,3.2,5.2-.1,8.3-0.4,6.8-.7,7.4,6.8,13.7,8.6,17.3,5,27.2-1.6,40.9,9.7,10.8,8.8,33,1.7,45.1,6.7,3.2,1.3-5.3,2.2-.6,4.1,10.8,4.3,23.8,6.6,33.5,10.9,12.4,5.5,12.1,17.2,22.3,24.3,20.9,14.4,20.3,11.8,30.1,30.8,3.7,7.1,11.8,13.7,8,21.7-7.2,14.8-37.2,14.9-37.1,19.6,0.2,7.2-2.2,14.4-4.3,14.1-3-.5,6.5,5.2,4.3,7.3-6.4,5.9-11.5,11.9-11.3,20.7,0,1.2,5.9,2.3,1.1,6.6-7,6.4-9.2,13.7-16.4,20.1-5.7,4.9,0,7.9-2,12.7-0.5,1.8-4.4-3.6-5.3-2-8.7,14.4-28.6,20.2-30.9,30-3.3,14.2,10.7,15.6-15.1,26.6-1.7.7-15.1-28.1-10.5-36.2,4.8-8.7-4-5.5-3.1-11.8,2.7-17.7-4.1-26.5-17.7-30.7-25.7-8-8.4,17.2-.9,26.7,5.9,7.5,4.4,17.4,8,26.3,2.4,5.9,5.1,13.5,6,19.9,3,21.8,12,21.6,11,68-0.1,3.7,3.8,5.3,3.9,12.3,0.1,6.6,42.8,37.3,75.7,61.1,8.1,5.9,24,28.4,25.8,30.6,9.5,6,15.7,12.3,20.9,23.2,5,10.6-4.8,16.5,11.7,24.5,7.3,3.6,6.4-.2,11.3,0,5.8,0.3,9,8.6,14.4,16.3,17.1,24.2,18.8,42.1,36.9,53l-31.1,115.2-2755.7-75.2,32.2-2754,1887.5,34,1015.8-3.6,86.5,194.8c-2.1,20-12.8,23.1-22,32a6,6,0,0,0,.9,9.7c3.4,1.9,12.4,4.4,13.3,5,11.5,7.5,13.8,25.8,13.6,45.3-0.2,27.8-4,41.6-2.8,47.8,1.1,5.6,12.5,13.1,16.2,14s9.9-2.3,14.8,2.4c7.8,7.4,11.4,25,18.6,44.8,3,8.2,14,5.8,16.3,7,10.8,5.7,20.9,7.6,27.9,16,3.2,3.9.9,12.3,4.1,15.5,1.1,1.1,4.4-8.4,12-14,2.9-2.2,15.5-4.8,18.5-6,6.1-2.5,18.8-13.2,20.5-16.5-7.6,16.8-12.7,22.7-15.5,25.5-3.4,3.4,1.9,7.3-2.7,8.4-5.9,1.5,5.8,7.8,8.5,8.5,4.8,1.2,5.4-1.6,8.5-.9,4.8,1.2,1.9,2.3,4.5,4.8,4.3,4.3,10.8,9.3,14.7,16.5-4.4-2.9-7.7-5.1-10.5-8s-7.4-.9-11.4-0.9c-2.4,0-4.9-3.2-7.8-3.9-6.3-1.6-10.3,2.5-14.1,4.4-3.1,1.5-9-.5-11.9-2.5,1,6.1-7.8,12.6-10.1,13.9-31,17.2-58.1,16-58.6,10.5-1-10.6-7.4-8.9-15.4-9.4-37.7-2.3-88.9,25.6-145,23.6-11.9-.4-40.4,1.5-60.8-4.6-21.2-6.3-34.4-4.5-42.1-24.2-2-5.2-10.7-10.5-9.8-14,0.7-2.7,7.1-15.3,7.6-22.8,0.5-6.8,5.6-1.7,11.9-6,4-2.7,8.5-7.5,8.3-11.1-0.2-3.1-11.9-9.5-9.5-17.5,1.4-4.8,5.3-13.1,3.5-14.9s-16.5,10.3-21.5,16.1c-4.2,4.8-10.3-2.8-12.3-3.1-2.4-.3-8.5,9.8-12.9,9.6-3.9-.2-4.4-5.1-9.2-4.9-4.5.2-2.2,2.8-7.8,2.8-3.1,0-4-9.7-7.1-9.8-2.6-.1-0.2,6.6-2.7,9.1-3.7,3.7-8.9-.6-9.6,2.7-0.9,4.3,6.8,5.3,11.7,8.5-5.9-.8-12.4,1.3-16.8-0.3-5.4-1.9-.9-8.6-14-2s-3.2,4.8-3.4,11.5c-0.3,9-19.7,19.3-29.1,22.4-9.8,3.2-4.3,11.8-4.3,14.3,0,6.1-11,2.9,6.8,9.5,4.4,1.6,1.2,17.2,2,20.9,0.7,3.1,6,4.1,4.2,10.2-0.6,2.1-3.1,4.2-3.2,6.3-0.2,5.4,5.9,3.9,8.7,5.3,1.1,0.5,2.6,3.7,3.7,3.5,5.7-1,6.6-3.9,12.6-1.8,12.4,4.2,17.1,19.6,15.7,20-3,1-8.1-12.1-17.6-9.9-1.9.4-3,.2-3.7,0.9-1.1,1.1,4.2,2.1,4.9,13.2,0.1,1.6,7.4-1.7,5.5,11.6-0.4,2.8,9.4,2.9,9.1,8.5-0.1,1.6-.7,6.3-1.1,7-0.7,1.4-.6,8.6.6,9.6,2.1,1.7,8.2,0,8.1,4.7-0.1,3.9-.5,7,0,8.9s4.1,4.9,8.8,8.6c-6.2-1.7-7.8,1.3-10.8-.8-1.3-.9-3.7-10.5-8-6.6-6.6,6.1-.9,12.8.4,14.1-3.5-1.6-9.9,1.1-10.9,2.5s-0.3,13.4-3.5,15.2c-1.1.6-5.8,0.8-5.6,1.7,0.7,3.4,1,11.5-6.9,5.1" transform="translate(175.32 89.33)" style="fill: #d4f6ff;stroke: #4c9ecc;stroke-miterlimit: 10;stroke-width: 3px"/>
	<path id="_Trace_26" d="M1747.4,150.5c0.6,2.1,1.2,4.4,2.7,6,5.9,6.2-4.3,4.1-4,6,0,0.3,6.1,2.5,2.7,8-1.2,1.9,1.3,8.5,1.3,8.7,0.7,2.7,3.7-4.3,6-6,2.6-1.9,2.5,6.8,4.7-2,0.9-3.6-.9-4.9,2-8.7,2.1-2.7-5.6-2-8-2-12.5.7,9.5-1.4,8.8-5.2-0.5-3.1,8.3-10.9-.2-8-3.5,0-2.4,1.7-5.7,3.3S1746.8,148.3,1747.4,150.5Z" transform="translate(175.32 89.33)" style="fill: #fff;stroke: #4c9ecc;stroke-width: 3px"/>
	<path id="_Trace_27" d="M971.7,274.4c-3,1.8-12.5,3.4-6.1,7.3,1.3,0.8,6,.8,7.7,2.7,2.5,2.9,4.2,2.9,7.9-.8,5-6.9,2.8-1.7,7.8,0,4.5,2.3,7.4-2.4,8.8,3.2,6,6.3,1.4-5.3,2.6-7.8,1.4-4.2-2.2-1.3-3.9-.9-9.3-.5-4.9-6.6-11.7-7.9-2.5-.5-1.8,4.1-7.2.6C974.2,268.4,973.6,273.2,971.7,274.4Z" transform="translate(175.32 89.33)" style="fill: #fff;stroke: #4c9ecc;stroke-width: 3px"/>
	<path id="_Trace_28" d="M346.6,711.6c-7.3,1.5-10.2,8.6-14.1,13.3-1.8,1.8,6.1,5.1,6.1,0,0-3.2,3.8-3.2,6.7-4.7,3.1-1.5,3.6-4.3,6-6.7C352.5,712.4,348.3,712,346.6,711.6Z" transform="translate(175.32 89.33)" style="fill: #fff;stroke: #4c9ecc;stroke-width: 3px"/>
	<path id="_Trace_29" d="M252.6,666.3c-1.1,4.3,6,5.2,9.3,6,4.9,1.2,1.3-.6,1.3-4.7C259.9,659.8,257.7,657.5,252.6,666.3Z" transform="translate(175.32 89.33)" style="fill: #fff;stroke: #4c9ecc;stroke-width: 3px"/>
	<path id="_Trace_30" d="M120.6,607c3-5,5.9-9.3,12-10.7a31.43,31.43,0,0,1,15.3-6c2.5,0-2-4.5-1.3-7.3,14.2-4.6,10.8-4.3,23.3-1.3,2.1,0,2-7.3,2-9.3,7-4.9,9.1,4.5,14,4,11.4-3,.6,8.9-1.3,12.5,0.4,4.1,15,1.3,18.7,2.1,4.8,7.4-14.4,9.2-17.7,11.5-1.9,5-6.6,9.1-9,3.9-17.2-.8-11.1,9.9-16,13.3-8.1,0-18.7,9.4-21.3-2,7.5-3.2,16.7-5.1,20.7-12.7,0.1-5.8-11.1-6-14-1.3-4.6,5.2-9-2.7-12.7,4.7A12.87,12.87,0,0,1,120.6,607Z" transform="translate(175.32 89.33)" style="fill: #fff;stroke: #4c9ecc;stroke-width: 3px"/>
	<path id="_Trace_31" d="M330,1061.6c1.6,1.6,1-6,3.3-6,3.6,0,5.2,2.5,6.7,4,1.9,1.9,4.5,2.9,6.7,4,2,1,2.7,4.7,4,6,2.8,2.8-3.2,4.2-5.3,2s-5.2-2.9-7.3-4c-1.6-.8-3.6-4.3-4.7-5.3C332.5,1061.5,331.1,1061.8,330,1061.6Z" transform="translate(175.32 89.33)" style="fill: #fff;stroke: #4c9ecc;stroke-width: 3px"/>
	<path id="_Trace_32" d="M1366.6,1499.6c2.7-5.8,11.4-9.6,17.6-6,5.4,3.1,7,3.3,11.7,3.3,7.1,1.6,7.8.1,13.3,8,1.4,2.8,8,1.2,10,.7,7-2,4.8-3.8,14.7,2.7,2.2,5.2,6.6,1.7,5.8,8-1.7,13.6-2.7,9.6-11.2,9.3-0.7-.2-3.5-6.1-4-6.7-1.8-1.8-3.4,5.7-5.9,6.3-8.4-.9-4,5.8-13.4,4.4-4.1-6.6-5.9-5.7-14-7.3-5,0-.1-5,1.3-5.3,3-.8-13.8-2.3-16.2-4C1370.4,1508.6,1367.1,1506.3,1366.6,1499.6Z" transform="translate(175.32 89.33)" style="fill: #fff;stroke: #4c9ecc;stroke-width: 3px"/>
	<path id="_Trace_33" d="M1574,1786.3c0.2-.1-0.2,9.1,2,8.7,5.5-1.6,9.4,4.5,14.1,4,5.7-.8-3.2,6.6-0.3,12.6,0,5.9,3-4.3,3.3-5.3,1.1-4.5,11.2-1,13.1.9,8.5,11.3,5.2,2.7,18.2,9,9.3,6.2,10.5-13.7,16,6.6,1.6,5.6,5.2,6.8,7.4,12.4,2.8,5.6-5.6,6.9-1,11.5,4.8,7.6,10.4,6.7,20.8,9.5,4.4,4.1,5.8,9.2,10.9,11.1,9.4,3.6,19.3-1.5,28.1-1.3,3.1,0.1,17.2,11.1,1.2,13.2-1.4,9.1-1,7.4-7.7,12.3-2.6,2.6-1.4,4.3-.6,5.4,3.1,6.5-6.6,1.9-10,10.3-7.4,1.8-3.8-1.2-5.6-4-11.8-2.5-11.2-5.2-19.1-8.4-2.3-.6-3.7,3.4-6,4-19.2,1.9-1-3.6-14.7-5.3-12.5-.1-12.4-11.7-22-8-3.1,3.1-.2,4.9-4.7,6a31.21,31.21,0,0,1-9.3,1.3c-1.2,0-.7-8.2-0.7-9.3-7.6,6.1-6.4,6-17.3,8-5.6-2.7.2-13.8-6.7-10-9.3,3.4-2.2-6.3-11.3-8-1.5-.4-1.8-8.7-2-9.3a19.24,19.24,0,0,1,11.3-6c5.8-2.7-12.1-7.7-13.6-9.4-4.2-2.4-4.1-12.6-6.4-15.9-0.1-.1-2.1-7.8-4.2-10,2.8-5-.6-10.2,1.7-16.8,0.4-1.1,13.9-1.2,13.9-.6,0,1.2-7.3-1.6-5.9-9.1C1566.7,1792.5,1570,1788.1,1574,1786.3Z" transform="translate(175.32 89.33)" style="fill: #fff;stroke: #4c9ecc;stroke-width: 3px"/>
	<path id="_Trace_34" d="M1842,1833c-2.3.4,5.4,5.8,4,8.7-1.3,2.6-3.9,4.2,0,6.7,7.3,4.7.7-.3,14-3.3,7.7-3.8.4-19.9-.7-10-1.3,2.7-5.2,2-8.7,2C1845,1837,1844.9,1832.5,1842,1833Z" transform="translate(175.32 89.33)" style="fill: #fff;stroke: #4c9ecc;stroke-width: 3px"/>
	<path id="_Trace_35" d="M1764.6,1773c-2.7-.7-1.8,8,1.1,8,4.9,0,5.5.1,6.9,4.7,1.7,5.3,10.2,6.1,15.7,6,3.9-.1,4.9,2.8,4.9,6.7,0,4.7,4.5,2.1,6,1.3,1.3-.6-3.3-9-3.3-9.3-0.3-4.1,6-4.3,8.4-7.8,2.2-3.1-9.5-.1-14.3-0.7-5.8-.6-8,0.8-13.4-3.6C1772.6,1772.7,1770.7,1774.5,1764.6,1773Z" transform="translate(175.32 89.33)" style="fill: #fff;stroke: #4c9ecc;stroke-width: 3px"/>
	<path id="_Trace_36" d="M1868,1562.3c-1.5.7,1.8,7.6,1.3,9.3a90.65,90.65,0,0,1-4.7,12c-0.2,5-.5,6.4,1,11.4,1.1,2.1,1.3-5.3,3.7-5.3,9.8-.4,1.2-3,1.7-9.7,1.3-7.9,3-7.4,5-14.3,1.4-8,3.9-1.4,8.7-.7,6.1,0,9.5-1.7,7.3-4-7.4-2.4-11.8,3.6-11-7.4,0-3.7,6.5-9.3,1-9.3-1.4,0-5.3,7.2-5.7,8-1.7,3.4-5-5.2-5,2.7C1871.3,1558.6,1871.2,1559.9,1868,1562.3Z" transform="translate(175.32 89.33)" style="fill: #fff;stroke: #4c9ecc;stroke-width: 3px"/>
	<path id="_Trace_37" d="M1901.3,1562.6c-0.1.9,5.3-4.3,8-5.7s4.7-6.8,4.7-10,2.9,4.6,6,5.3c7.5,1.6,1.9,2.7-5,8.4-3,6.4-4,7.9-8,12.4-4.3,4.7-5.5-2.9-2-6.7C1906.4,1564.8,1901.5,1560.5,1901.3,1562.6Z" transform="translate(175.32 89.33)" style="fill: #fff;stroke: #4c9ecc;stroke-width: 3px"/>
	<path id="_Trace_38" d="M2336.6,2221.6c7.7-1.4,14.3,9.9,20.7,6.3,5.2-2.9-3.8-9.8-1.9-14.4,4.2-10.1-9.5-14.4-19.3-18.5-8.1-3.4,3.6-10.4-17.5-7.4-3.8.5-4,.8-7.3,0-2.3-.6-5,3.3-8.7,3.3-3.4,0-4.6-1.8-9-.7-3.2.8-9.9-.6-2.3,3.7,2.1,1.2,2.9,2.6,4.7,4.4,3.4,3.4,8.4-3.7,6.7,3.3a35.32,35.32,0,0,0-1.3,9.3c0,4.7-.7,5-4,7.3-6.5,4.6-5.9,13.3,4,16.6,8,2.7,7.9,6.7,12.7,13.1,6.1,8.1,2.8,16.7,14.7,16.6,6.7-2.4,7.1-5,10.3-10.8,0.9-1.7,7.2-5.7,7.6-7.6,0.7-3.4-1.2-6.3-2-9.3-1-3.9,3.4-2.6,1.3-6.7-1.7-3.3-6,3.4-6-4C2340,2223.4,2335.5,2221.8,2336.6,2221.6Z" transform="translate(175.32 89.33)" style="fill: #fff;stroke: #4c9ecc;stroke-width: 3px"/>
	<path id="_Trace_39" d="M2756.6,2094.3c4-.1,2.8-8.1,4.4-8.7,5-1.9,11.2,1.1,16.4-3,3-2.3,8.2,1.7,12.7,3.3,2.9,1-3.6,5-2.7,7.7,2.6,8.1,6.4.6,6,11.7-0.1,2.2-6.4,5.9,2.6,6.3,10.3,0.5,10.1,10.4,2,10.7-5.3.1-6.7,4.6-7.9,4.7-5.8.2-16.6-1-17.5,1-0.7,1.5,14.1.1,14.1,4.3,0,5-2.5,7-7.9,7-8.8,1.8-1.3,6.8-.1,11.7-2.4,5.9-8.5-3.7-10-6.7s-4-2-8-2c-4.6,0-8.7,1.4-7.6-3.1,1.8-7.1-6.5-.3-7.3-10-0.7-7.9,13.5-9.2,6.3-10-5.1-.5-11.8-4.5-11.6-8,0.7-2.8,7.7-1.6,9.3-4,3.2-4.7,13.9.3,10-1.7-4.9-2.4-9.9-3.5-13-8.7C2745.7,2091.7,2753,2094.4,2756.6,2094.3Z" transform="translate(175.32 89.33)" style="fill: #d4f6ff;stroke: #4c9ecc;stroke-width: 3px"/>
	<path id="_Trace_40" d="M2644.5,129c1.1,0.9,1,5,1,8,0,0.5,4.5,1,5,3,0.8,3.3,1.7,2.9,4.5,1.5a32.51,32.51,0,0,1,6-2c2.9-.7-0.5-4-3-4-2.9,0-3.3-2.6-4.5-5-0.6-1.1-4.4-2.1-6-2.5C2646.3,127.7,2637.6,129,2644.5,129Z" transform="translate(175.32 89.33)" style="fill: none;stroke: #4c9ecc;stroke-width: 3px"/>
	<path id="_Trace_41" d="M1050.5,704c0.2-.8,7-0.8,9.5-2,2.7-1.3,6.1-1,8.5-1.5,3.8-.8,2.7-5.5,5.5-6.9s1.1,3.9,3.1,4.9c3.1,1.5-7.3,8.8-3.7,7.4,16.4-6.3,11.5-4.8,11.2,3.4-0.1,2.9,3.8,4.2,4.9,6.9,1.8,4.4,3.2,7.3-4.5,6.6-3,0-4.8,1.1-7.5-.3-2.4-1.2-3.4-.5-6-1.8-2.3-1.2-5.9-2.2-7-4.2-3.1-5.5-7.2-2.1-7.9-3.6-0.9-1.8-.3-5.6-4.6-5.9C1050.9,706.9,1050.3,704.8,1050.5,704Z" transform="translate(175.32 89.33)" style="fill: none;stroke: #4c9ecc;stroke-width: 3px"/>

	<path id="_Trace_" d="M2737.5,1990c21.5-.1,27.6,7.9,41,13,16.9,6.4,36.8,3.4,54.2-1,19-4.9,22.1-19,44.9-21.3,23.2-2.4,17.1-2.9,27.6-8.6,2.2-1.2,16.1-3.2,19.4-8.5,9.3-14.9,27.3-27.3,37.3-38.2,13.2-14.5,22.9-25,49.4-41,8.2-4.9,17-24.3,47.6-40.6,7.1-3.8,16.3-2,24.1-4.4,10.6-3.2,18.2-10.1,28.3-14.9,2.3-1.1,15.9.1,18.6,0.2,10.5,0.4,20.8-6.1,28.1-12.4,23.2-11,28.4-10.5,52.2-4.8,2.9,0.7,28.5-.7,34.6,1.4,14,4.6,21.8.7,31.6-3,9.1-3.4,23.7-6.7,35.5-6.8,2.4,0,6.7-7.4,8.5-8.9,10-9,17.2-15.6,31.5-16.9,9.9-.9,15.2,3.9,25.1,4.7,16.9,1.2,28.4,4,45.7,9.1,14.8,4.4,33.3,17.9,47.2,21.7,22.6,6.3,21.9,8.9,35.1,7.6,9.3-.9,19.6-3.8,27.7-9.2,2-1.3,7.7-11,9.8-10.9,12.3,0.9,29.2-10.8,35-23.5,3.9-8.4,9.9-14.1,21-15.5,7.4-.9,14.8-3.7,22.1-5.2,12.3-2.6,24.2-5.3,35.7-1.7,13.2,4.1,35.8,5.4,54.9,4.8" transform="translate(175.32 89.33)" style="fill: none;stroke: #4c9ecc;stroke-width: 3px"/>
	<path id="_Trace_2" d="M3389.7,1778.9c14.8,7.4,19.8,12.9,20.3,13.8,4.8,8.6,16.1,8.7,21,13.4,3.6,3.5,21.9,8.1,37.8,18.1,6.8,4.3,7.7,2.3,15.2,3.2,26.4,3.1,9.1,6.4,28.3,7.3,12.5,0.6,25.1-13.8,36.7-15.8,9.4-1.6,15.1-1.9,19.3-13.8,1.1-3,8.3-3.5,9.5-12.2s6.7-17.6,19.1-14.6c5.5,1.3,15.1-6.1,17.5-6.8,12.7-3.7,18.5.2,32-4.2,4.9-1.6,6.4-7.5,11.8-7.5,16.6,0.1,25.1-1.3,36-5.1" transform="translate(175.32 89.33)" style="fill: none;stroke: #4c9ecc;stroke-width: 3px"/>
	<path id="_Trace_3" d="M3471,1826c10.8-1.2,12.1,1.9,30-9.5" transform="translate(175.32 89.33)" style="fill: none;stroke: #4c9ecc;stroke-width: 3px"/>
	<path id="_Trace_4" d="M3600.9,1757.9c1.8-1.8,13.9,1.4,16.3,2.3,6.7,2.6,14.1-1.5,21-.4,10.7,1.8,16-7.1,25.8-7.8" transform="translate(175.32 89.33)" style="fill: none;stroke: #4c9ecc;stroke-width: 3px"/>
	<path id="_Trace_5" d="M2845.6,1996.5c13.4,2.2,27.5-2.1,31.4,5.5,6.8,13.2,15.2,21.1,29,24.5,25.4,6.3,8,20.7,28,24.8,6.6,1.4,14.6-5.1,26-1.8,8.9,2.6,13.2-3.3,21.8,6.7,4,4.7,12.9,1.1,16.2,1.8,7.2,1.6,1.5,9.1,20.3,7.9,6.1-.4,17.3,11.4,19.7,14.1,8.6,17.9,30,27.1,37.4,38.6,3.8,5.9,6.4,5.7,13.1,13.3,1.5,1.7,1.1,2.4,1.5,4.1,0.5,2.1,1.4-.8,3.6-0.2,3,0.7,3.4,7.4,5.2,9.3,1.7,1.7,14.8,4.1,16.6,5.5,22.8,17.8,12.7,26.9,49.7,33,13.4,2.2,26.3,17,40.6,17.6,18.1,0.7,23.2,11.4,32.1,5.1,2.5-1.8,3.7,8.6,36.5,7.3,7.9-.3,26.5,10.8,39.5,10.6" transform="translate(175.32 89.33)" style="fill: none;stroke: #4c9ecc;stroke-width: 3px"/>
	<path id="_Trace_6" d="M2871.3,1981.9c-5.9-17.5-.9-34.1,5.6-52.1,4.2-11.7,3.3-21.4,3.1-37.1-0.1-10.1,5.6-12.7,6-45,0-3.2,5.7-9.1,9.8-22.4,3.5-11.5,14.3-6,13.3-28.5-1-22.1-4.9-19.2,1-45.2,3.1-13.6-8.8-18.5-6.2-34.6,1.7-10.9-2.1-15.7,6.5-27.5" transform="translate(175.32 89.33)" style="fill: none;stroke: #4c9ecc;stroke-width: 3px"/>
	<path id="_Trace_7" d="M3581.5,1765.8c4-18.2,7.4-38.2,16.3-54.7,4-7.4,2.3-13.4,10.2-19.6,14.8-11.5,22.4-13.7,22-27.1-0.3-10.5-8-14.6-9-23.4-3.6-31.5-32.9-8.1-32.1-24.1,1.2-22.2-1.1-27.7-19.4-34-21.5-7.3-24.6-8.9-37-21.5" transform="translate(175.32 89.33)" style="fill: none;stroke: #4c9ecc;stroke-width: 3px"/>
	<path id="_Trace_8" d="M3651.8,1596.7c-12.9,2.4-21.6,17.7-12.3,28.3,6.7,7.8,9.5,15.4,7,25.5-2.1,8.6-9.8,13.3-16.2,18.8" transform="translate(175.32 89.33)" style="fill: none;stroke: #4c9ecc;stroke-width: 3px"/>
	<path id="_Trace" data-name="&lt;Trace" d="M3533,1562.5c-2.9-6.6-3-14.4-7-20.5-6.6-10.1-2.1-16-2-24,0.2-22.3-5.9-23.3-5.5-35.5,1.8-14.2,25.3-37.8,25.6-51,5.7-7-4.1-11.2-2.7-18.1,6.9-10.1,12.4-7.4,19.1-18.2,6.4-10.2-3.2-9.2-4.9-13.8-2.6-7.2-.3-14.7-16-12.3-6.4,1-10.6-.6-4.4-7.6s5.7-17.3,4-25.6c-1.8-8.6-.6-23.5-11.6-24.4-13-1.1-14.7-14.9-14.7-24.4,0.1-10.2,10.4-17.2,9.2-27-0.8-6.7-8.9-13.1-5-19.5,4.9-7.9,10.5-17.8,3.7-24.8-13.2-13.5-24.7-4.6-25.6-24-0.7-15,8.8-8.8,16.1-6,3.3,1.3-.8-14.3-2.4-17.8-5.3-11.8-19.4-18.8-10.1-24.8,5.8-3.7,5.2-5.8.4-9.5-4.5-3.5-10.8-11.7-11.6-16.9-2.3-15.8,3-21.2-7.3-34.7-8-10.7-16.3-19.6-8.8-37.9,5.2-12.6-3.5-24.1-13.4-33.4-12.4-11.8-3.6-25.1,8-30,8.5-3.5,13.5-13.4,14-22.5,0.5-9.3-6.2-22.6,2-27.7,7.5-4.6-2.4-7.9-2.1-18,0.5-15.8,21.1-12,25-28.4,1.4-5.8,9.3-14.1,15.4-20.1" transform="translate(175.32 89.33)" style="fill: none;stroke: #4c9ecc;stroke-width: 3px"/>
	<path id="_Trace_9" d="M3651.6,1596.4c13-2.3,8.7-14,12.9-20.9,3.6-6,14.9-13,8.7-17.7s-7-8-8.2-15.8c-2.9-18.3,6.1-13.7,15.8-13.8,21.3-.2,14.2-32.3,6.6-33.1-15.7-2.1-17.1-13.9-11.4-25.1,4-7.9,9-6.8,17.1-6.9s18,2.3,21.9-6.6c3.6-8.1-10.5-22.9.6-27" transform="translate(175.32 89.33)" style="fill: none;stroke: #4c9ecc;stroke-width: 3px"/>
	<path id="_Trace_10" d="M3648.9,1597.6c4.1,11.2,13.9,17.5,20.1,4.9,5.4-10.9,11.4-20.4,24-22,10.7-1.4,22.6,3.5,32.4,8.3,7.9,3.8,23.9,11.7,28.3,3.3,3.9-7.4,8.4-9.1,21.2-8.8" transform="translate(175.32 89.33)" style="fill: none;stroke: #4c9ecc;stroke-width: 3px"/>
	<path id="_Trace_11" d="M3248,852c15.7-.1,15.1-5.8,21.4-11.8,5.3-5,14.4-4.6,15.7,3.8,0.9,6.1-6.3,3.7-5.6,17,0.1,1.8-6.1,10.5-7.7,11.5-9.6,5.8-9.2,11.9-16.8,20.5-7.9,7.3-20.9,7.1-27,15-3.1,4,3,7.9,4,12.5,1.9,8.8.4,20.9-10.7,21.1-8.6.1-7.9,2.9-9.1,4.1-2.4,2.4-5.4.8-7.9-.6-2.1-1.2-6.7-5.2-8.2-3.9-5.5,4.7-13.5,3.7-21.7,5-8.8,1.4-15.3,8.9-23.4,12.6-8.7,4-10.9,8.5-17.6,12.3-8.9,5.2-21.2,4.2-31,8.5-7.9,3.4-13.2,18.9-20.2,12.9-9.4-8.1-29.3-19.5-37.3-11.8-7.2,6.9-10.9,10.5-27,8.5-12.1-1.5-11.6-2.9-22.1,3-6.1,3.4-10.6.9-14.3-2.5-2.7-2.5-11.4-3.6-12.1-3-7.4,5.7-3.7-3.7-20-.5-12.5,2.5-7.5-16.2-23-7.6-5.4,3-9.2,2.7-13-2.4s-10.5-4.4-16-3c-12.9,3.4-5.5-9.2-13.1-11.1-8-1.9-14.3,8.1-26.9,7.6-2.7-.1-4.9-5.6-5.3-8.1-1.9-12.2-12.1-10.9-13.2,7.1,0,16.9-30.5,14.3-42.6,14.4-3.9,0-11.9,4.8-15.2,4.9-6.2.3-12.7-5.8-18.7-6.9-13.1-2.4-25.4.8-36,8.7-7.7,5.8-12.8,14.6-17.5,23.3-6.1,11.4-6.1,23.5-7.3,36.5-1.3,13.6-5.6,2.2-7.2,20.5-0.7,8.1,2.7,8.2-5,24-4.4,9,1,11.1,10.2,11.2,7.4,0.1,14.5,5.9,10.1,12.9-4.5,7.2,2.5,15.2,5.8,21.2,8.1,14.7.8,31.2-8.1,43.7-3.5,3.6,3.7,3.4,7,7.5,2.4,3.1-4.2,2-5.5,2-11.5.4-10.5,4.6-7,16,5,16.3,14.5,5.4-14,20-3.8,2.4,1.7,9.5,2.5,13.5,3,15.4,6.6,32.5-3,45-2.7,3.5-9.8,1.8-14.2,3.2-5,1.6-10.2,3.7-9.8,10.3,0.3,6.2-6.6,4.2-10,7.5-5.7,5.4-15.4,9.3-11.5,16.5,2.3,4.2,5.6,9,0,15-7.4,7.9,8.5,14.9-.5,23-3.7,3.3,10.3,4.2,13,4,13.3-.9-0.1,17-5.6,22-8.4,9.7-1.5,17.7-.1,26.8,1.2,8.1,2.7,15.5-6.8,17.2-7.2,1.2-16.2-3.7-19.7,4.8-2.1,5-10.8,7.7-16.3,8.2-14.7,1.5-37.4,7.7-40.4,14.3-4.3,9.5-13.3,16.6-20.6,9.2-8.2-8.3-11.9-5.6-20.7-1.7-11.1,4.9-30.3-.9-35.6,11.8-3.5,8.4-13.1,14.7-22.2,15.3s-17.3,12.6-18,21c-1.1,12,10.9,7.6,9.5,22.5-0.7,7.1-3.8,11.6-11.5,16-1.3.8-1.3,5.9-1.5,7.5-1.1,7.3,1.3,16.3-8.5,16-14.9-.5-11.3-14.7-26.6-10.9-8.9,2.2-15-4-21.3-.3-5.3,3.1-11.2,0-15.8-2.5-5-2.7-7.5,2-10.7,3-2.6.8-9.5-.5-12.1,0.2-6.1,1.8-8.8,9.7-15.7,11.3-2.9.7-5.7-3-8.3-2.8-8.1.5-18,1.8-19,4-2,4.8,2.3,8.3,1.4,13-1.2,5.8-7.2,4.5-10.3,5.6-10.3,3.8-11.1,16.9-11.6,25.9-0.4,7.8,1.6,16.6-4.1,21.7-6.8,6-13.9,2.4-22.8.2" transform="translate(175.32 89.33)" style="fill: none;stroke: #4c9ecc;stroke-width: 3px"/>
	<path id="_Trace_12" d="M2768.5,682c-4.6,3.1-4,7.9-4,12.8,0,2.5-2.5,4.5-4,6.2-3.3,3.9-.2,7.7,2.4,10.3,1.1,1.1.9,4.9,1.8,6.5,3,6,11.6,16.2,8.3,22.6-2.5,4.9-9.7,1.6-4.5,9,5.5,7.9,7.1,19.4,4.5,28.5-1,3.4-3,8.6-.8,11.4,6.7,8.4,11.4,17.8,4.9,27.3-1.7,2.6-1.7,14.8.3,17.3,7.8,9.8,17.1,9.2,19.8,19.3,4.8,17.9-5.2,11.2-.8,16.7,3.1,3.8,5.2,7.8,2.5,12.5-3.1,5.5,5.8,6.9,4.5,17.5-2.2,18.1-8.1,18.7-17.7,18.6-13.3-.2-4.1,11.8,3.5,13.2,10.3,1.9-4.7,9.6-10.8,13.3-6.8,4.1-6.9,17.1-8.7,24.8-1.4,5.6-7.6,2.7-6.8,11.2" transform="translate(175.32 89.33)" style="fill: none;stroke: #4c9ecc;stroke-width: 3px"/>
	<path id="_Trace_13" d="M3017.9,404.2c7.9,5.2,16.5,5.9,25.5,1.4,17-8.5,22.4,5,13.1,15.3-5.6,6.2-3.7,19.4,3.9,23.3,1.7,0.9,5.3-6.9,6.6-6.3,3.7,1.8,2.7,5.6,8.6,5.4,4.9-.1,12.1-0.9,14-5.5s3.1,0.3,6.3,5.8c6.6,11.5,3.3,13.2,14.1,22.3,7.3,6.1,7.2,3.9,13.8,1.3,2.6-1,4.3,0,5.2,3.7,1.1,4.3,5.6-2,7.9-2.3,10.3-1.5,3.6,6.9,16.2.7,4-2-11.2,7.5,5,5.7,4.7-.5.8,7.2,10.7,6.5,2-.1,1.9-4.5,3.7-5.4,3.8-1.9,3.5,3.5,5.3,4.9,19.9,9.9,21.5-.5,20.1-12.4-0.9-7.2,17.8-10.8,22.3-6.7,2.7,2.5,8.2-5.1,11.1-4.4,1.9,0.5,8.8,6.9,10.9,6.2,6.7-1.9,10.8-2.5,16.9-6.8,1.9-1.3,5.3,1,7.7,1,2.7,0,4.1.4,4.1-3.8,0-1.9,4.8-1.9,6.4-2.2,12.4-2.1,11.2-6.7,20-8.5,8.3-1.7,16.8.8,25-1.4,5.3-1.4,2.9-4.1,11.9-1.9,4.8,1.2,12.5,2,15.5,5.6,8.4,10,13.1,6,23.6,1.7,7.3-3,18.4-3.5,24.5,1.6a56.57,56.57,0,0,1,13.5,17.4c1.5,2.8,12.7,6.5,16.7,5.5,10-2.4,15.6-15.1,18.8-12.8,7.1,4.9-2.6,13.5,13.4,21.3" transform="translate(175.32 89.33)" style="fill: none;stroke: #4c9ecc;stroke-width: 3px"/>
	<path id="_Trace_14" d="M2898,420c0.9,27.4-4.8,28.3-3.6,38.2,1.1,9.5,4.4,16,6.6,25.4,3.1,13.2,2.7,32.8,2.3,46.7" transform="translate(175.32 89.33)" style="fill: none;stroke: #4c9ecc;stroke-width: 3px"/>
	<path id="_Trace_15" d="M2523.5,560c-1.1,13.7-4.5,23-15.3,26-5.9,1.6-9.6,9.2-13.7,14-9.5,11.2,1.9,12,0,21-1.5,7,4.4,11.4,9.8,10.9s7,1.4,6.7,7.1c-0.5,10.3,7.9,18.1,10.9,27.5,2.6,8.5,4.6,16.8,2.6,25.5-3.6,16.3-20.2,14-21.1,23.5-0.9,9.8-9.7,25.7-23.9,29-7.5,1.7-3.1,7.5-2,11.5,3.7,14.1-7.9,15.4-19,15.8-2.5.1-7.7-5.2-9.2-5.3-8.3-.8-3.1,4.5-10,4.1-5.6-.4-13.6,8-21.3,9-3.3.4-5.7,5.1-8.5,6.8" transform="translate(175.32 89.33)" style="fill: none;stroke: #4c9ecc;stroke-width: 3px"/>
	<path id="_Trace_16" d="M2410.6,786.1c-15.8,15.1-11.7,38.1-26.5,45-22,10.3-28.8,5.2-39.6,2.4-8.5-2.2-17.3-3.8-26-2-11.3,2-18.9-5.4-29.5-9.5-18.2-7-25.7,13.2-42.6,16.7-20.2,2.3-32.4-7.1-47.3-15.4-9.7-5.4-16.7-33.4-42.2-43-7-2.6-15.7,4.2-20.2,4.1a60.15,60.15,0,0,1-25.7-6" transform="translate(175.32 89.33)" style="fill: none;stroke: #4c9ecc;stroke-width: 3px"/>
	<path id="_Trace_17" d="M1662.5,262c-0.1-.1-2,5.3-3,7-3.6,6-9.5,2.6-12.9,8.3-4.9,8.1-3.8,15.5,5.4,15.7,6.6,0.1,4.5,2,5.5,14,0.9,11.1-17.4,13.1-20.9,17.3-4.4,5.2-8.6,13.2-3.6,18.7,3.6,4,.5,8,2.7,11.8,2.5,4.3,7.3,4.2,2.7,12.7-5.4,10,6.8,6.8,9,29.1,0.5,4.9-2.3,5.1,2.1,9.5,3,2.9,4.7,30.3-2.8,41.9-6.3,9.8-14.8,7.6-15.2,15.5-0.5,10.5,9.8,15.4,8.5,26.5-0.9,7.8,6.1,20.7-4.5,24.5-8.7,3.2-2.4,14.7,5.5,15,9.6,0.4,16,5.3,21.3,13,5,7.2,8,10.3,7.2,18.5-1,9.9,7.2,10.2,12,16,1.4,1.6,1.5,7.6,1,9.6-1.9,7.9,12.7,13.4,5,19-6.6,4.8-1.8,10.3,0,16.4,7.5,24.8-8.8,10.9-14.5,18-6.1,7.5-9.5,14.2-5.7,22.4,4,8.6-11.4,12.2-16.7,16.5" transform="translate(175.32 89.33)" style="fill: none;stroke: #4c9ecc;stroke-width: 3px"/>
	<path id="_Trace_18" d="M1570,612.5c-31,21.2-17.1,28.7-6.9,52,8,18.3-4.6,31-1,48.2,4.4,21,14.1,38,28.6,53,9.3,9.6,33,.4,32.8,16.2-0.1,8-7.1,8.9-10.9,13.8-5.2,6.8,1.4,13,7.4,17.8,6.3,5.1-6,9.4-7.7,16.2-2.7,11,10.2,10.2,12.7,19.8,5.5,21.3,16.9,21.3,33,22.3,13.3,0.9,27.1,17.4,34,6.3,5-8.1,2.2,2.7,25.7.8,4.6-.4,2.8,5,9.4,3.3,2-.5,9,10.7,11,9.3,11.7-8,5.3.9,6.1,11.7,0.5,7.9,2.8,13.3,10.3,15.2,6,1.5,9.4,3.9,4.5,8.5-4.5,4.2-13.3,7.3-4,14,3.9,2.8-4.5,8.6-5.5,11.5-1.1,3.2,6.8,7.3,2.8,10.1-8.7,6.3-6,11.2,6.2,10.4,7.6-.5,5.9,6,2,8.8-8.7,6.2,7.2,19.8,10.2,37.4,1.9,11.1,18.9-4.6,17.8,14.8-0.4,7.9,4.3,20.4-1.5,26.5-5.4,5.7-5.9,11.1-6.5,19-1.2,16.4-23.9.4-22.5,17.5,0.3,3.9,11.3,7.6,2,9.5-6.4,1.3-11.4-1.5-13,6-1.2,5.7,6.7,5.8,1.5,10.5-5.7,5.1-13-.7-20,0.5-5,.9,3.7,21.2-4.5,13.5-10.4-9.8-17.4,5.5-8,14.7-0.4,7.8-9.3,7.3-10.5,24.8-0.7,9.9-5.4,14.9-12.2,21.6-4.2,4.1,6.4,10.7,5.9,16.3-2.1,25.3-2.5,24.5-15.3,18.6-6.8-3.1-12.2,10-20.5,5-22.6-13.8-31.3-7.5-50.6-5.5-12.3,1.3-12.4,7.3-7.4,16,7.8,13.7-23.2,17.7-7.1,32.5,6.2,5.7-1.3,17.1-10.4,17-5,0-16.5-5.2-18-.2-3,9.7-6.7,12-15.5,10.7-17.5-2.6-8.3,4.3-11,10s-6.7,5.5-6.5,13c0.2,8.3,8.6,11,5,21.3" transform="translate(175.32 89.33)" style="fill: none;stroke: #4c9ecc;stroke-width: 3px"/>
	<path id="_Trace_19" d="M1459.1,1296.4c-1-25.1-5.1-15.5-8.7-26.4-1.5-4.5,4.2-10.8,1.2-14-3.9-4.2-4.8-7.5-3.1-14.5,3.1-12.5-1.4-22.4-3.3-33.8-1.8-10.5,6.3-6.8,10.3-9.2,7.5-4.6,6.1-15.9-.5-21-3.9-2.3-4.2-11.4-1-14,5.1-4.1,17.1-4.5,21.5-.5,3.9,3.5,9.1,8.4,11.4,1.7,6.3-18.1,22.8-51.5,29.5-47.9s4.2-5,14.1-4.9c7.5,0.1,12.6,4.4,20.2-6.1,3.1-4.2,11.6,1.5,15.8-1.4,5.7-4-.8-16.6,6.2-20.9,10.4-6.4,4.2-20.2,3-29.4-0.5-3.5,8.5-.2,16.8-12.6,5.7-8.5,7.4-21,5.4-30.8-0.9-4.6-10.4-5.8-12.1-9.9-3.9-9.4-.4-14.2-7.1-14.3s-5.4-2.2-6-9.6c-0.5-6.2-5-10.8-6.3-18.3-2.5-14.7-3.2-15.5-19.4-12" transform="translate(175.32 89.33)" style="fill: none;stroke: #4c9ecc;stroke-width: 3px"/>
	<path id="_Trace_20" d="M1187.5,961c-7.4,6.7-11.4,10-26.5,9.5-4.9-.2-10.4,1.7-13.5,5.8-12.2,16.3-12.6,2.9-32.2,14.7-17.4,10.4-17.8,25.5-31,35.8-10.7,8.3-22.5,19.5-35.7,24.6-8.8,3.4-19,9.8-30.1,9.1-4.5-.3-3.1,6.4-8.1,5.5-4.5-.8-6.8-1.4-11.3-2.3s-9.6,4.7-15.4,5.5c-8.6,1.2-5.3,8.4-19.5-1-0.9-.6-14.9-2.1-17.2,2.3-6.3,12-1.3,21.1-3.2,31.5-1.2,6.4-3.8,7.6-9.8,8.5-15.6,2.4-9.3,15.3-16.2,27.1" transform="translate(175.32 89.33)" style="fill: none;stroke: #4c9ecc;stroke-width: 3px"/>
	<path id="_Trace_21" d="M900,836.5c9.9,14.4-4.7,29.2,3,38.5,4.9,5.9,16-4.7,24-7,6.9-2,10.3,1.1,4,7-5.6,5.2-9.2,9-10,16.5-0.7,6.7,5.5,8,9,2.5,5.2-8.3,11.2-17.5,21.5-13.2,4.5,1.9,4.4,7.3,7,4.6,3.8-3.7,1.3-6.4,5.2-12.8,3.4-5.5,7.8-6,8.8.6,0.5,3.4-3.9,13.5,1,11.5,0.4-.2,2.7-8.9,2.9-9.7,1.3-4.1,12.8-5.2,9,1-3.2,5.2-4.9,9.8,1,10,10.3,0.4,10.2-2.8,9.2,2.6-1.8,10.7,15.7-.9,24-5.8,3.9-2.3.5,12.2,6.8,13.7,7.5,1.8,15.9-5.5,18,6,0.5,2.8,3.3,3.6,3.5,8,0.5,12.1,12.6-7.6,22.2-3.3,10.2,4.5,19.5,15.8,29.8,15.8,5.6,0,5,3.7,25,6.3,3.4,0.4,9.8-.5,8.1-3.1-3.3-4.8-.1-7-0.7-10.6-3.1-19.9,10.6-16.4,10.1,5-0.3,10.1,11-7.7,11.5-12,1.1-9.9,6.8-.8,9.5,6.2,1,2.5,17.9-8.5,18.5-11.2,1.8-8.2-12-7.6-1-25,2.7-4.3,8.7,2.6,13,3,4.9,0.4,3.6-5.9,2.2-7.3-6.4-6.5,4.2-10.7,10.7-15.2,2.8-7-7.1-16.1,9-16,18.8,0.1-.6-14.8.8-18.5,1.6-4.6,9-6,9.7-12.5-0.2-15.3,9.8-21.3,10-32.5,0.1-6.7-11.8-7.3-8.5-14.3,5.7-12.2,17.3-3.4,11.5-27.2-7.4-30.5-7.1-39.6,6.5-61.8,4.5-7.4,14.5,1.4,21,2.8,8.7,1.8,21,5.8,26.8-1.5,8.5-10.6.7-27.3,4.3-36.6,4.8-12.3,30.4-27.2,46-36,8.2-4.6,10.2-14.7,9.9-23" transform="translate(175.32 89.33)" style="fill: none;stroke: #4c9ecc;stroke-width: 3px"/>
	<path id="_Trace_22" d="M780.2,619.2C792,603.3,803.4,608,806.9,605c7.8-6.5,16.4-14.6,22.7-23.4,1-1.5,17.5-4.7,19.7-5.2,3-.8,8.9-6.4,11.6-7.1,9.3-2.4,25-1,27.2-2,27.6-12.2,18.8-7.1,33.5-10,17.8-2.3,15.5,7.5,16,22.3,0.5,15.2-5.6,25.9-16.5,35.3-11.2,9.7-9.2,24-3.5,34,2.4,4.3,9.2,2.9,12,7.5,7.1,11.6,17,16.2,30.5,16s20.5-5.2,33.7,8.8c21.1,22.5,34.6-8.1,62.8-19.3" transform="translate(175.32 89.33)" style="fill: none;stroke: #4c9ecc;stroke-width: 3px"/>
	<path id="_Trace_23" d="M3526.7,1810.3c20.4-3.7,27.2-1.4,34.6-8.6,4.6-4.5,8.8-8.6,15.1-26.9" transform="translate(175.32 89.33)" style="fill: none;stroke: #4c9ecc;stroke-width: 3px"/>
	<path id="_Trace_24" d="M3090.8,1835.7c33.9,1.1,43.1-4,54.8-15.6" transform="translate(175.32 89.33)" style="fill: none;stroke: #4c9ecc;stroke-width: 3px"/>
</g>
<g>
	<path id="path2458" d="M2898.3,1988.4a10.9,10.9,0,1,1-10.9-10.9A10.93,10.93,0,0,1,2898.3,1988.4Z" transform="translate(175.32 89.33)" style="fill: #fff;stroke: #e5a923;stroke-width: 3px"/>
	<path id="path3238" d="M2773.5,993.7a10.9,10.9,0,1,1-10.9-10.9A10.93,10.93,0,0,1,2773.5,993.7Z" transform="translate(175.32 89.33)" style="fill: #fff;stroke: #e5a923;stroke-width: 3px"/>
	<path id="path3258" d="M915.3,1129.5a10.9,10.9,0,1,1-10.9-10.9A10.93,10.93,0,0,1,915.3,1129.5Z" transform="translate(175.32 89.33)" style="fill: #fff;stroke: #e5a923;stroke-width: 3px"/>
	<path id="path3268" d="M1950.8,1485a10.9,10.9,0,1,1-10.9-10.9A10.93,10.93,0,0,1,1950.8,1485Z" transform="translate(175.32 89.33)" style="fill: #fff;stroke: #e5a923;stroke-width: 3px"/>
	<path id="path3348" d="M2503.5,396.3a10.9,10.9,0,1,1-10.9-10.9A10.93,10.93,0,0,1,2503.5,396.3Z" transform="translate(175.32 89.33)" style="fill: #fff;stroke: #e5a923;stroke-width: 3px"/>
	<text transform="translate(2540.35 457.61)" style="isolation: isolate;font-size: 40px;fill: #65655f;font-family: Open Sans">St-Malo</text>
	<text transform="translate(1120.13 1226.89)" style="isolation: isolate;font-size: 48px;fill: #65655f;font-family: Open Sans">Quimper</text>
	<text transform="translate(2150.32 1585.23)" style="isolation: isolate;font-size: 48px;font-family: Open Sans">Vannes</text>
	<text transform="translate(2923.3 1141.12)" style="isolation: isolate;font-size: 48px;fill: #65655f;font-family: Open Sans">Rennes</text>
	<text transform="translate(2171.02 1289.06)" style="isolation: isolate;font-size: 77.68479919433594px;fill: #65655f;font-family: Open Sans">Bretagne</text>
	<text transform="translate(3096.41 2088.58)" style="isolation: isolate;font-size: 48px;font-family: Open Sans">Nantes</text>
</g>
<g id="trail-path" display="none">
	<path display="inline" fill="none" stroke="#010101" stroke-width="5" stroke-miterlimit="10" d="M2534.7,381.1c0.5,4,.7,14.7.7,14.7a10.47,10.47,0,0,0-.9,2.7,18.3,18.3,0,0,1,1.8,4.1c0.2,0.9.2,4.4,0.5,4.6s5.7,7,6.2,7.3,6.9,3.1,7.7,3.7,5.4,11.2,6,12,9,10.6,11,13.6,7.5,10.4,7.9,10.9,3.7,7.7,3.7,7.7c1.7,1.7,9.8,8.3,11,9.2a7.71,7.71,0,0,1,2.1,2.6c0.2,0.4,2.7,1.7,3,2.5s1.9,2.6,1,4.1-2.6,4.9-2.6,4.9l0.2,3a26.47,26.47,0,0,1,2.7,4.6l4.6,15.9v8.5l9,38.2v3.9l-2.7,15.5c-1.9,8-2.7,13.5-3.7,15.7s-5.6,14-6.3,15.7a25.72,25.72,0,0,0-1,7.8c0.1,1.8,1.1,5.1,4.1,9s3.8,5.2,3.8,5.2c2.9,11.6,5,18.3,5,18.3,1.1,3.2-2.5,12.7-2.5,12.7-1.1,2.1-.2,6.9.9,8.6s17.2,25,17.2,25a51.88,51.88,0,0,1,8.1,7.6c0.8,1.2,8.6,10.1,9.5,21.5,0.9,9,1.6,11,1.6,11,2.6,4.1,17.4,26.4,18.4,28.3s8.2,10.1,11.4,11.5,6.7,3.2,7.7,4.2,3.2,5.4,4.1,6.9,0.5,3.5,1.6,4.9,4.9,6.6,5.7,7.2,3.9,2.2,4.2,2.8,1.7,1.1,3.3,5.9,7.5,16.3,7.5,16.3a32,32,0,0,0,6.1,7.3c1,0.7,1.9,1.6,2.3,4.5a63,63,0,0,0,1.9,8.5,44.91,44.91,0,0,0,3.1,6.7c0.7,1,7.4,11.1,8.7,13s3.3,4.2,3.8,6.7,0.4,5.1,1.4,7,6.4,9,7.6,10.6,2.9,8.6,3,10.5,0.3,6.7,1.1,8.8,2.5,5.9,3.6,8,5.3,11.2,7,13.8,3.8,6.3,3.9,7.4-0.4,8.4.5,9.6a55.26,55.26,0,0,1,4.5,6.4c0.8,1.7-.1,3,1,4.9s3.9,8.4,4.8,10.3,4.5,4.9,6.5,5.1,4.7-.2,5.7-1.1,1.6,3.2,1.5,4.3c0,0.6,2.8-.2,3,0.2a15.54,15.54,0,0,0,.1,2c0.1,0.3-2.4.8-2.7,0.8h0a18.67,18.67,0,0,1-2.5.4c-1.2.3-3.8,0.2-3.7-.1a3.72,3.72,0,0,0-.9-1.1,1,1,0,0,0-.4-0.1,1.93,1.93,0,0,1,.4-1.1,13.54,13.54,0,0,0,.2-2c0-.2,0-0.3-0.1-0.3a6.89,6.89,0,0,0-1.5-.7,12.65,12.65,0,0,0-2.8-.1,2.17,2.17,0,0,0-.6.3,4.6,4.6,0,0,1,.1,1,1.15,1.15,0,0,0,0,.6c0.1,0.1.3,0.2,0.4,0.3a0.76,0.76,0,0,1,.2.4,1,1,0,0,1-.1.3,1.75,1.75,0,0,0,.1-0.5,0.53,0.53,0,0,0,.4,0,11.13,11.13,0,0,1,.3-1.3,3.53,3.53,0,0,1,.8-1.3,19.19,19.19,0,0,0,1.5-1.4c0.2-.3.6-0.6,0.7-0.8a10,10,0,0,1,2-1.6,0.52,0.52,0,0,0,.4-0.2,1.38,1.38,0,0,1,.3-0.4c0.1-.1.8-0.7,1-0.9a2,2,0,0,1,.5-0.5,5.91,5.91,0,0,1,.4.6,15.38,15.38,0,0,0,.8,1.9,2.7,2.7,0,0,1,.5,1.1,3.38,3.38,0,0,0,.3.8,4.72,4.72,0,0,1,.5,1.4c0,0.2.3,1.7,0.3,1.9s-0.1.6,0.1,0.6a3.11,3.11,0,0,0,1.1.1c0.5,0,1.4-.1,1.6-0.1a0.25,0.25,0,0,1,.3.2v1.5a0.76,0.76,0,0,1,.1.4,3.93,3.93,0,0,1-.9.4c-0.3.1-1.7,0.4-1.7,0.4h0c0.1,0,.9-0.2.9-0.2a0.25,0.25,0,0,1,.2.3c0,0.2.2,1.4,0.3,2a2,2,0,0,1,.1.7h-1.1c-0.3,0-1.6-.1-1.8-0.1s-8.5.4-8.5,0.4v-1.8h0.4V977a22,22,0,0,1,3.3.3,7.18,7.18,0,0,0,1.7.2c0.4,0,2.6-.4,3.6-0.4a25.37,25.37,0,0,1,.3-3c0.3-1.3-.9-4.7-1.2-5a14.37,14.37,0,0,1-.9-2.1,5.27,5.27,0,0,0-.6-1.3,1.76,1.76,0,0,0-.5.4,13.06,13.06,0,0,0-1.2,1.1c0,0.1-.1.2-0.1,0.3a0.38,0.38,0,0,0-.2.2V968c0,0.2-.2,2.7-0.2,2.7a1.34,1.34,0,0,0-.8.2,10.4,10.4,0,0,0-.6,1.6c0,0.1.1,0.1,0,.2a11,11,0,0,1-.2,1.8,4,4,0,0,1-.4,1.3c-0.1.1,0,.2,0.1,0.2a0.52,0.52,0,0,1,.4.2,2.66,2.66,0,0,1,.5.6,0.85,0.85,0,0,0,.3.5c0.1,0,.8.2,1,0.2a9.15,9.15,0,0,0,1.6-.1,16.36,16.36,0,0,1,2.2-.2c0.3,0,1-.1,1.1-0.1a2.27,2.27,0,0,0,.4-0.1l1-.2,0.4,3h-1c-0.3,0-.8-0.1-0.9-0.1,0,1-.3,5.2-0.3,5.2,0.4,0.3,2.5,2.4,2.5,2.4-1.2,1.2-1.2,1.3-1.5,1.3s-3,.3-3,0.3a2.14,2.14,0,0,0-.8.5c0,0.3.3,1.9,0.3,1.9s-1.8.2-2.2,0.2-2.7.5-2.7,0.5l0.7,3.1c0,0.7-.1,3.9-0.1,3.9a1.65,1.65,0,0,1,0,.7,5.39,5.39,0,0,1-.8.1,15.69,15.69,0,0,0-1.6.3,0.38,0.38,0,0,1-.2-0.2s0.3-1.2.4-1.4a0.73,0.73,0,0,0,.1-0.6l-5.9-.5a18.3,18.3,0,0,1,.2-2.1,4.88,4.88,0,0,1,.3-0.7c0-.1.2,0,0.2,0s0.5-4.4.5-4.6a2.65,2.65,0,0,0-.5-0.6,1.23,1.23,0,0,0,.2-0.3c0.1-.2,0-0.6.1-0.9a8.8,8.8,0,0,0-.2-1.7V982a0.76,0.76,0,0,1,.2-0.4,0.37,0.37,0,0,0,.1-0.3v-1a0.52,0.52,0,0,0-.2-0.4,0.75,0.75,0,0,1-.1-0.5v-0.9a3.2,3.2,0,0,1,.3-0.5,0.2,0.2,0,0,0,.1-0.2,1.76,1.76,0,0,0-.4-0.5,2.18,2.18,0,0,1-.3-0.5,6.3,6.3,0,0,0,.9-0.4c0.2-.1.5-0.4,0.7-0.5a0.76,0.76,0,0,0,.4-0.4,8.12,8.12,0,0,1,.8-0.6c0.3-.2.2-0.2,0.1-0.3a1.2,1.2,0,0,0-.6,0" transform="translate(175.32 89.33)"/>
</g>
<g id="camera-path" display="none">
	<path display="inline" fill="none" stroke="#EC2227" stroke-width="3" stroke-miterlimit="10" d="M2204,1118.6c315-105,317.2-770.4,330.7-739.3,14.5,56.4,73.8,118.6,77.7,140.6s39,167.5,49.6,197.2,67.1,155.1,85.3,179,17.1,55.2,22,68c5.7,14.6,15.4,17,17.2,13.2,0.6-1.5,1.6-10.4-11.2-2.7-13,7.9,14.8,13.4,13.2,2.6-0.3-1.7-1.7-3.9-7.6-3.4-3.7.3-4.9,2.4-3.7,3.2s9.6-.9,9.5-5.7c-0.1-9.7-5.9-12.5-7.4-3.1-0.6,3.9,4.7,7.6,6.9,8.1s3.1,14.8-.1,17.1-15.4,6.8-16.8-3.8,4.2-14.5,4.6-14.9c17.9-15.5-46.1-204.9-63.8-236.2"/>
</g>
<g id="points" display="none">
	<circle display="inline" id="Hotel_de_Rennes_Mtrople" data-name="Hotel de Rennes Mtrople" cx="2954.72" cy="1088.03" r="2.8" style="fill: #f7b634"/>
	<circle display="inline" id="Vieux_Rennes" data-name="Vieux Rennes" cx="2952.72" cy="1066.33" r="2.8" style="fill: #f7b634"/>
	<circle display="inline" id="Saint_Vincent_Providence" data-name="Saint Vincent Providence" cx="2962.12" cy="1065.43" r="2.8" style="fill: #f7b634"/>
	<circle display="inline" id="Science_Po_Rennes" data-name="Science Po Rennes" cx="2959.52" cy="1056.33" r="2.8" style="fill: #f7b634"/>
	<circle display="inline" id="Salle_de_la_Cit" data-name="Salle de la Cit" cx="2949.22" cy="1063.83" r="2.8" style="fill: #f7b634"/>
	<circle display="inline" id="Centre_ville_de_Rennes" data-name="Centre ville de Rennes" cx="2950.62" cy="1063.83" r="2.8" style="fill: #f7b634"/>
	<!-- <circle display="inline" id="cole_Nationale_de_Police" data-name="cole Nationale de Police" cx="2710.02" cy="470.43" r="2.8" style="fill: #f7b634"/> -->
</g>
</svg>
