<?xml version="1.0" encoding="utf-8"?>
<!-- Generator: Adobe Illustrator 18.1.1, SVG Export Plug-In . SVG Version: 6.00 Build 0)  -->
<svg version="1.1" id="Layer_1" xmlns="http://www.w3.org/2000/svg" xmlns:xlink="http://www.w3.org/1999/xlink" x="0px" y="0px"
	 viewBox="1531 -1019.7 4342.3 2839.7" enable-background="new 1531 -1019.7 4342.3 2839.7" xml:space="preserve">
<g>
	<path fill="#FDF8EE" stroke="#4C9ECC" stroke-width="3" d="M4445.2-1062.7l102.1,230.8c-2.2,20.9-13.3,24-22.8,33.2
		c-2.6,2.2-2.8,6.2-0.6,8.7c0.4,0.6,1,1,1.6,1.2c3.6,2,12.9,4.6,13.9,5.2c11.9,7.7,14.3,26.8,14.1,47.1c-0.2,28.8-4.2,43.3-3,49.7
		c1.2,5.8,12.9,13.7,16.9,14.5c3.8,1,10.3-2.4,15.3,2.6c8.1,7.7,11.9,26,19.3,46.5c3.2,8.5,14.5,6,16.9,7.3c11.1,6,21.6,7.9,29,16.7
		c3.4,4,1,12.7,4.2,16.1c1.2,1.2,4.6-8.7,12.5-14.5c3-2.4,16.1-5,19.3-6.2c6.4-2.6,19.5-13.7,21.3-17.1
		c-7.9,17.5-13.1,23.6-16.1,26.4c-3.6,3.6,2,7.5-2.8,8.7c-6.2,1.6,6,8.1,8.7,8.7c5,1.2,5.6-1.6,8.7-1c5,1.2,2,2.4,4.8,5
		c4.4,4.4,11.1,9.7,15.3,17.1c-4.6-3-7.9-5.4-10.9-8.3s-7.7-1-11.9-1c-2.6,0-5.2-3.4-8.1-4c-6.6-1.6-10.7,2.6-14.7,4.6
		c-3.2,1.6-9.3-0.6-12.3-2.6c1,6.4-8.1,13.1-10.5,14.5c-32.2,17.9-60.4,16.7-60.8,10.9c-1-10.9-7.7-9.3-16.1-9.7
		c-39.1-2.4-92.4,26.6-150.6,24.4c-12.3-0.4-41.9,1.6-63.2-4.8c-22-6.6-35.8-4.8-43.7-25.2c-2-5.4-11.1-10.9-10.1-14.5
		c0.8-2.8,7.3-15.9,7.9-23.6c0.6-7.2,5.8-1.8,12.3-6.2c4.2-2.8,8.7-7.7,8.5-11.5c-0.2-3.2-12.3-9.9-9.9-18.3
		c1.4-5,5.6-13.7,3.6-15.5c-1.8-1.8-17.1,10.7-22.2,16.7c-4.4,5-10.7-3-12.7-3.2c-2.6-0.4-8.7,10.1-13.3,9.9c-4-0.2-4.6-5.4-9.5-5.2
		c-4.8,0.2-2.4,3-8.1,3c-3.2,0-4.2-10.1-7.3-10.1c-2.8-0.2-0.2,7-2.8,9.5c-3.8,3.8-9.3-0.6-9.9,2.8c-1,4.4,7.2,5.6,12.1,8.7
		c-6.2-0.8-12.9,1.4-17.5-0.4c-5.6-2-1-8.9-14.5-2c-13.7,7-3.4,5-3.6,11.9c-0.4,9.3-20.5,20.1-30.2,23.2
		c-10.1,3.4-4.4,12.3-4.4,14.9c0,6.4-11.5,3,7.2,9.9c4.6,1.6,1.2,17.9,2,21.7c0.8,3.2,6.2,4.2,4.4,10.5c-0.6,2.2-3.2,4.4-3.4,6.6
		c-0.2,5.6,6.2,4,8.9,5.6c1.2,0.6,2.8,3.8,3.8,3.6c6-1,7-4,13.1-1.8c12.9,4.4,17.7,20.3,16.3,20.9c-3.2,1-8.3-12.5-18.3-10.3
		c-2,0.4-3.2,0.2-3.8,1c-1.2,1.2,4.4,2.2,5.2,13.7c0.2,1.6,7.7-1.8,5.8,12.1c-0.4,3,9.7,3,9.5,8.7c-0.2,1.6-0.8,6.6-1.2,7.3
		c-0.8,1.4-0.6,8.9,0.6,9.9c2.2,1.8,8.5,0,8.3,5c-0.2,4-0.6,7.3,0,9.3c0.6,2,4.2,5.2,9.1,8.9c-6.4-1.8-8.1,1.4-11.1-0.8
		c-1.4-1-3.8-10.9-8.3-7c-7,6.4-1,13.3,0.4,14.7c-3.6-1.6-10.3,1.2-11.3,2.6c-1,1.4-0.4,13.9-3.6,15.7c-1.2,0.6-6,0.8-5.8,1.8
		c0.8,3.6,1,11.9-7.2,5.4l0,0c1.2,0,6.6,1,5-1c-0.2-0.2-2.4-5.6-0.4-6.6c1.4-0.8,7,0.2,7-1.8c0-2-3-13.3,0.2-14.9
		c1.2-0.6,7.7-2.2-0.6-5.6c-1.6-0.6-5.8-14.1,0.2-8.5c4,3.6,12.9-9.5,13.3-12.5c0.4-4.2-1.8-8.1-8.5-8.1c-1.6,0-7.2-2.4-7.3-3.2
		c-0.6-2,3.2-1.6,3.2-4s-7.7-1.6-8.3-4c-0.6-2.4,0.8-10.3-1.8-14.1s-8.3,2.2-13.9-7.2c-1.4-2.4,17.7-7.3,16.5-9.7
		c-0.4-1-4.4-3.4-6.4-7.7c-1.2-2.4-9.7-1.6-11.7-3.2c-1.8-1.6-2.8-5-3.2-6.2c-0.4-1.8-3.2-2.6-3.6-3.8c-0.6-2.4,4.8-5.8,4.4-7.2
		c-2-12.3-2.4-22.4-8.1-25.8c-5-2.8-5.8,1.4-12.1,1.4c-5.2,0-2.4-9.1-6.2-12.5c-13.1-11.5-28.4-1.8-39.5-3.4c-4.4-0.6-3-7.3-10.3-6
		c-17.1,3.2-16.1,13.3-27,10.3c0.4,12.9,13.1,11.3,15.9,15.3c1.6,2.4,2.6,13.9,3.2,17.7c-7.2-2.2-13.9-10.7-17.9-9.3
		c-2.6,0.8-6.2,8.1-12.3,8.3c-3.6,0.2-4.2,10.9,0.6,13.3c4,2,7,0.8,7,6.2c0,3.4-6.6,5.4-7.3,8.1c-0.8,2.8,3.2,8.5,0.4,8.9
		c-10.9,1.8-18.5-6.8-18.1-9.7c1-7.9,2.2-27.4-2.8-27.8c-7.5-0.6-1.6,10.9-3.4,19.5c-1,4.6-2.8,3.8-5.4,6.4
		c-4.2,4.4,0.6,11.5-5,11.5c-4.8,0-2.6-17.7-4.4-20.3c-2.8-4-8.3-0.4-9.7-3.4c-5.2-10.3,6.8-19.3-14.3-23.4
		c-3.8-0.8,1.8-9.5-4.8-19.3c-2.8-4,2.6-13.9,3.2-15.3c1.2-2.6-11.7,5.4-18.1,3.4c-1.8-0.6-12.9,5.6-14.3,11.1
		c-0.8,3.4-2.6,7-3.2,9.7c-1.2,4.6-4.8-4-7.9-2.6c-3,1.4-5.2,10.9-6.2,12.9c-1.6,3.4-8.9,5.6-10.7-2.2c-0.4-2-14.7-0.8-12.7-4.6
		c1.4-2.6,20.3-11.7,20.7-19.5c1-19.5,22.6-31.6,20.3-35.4c-1.2-2-12.7-1-19.7-3.2c-4.6-1.6-0.4-12.3-4.8-17.3c-2.4-3-7.5,1.4-7.9,5
		c-0.4,3.4-4,10.9-10.3,17.3c-8.9,8.9-34.6,15.7-38.3,16.7c-3.8,1-1,9.3-9.1,12.9c-4.4,2-13.1-4.6-11.7,1c2,7-5,14.5-7,12.5
		c-1.4-1.4,3-15.5-1.4-19.9c-7.9-8.1-20.5-6.2-27.8-3.2c-4.2,1.8-23.8-0.2-22.4,7.7c1.2,7.5,10.7,5.6,12.1,7.3
		c4,5.6-12.9,32.6-34,38.3c-3.2,1,3.2,8.9-19.5,8.9c-4,0-10.9-3.8-12.3,1.4c-1,3.8-7,10.7-12.3,13.3c-3.6,1.8,7.9,4.2-5.4,9.9
		c-7.9,3.6-19.9,25.8-42.7,42.3c-2.8,2-3.4,10.9-2,13.9c1.6,3.4-9.5,0.6-18.9,0.4c-3.8,0-8.3-10.9-11.3-10.9c-4,0-7.5,1.4-8.9,4
		c-1.4,2.8,2.4,15.7,3.2,17.9c2.4,6.6-1.6,15.3-4,16.5c-3.8,1.8,7.3,15.9,3,15.9c-4.8,0-18.7-32.4-31.4-44.3c-0.4-0.4,5.2-5.4,5.8-6
		c2-2-6.6-2-7-3c-6-16.1,7-25.8,2.8-26.2c-4-0.6-39.7-9.1-46.7-18.9c-0.6-0.8-0.2-12.5-7.2-12.5c-5,0-25.8-9.7-26.4-15.1
		c-0.4-3.4,2.8-22.8,1-26c-9.5-17.7-6.6-37.7-7.9-39.3c-0.6-2.6-6.6-4.8-9.3-7c-2.8-2.4-0.4-6.6-3-7.2c-12.7-3-9.3-13.1-11.9-13.7
		c-2.4-0.6-4.8,7.9-19.9,4c-3.2-0.8-0.4-12.9-3-14.7c-3.6-2.6-2-12.7-3-14.5c-0.6-1.2-7.9,1.8-12.7-0.2c-4.4-1.8-14.7-9.3-16.5-11.1
		c-1.8-1.8-1.4-9.9-2.6-11.9c-1.8-3.8-9.7,3.8-11.1-2c-0.8-3.2-7.2-7-3.4-8.1c10.9-3.6,8.9-7.3,9.3-9.3c0.8-4-3.8-7.3-5-9.1
		c-1.8-2.8,11.5-8.3,8.7-12.3c-2-3-12.1,0.6-12.1-6.4c0-3.4-1.8-9.9-6-10.7c-1.8-0.4-3,10.5-26.6,8.5c-3.4-0.4-13.9-7-17.7-6.2
		c-8.1,1.2-15.7-6-15.3-11.5c0.2-2.4,10.7-2.6,12.1-2.8c6.8-1.6-12.3-2.4-13.3-3.4c-2.8-2.6-9.7-11.1,3-8.9c0.8,0.2,4.4-7.5,4.8-9.1
		c0.4-1.4,12.7,1,13.3-1.4c1.2-4.4-9.1-8.5-10.9-12.5c-2.2-4.2,5.6-5.2,5.4-9.7c-0.4-5.4-12.9-0.4-19.7-0.4
		c-2.8,0-11.1,3.6-13.7,4.2c-4,1-6.2-3-2-6.2c2.6-1.8-7,0.4-8.3,0.2c-5.4-0.6-5,3-7.9,5c-7.2,4.8-9.9,11.3-11.1,18.7
		c-1.6,9.3-3.6,37.3-14.1,39.3c-7.9,1.4-6,12.1-15.5,14.1c-4,0.8,5.2-6.6,3.4-18.5c-0.4-2.6,10.9-8.1,12.3-10.5
		c2.2-4.2,6.2-13.3,6.2-17.1c0-3.6,0.4-7.2,1.2-10.5c1-3.8,5.6-4.6,5.6-7.5c0.4-12.1,7.5-9.7,7.2-12.5c-2-9.7,10.1-11.3,9.9-13.7
		c-0.6-4.2-17.3,3.8-22-2c-1.8-2.4,9.9-9.1,9.9-14.7c0-4.2-5.6-10.7-6.2-13.5c-1.2-4.8,7.3-2.6,12.3,2c1,1,0.2-11.7-10.5-12.5
		c-3.4-0.4-13.7,3-20.9,1c-1.4-0.4-5,3.8-9.3,3.2c-2.8-0.4-1.2,5-3.6,6.2c-4,2-9.5,7.7-17.5,7.7c-4.4,0-4-2.8-8.9-0.8
		c-1.8,0.8-4.4,6.6-4.8,7.9c-1,7.2-8.7-5.2-11.7,4.8c-1,3.4-2.8,12.5-6.4,15.1c-2.6,1.8-1.2,6.6-1.6,10.9
		c-1.6,11.3-20.5,30-23.6,27.2c-4.4-4,14.3-15.5,15.3-20.7c0.6-3,8.1-23,2.4-28c-1.4-1.2-10.3,3.6-11.5,1c-1.8-4,7.9-8.1,3.8-31
		c-0.4-1.4-3.8-2.4-7.7-7.5c-2.8-3.6-1,4.2-7,3.2c-2.6-0.4-2,8.3-9.5,10.3c-4.2,1-3.8,10.1-8.3,12.5c-4,2,1.2,17.1-8.7,13.9
		c-11.7-3.8-5.6-7.3-10.3-8.7c-6-1.8-7,11.3-10.1,14.9c-1.8,2-5.2-7.3-8.1-7.2c-11.7,0.6-10.9-8.1-16.7-0.4
		c-1.8,2.6-8.3,12.5-12.7,10.5c-2.6-1-14.7,6.4-18.5,6.4c-4.2,0-0.8,8.9-19.5,7c-3-0.4,0.6,12.5,0,15.1c-0.4,1.6-13.7,8.7-37.9,1.6
		c-9.3-2.8,6.6-16.1,5.4-20.5c-1.2-4.8-20.9,0.4-15.7,0.2c3.2-0.2-6.6,1.4-9.9,0.2c-14.5-5.4-9.1-21.3-18.7-20.9
		c-5.4,0.2-5.4,11.1-10.3,11.1c-13.1,0-1.6-9.1-3.6-12.9c-1-2-11.1,6.6-12.1,11.1c-3,12.9-16.7,4.4-18.9,7.5
		c-2.6,3.6,2.8,3.8,2.8,6.2c0,3.8-7,2-6.8,4.6c0.2,5,11.5,3.4,7.5,9.9c-5.6,9.5-23.6-5.8-28.4-2c-3.4,2.6-4,2.8-8.9,2.8
		c-6,0,3.6,17.9,2,38.7c-0.4,4.8-9.3,2.4-2.8,5c11.5,4.2,4.8,6.6,5,7.5c0.8,2,11.1-1.8,11.3-0.2c1.4,10.9,16.9,18.3,14.5,19.7
		c-11.9,7.3,1.8,5.4,1,8.3c-0.4,1.6-20.9,14.3-24,14.9c-3.8,1-8.3,3.6-7.5,7.3c0.8,3,5.2,9.3,1.6,14.5c-1.2,1.6,4.2,9.9-1.2,15.3
		c-2.2,2.2,8.1,5.6,11.1,5.6c1,0-5.2,20.7-32.6,19.5c-5.2-0.2-3-14.3-5.2-16.5c-7.7-8.3-6.4,3.2-14.1,1.2c-3.6-1-1.2,2.8-1.2,7
		c0,4.8,1.6,4.2-2.8,2c-1.4-0.8-11.7-3.6-12.7-8.7c-0.6-3.2,6.6-4,6.6-7.9c0-4.2,1.2-7-3.4-7c-3.8,0-14.3,7.9-17.3,8.9
		c-10.5,4-9.7-8.7-23.4-3.6c-2.8,1-2-7.3-5.6-8.1c-3-0.8-7.3-1-5.6-7.5c1.6-5.8-3.6,2.4-7-2c-8.5-5.6-13.3-2-17.3-2
		c-3.8,0-7.5,0.6-11.1,0c-9.3-1.6-12.5,7.9-18.7,6.8c-9.7-2-9.1-16.9-17.5-11.7c-0.2,0.2-6.4-5.8-7-6.2c-4.2-4.2-2.8-0.8-2.8,4.2
		c0,3,2.6,5.8,3.4,7.5c2.2,4.4-0.6,4.8-4.2,5c-12.9,0.6-1.6-9.3-7.5-10.3c-3.4-0.6-1.8,5.4-7.2,5.8c-4.4,0.4,2.8,7,0.2,9.3
		c-2.6,2.6-6.2,1-8.9,4.2c-8.1,9.3,0,12.5-0.2,19.7c-0.2,3.8,3.4,9.3,2.4,14.9c-1,4.8-6.4,1.4-6.2-0.2c1.8-15.5-1.2-3.6-8.3-9.5
		c6,15.5,6,21.8,6,25.8c0,2.8,5.2,9.5,5.6,12.3c1.8,10.3,5,9.7,7,11.9c2.4,2.4,24,2.8,25,2.8c4.2,0-22.2,1.4-25.2,1
		c-7-1-15.5,21.5-15.5,14.1c0-3,3.8-12.5,1.8-17.1c-3.4-8.3-7.5-5.6-11.3-6.4c-2.8-0.8-1.8-3.4-16.1-7.9c-2.2-0.8-8.5-16.1-8.5-20.3
		c0-4.6,6-7,8.3-9.9c2-2.6-13.7,1.6-15.9-5.2c-1.2-4-9.3,7-10.1,8.3c-1.4,2.8-0.4,7.9-3.8,9.7c-4.6,2.4-4-5.2-7,0.8
		c-5.4,10.1-11.9,6.4-13.5,4.6c-1.8-2.2,6.6,0.6,2.8-17.9c-0.8-3.6,5.8-4.8,5-7.9c-1.2-5.8-7.3-7.3-9.1-15.3c-1.6-7-6.8-2.6-8.7-9.3
		c-5.2-17.5,4.2-27.4,3.4-30.4c-1.2-4-8.9-1.6-13.1,1.2c-3,2-12.9,10.5-16.1,10.5c-4,0,0.4-7-2.8-8.3c-2.8-1.4,3.2-8.1,0.2-7.7
		c-2.2,0.4-3.6,12.9-8.3,16.9c-4.8,3.8-14.3-0.6-15.5-1.8c-2.8-2.8,2.8,9.1-5.2,11.9c-4.2,1.6-7.5-4.8-8.1-3.8
		c-11.1,22.8-0.8,19.5,12.7,23.2c-15.9,1.2-23.6,0.4-22,2c8.9,8.9,9.5,14.5,9.9,16.5c0.4,0.4,0.6,0.8,0.4,0.8
		c-0.2,0.2-0.4-0.2-0.4-0.8c-2.2-2.6-10.5-9.9-14.3-10.3c-3.8-0.6-0.6-4-3-6.4c-2.8-2.8-4.8-0.6-5.8-7.7c-0.8-4.8-7.2-0.4-10.3,0.2
		c-12.9,2.4-17.5-8.5-19.1-6c-2.8,5-6,0.8-10.3,0.8c-3.4,0-2,6.2-15.1,3.6c-2.2-0.4-10.7,2.8-13.5,5.4c-5.2,4.8-13.1,1.4-15.5,1.4
		c-1.6,0-3,5.2-6.4,4.2c-2.2-0.6-1.6,4.4-2.8,5.8c-3.4,3.4-1.4,4.8-7.5,6.2c-3.8,1-3.8,21.3-27.8,26c-17.9,3.6-22.8-3-25,0.4
		c-3.6,5.4-14.3,10.7-16.5,10.7c-5.6,0-5.8,2.8-1.4,5c4.4,2.2-19.5,4-16.9-1c1.6-3.2,2.4-3.4,4.8-5.8c3-3,0.2-4.4-4-4.4
		c-4.8,0,10.3-5.2,11.5-6.2c2-2,2.6-8.1,4.4-9.9c3.4-3.4-8.3-3-15.3-13.7c-2.4-3.6-4,3.4-7.7,3.4c-1.2,0-1.6-9.5-2-8.9
		c-5.6,4.4-14.9-4.4-15.9,0c-0.6,2.8-6,2.8-8.3,2c-0.8-0.2-2.4,6.2-13.7,6.6c-3.8,0.2,7.2,9.7-8.3,9.9c-1.4,0-8.7,7.7-20.3,7
		c-4.2-0.4-14.7,4.2-19.7-0.8c-3-3,1.4,7.5,4.2,8.9c2.8,1.6,7.9,1.4,10.9,6.4c2.8,4.4,9.9-1.4,9.5,2.8c-0.6,3.4-8.1,2.6-11.5,2.6
		c-2.4,0-5-5.6-9.9-5.6c-2.4,0,1.8,8.1-0.6,8.1c-3,0-6-7.2-8.1-6.6c-7.5,1.2-10.9,15.7-15.7,15.7c-2.6,0-9.9,7-23.2,2.6
		c-2.6-0.8-6.2,5.4-12.3,2c-8.7-4.8,0.2-7.7-1.6-10.1c-2.8-4-8.7-4.4-8.7-1.2c0,3.4-5.2,3.4-8.3,3.4c-6.6,0-5.2-9.5-10.9-6
		c-5.2,3.2,3.6,11.7-0.6,10.7c-2-0.6-6,4.2-7.9,4.2c-2.2,0-4.2-1.6-6.2-2c-3-0.8-5.4,5.6-5.2,8.5c0.6,8.3,8.3,6.8,12.1,5.8
		c2.6-0.6,1.8-0.8-3.6,7.2c-2.4,3.4,11.9,0.6,18.1,7c2.4,2.4,16.7,3,16.7,7s-5.6,4-0.6,4.4c8.3,0.6,16.7,3,17.9,7.7
		c1,4.2,6.4,7,9.3,8.9c3,2.2,0.8,2.6,4.8,3.6c3.8,1-6.8,5-15.1-6.4c-1.4-1.8-14.3-9.3-18.3-8.3c-3.8,1-6.2-2.4-7.2-5.8
		c-0.8-3.2-5.4-5.6-9.9-5.6c-4,0-5.8-3.6-8.9-2c-4.4,2.2-7.7,1.6-9.7-1.8c-1.6-3.2-14.3,7.9-25,5c-5-1.4,9.5-12.5,5-11.1
		c-6.2,1.4-8.3-3.4-11.1-2.8c-0.2,0.2-6,6.2-3.8,9.9c5.6,8.7-9.5,8.5,6.2,14.9c2,0.8-7,3-6.4,5c1.6,5.2,7.9,6.6,10.5,7.3
		c3.6,1,2,7.7,6.4,10.7c2,1.4,9.5,3.6,15.3,2.8c12.5-1.8,14.9,3.2,15.3,3.4c2.4,2.4,4-2.6,8.9-0.8c5.4,2,7.9-0.4,8.9,4.2
		c0.2,1,7.5,3,8.3,3.4c3,1.4,3.4,2.8,5,5.6c2.2,4.4-8.3-1.2-11.7-3c-3-1.4-4.2-7.2-5.6-1.8c-1,3.8-6.6-3.8-14.1-3.8
		c-7.2,0.2-14.9-2.4-17.9-2.4c-7.9-0.4-12.9-4.2-9.9,2.4c1.8,4-3.6,3.6-6.4,0.2c-7-8.3-4-19.3-8.5-18.5c-8.5,1.4-10.1-1.8-14.7-4.4
		c-1.2-0.8-6.6,0.6-10.7-1.8c-3.4-1.8-5,8.3-19.9,7c-3.4-0.4-3.2,6.2-9.7-5.2c-1.2-2.4,0.2,8.9-6.4,9.3c-7.2,1-4.8-8.5-6.4-6.2
		c-3.2,4.8-12.9,1.2-13.3,4c-0.4,3.6,4.8,5.6-1,7.2c-3,0.8,4.2,10.1-0.2,11.5c-11.1,4-11.1-7.2-15.5-8.3c-2.8-0.8-2,8.5-11.5,12.7
		c-2.8,1.2-4.8,6.6-10.9,6.4c-3.6,0,2.6,16.3,0.6,15.3c-1.4-0.8-7.7-5-7.5-3.2c2,12.5-10.9,17.9-11.1,18.1c-3.6,1.8,6.6,3.2,8.9,5.8
		c3.6,3.6-5.4,3.4-6.4,6.4c-3.4,8.9-12.5,4-7.2,11.5c6.2,8.5,2.4,8.3,4.2,12.3c1.4,3,8.1,7.5,9.1,9.3c0.8,1.4-3.8,1.8-3.4,3.4
		c0.2,1,8.3,7.2,13.5,2.2c2.4-2.4,20.1-3.2,21.1-0.6c1.4,4.2-8.9,5.4-12.3,5.4c-4,0-7,0.4-8.9,1.4c-2.8,1.4-4.6,12.1-7,8.1
		c-2.4-4,1.2-7.3-2.2-8.1c-3-0.8-0.6,7.5-3.4,8.3c-5.2,1.2-4.2,1-4.2,7c0,5-3.8,2.6-6,5.8c-2.2,3-3.4,5.8,3.4,7.5c2.8,0.8-2.8,5-5,7
		c-3.6,3.6-1.6,1.2-2,7c-0.8,6.2-3.4,11.9-7.5,16.5c-1.6,1.6-2,6.4,2.6,6.4c3,0,3.8,4,5,6.2c1.8,3.8,6.4-2,7.5-0.8
		c5.8,6-5.2,15.5,0.8,21.1c10.9,9.9,11.9,14.1,8.3,22.4c-2.8,6.6-11.5,5.4-14.1,9.9c-2.6,4.4,0.4,8.3,0.4,9.9c0,2.8,7.3,4,9.5,4.6
		c3,0.8-8.3,14.3-6.2,14.1c4-0.4,0.4,9.5,5.4,9.5c5.8,0,17.3-1,25.4-4.8c3.6-1.6,15.9,2.6,19.5,2.6c3.2,0,11.1-6.4,12.5-7.9
		c2.6-2.6-11.9-9.1-2-14.7c2.8-1.6,14.7-5.2,19.5-5c18.3,0.8,34.6,27.8,59.2,14.1c4.2-2.4,12.3-7.5,23.6-8.7
		c2.6-0.4,2.4-6.4,4.4-7.3c3.2-1.6,6,1.8,7.9-0.4c2.6-2.6-1.2-5.6,2.4-6.4c2.6-0.6,10.1,7,12.7,6c6-2.4-2.6-9.9,10.5-9.7
		c4.2,0.2,1.4-8.7,15.5-12.9c2-0.6,4.6-1.4,7-2c4.4-2.2,5.8-0.6,9.7-2c26.2-9.7,27.8-2.8,35.6-3.2c6.2-0.2-1-12.7,6.4-13.5
		c4.2-0.4,6.4,5.8,9.5,5.8c2.6,0,7.9-5.8,9.9-7.7c1.2-1.2,10.1-4,12.5-3.6c4.6,0.6,12.3,1.8,12.9-1c2.6-11.9,9.9-11.5,17.1-9.3
		c3,0.8,11.9-13.1,23.2-14.3c4.6-0.6,14.1-6.4,16.3-8.5c1.6-1.6,15.1-15.1,18.7-12.5c2.6,1.8-7.5,9.7-8.9,11.7
		c-7.2,9.5-1.8-1.2-16.7,12.9c-3.6,3.4-20.1,13.5-30.2,18.5c-1.6,0.8-6.2-2.4-7.7-1.6c-1.2,0.8-11.5,11.9-13.7,11.9
		c-2.8,0-5.6-0.2-8.3,0c-6.2,0.4-12.5,7.9-16.1,14.9c-9.7,18.3-27.8,20.3-25,25c2,3.2-0.6,6.4-5.8,8.9c-3,1.6,7,6.2,6.4,8.5
		c-1.6,6.6-9.7,3.4-6.2,13.1c0.6,1.4-7.3,4-6.2,4.2c11.7,2.6,19.3-2.6,20.7-4.2c1.6-2.2,23.8-12.1,26.4-13.3c1.8-1-7,9.5-11.1,11.7
		c-2,1-4.2,6.6-4.8,8.5c-3.6,1.8,7.7,2.2,10.9-0.2c4.4-3,12.3,2.6,17.3,0.2c5-2.4,7.3-10.7,7.7-12.1c0.8-3.4-3.4-7.5,2.8-11.5
		c5.8-3,18.1-14.1,21.1-14.7c1.4-0.4-7.5,9.5-10.1,11.5c-9.9,7.5,5.6,5.6,9.5,4c0.8-0.4,1.6-4.6,1.8-5c0.8-3,1.2-2.4,4.2-2.4
		c3.6,0,8.9-10.7,9.9-11.7c2-2-9.5,18.3-8.1,20.5c3.6,6.2,14.5,1.2,14.7,1.2c2.8-1.4,7.5,0.4,10.1-2.8c1.8-2.4-5-0.8-6-3.4
		c-2.4-6.6,6.2-9.1,12.1-6.4c3.2,1.4,4.6-3.2,5.2-2.6c1.8,1.8,4.4-0.6,5.6-0.2c2.2,0.8,10.3-4.4,12.7-4.4c3,0-7.3,8.1-10.9,10.1
		c-2,1-14.1,0.6-12.5,2.6c1.2,1.4,9.5,1.2,10.3,4c0.8,2.8-6.2,5.8-10.1,5c-2.8-0.6-7.5,4.4-10.1,6.4c-3.8,2.8-6.2-2.8-6.2,4.2
		c0,5-1.6,4.4-6.4,5.6c-2.6,0.6,4,6.2,1.6,7c-3.2,0.8-15.5,5.6-14.7,7.3c0.6,1.4,19.9-0.2,20.9-2.6c1.2-3,7.5,8.1,11.7,5.4
		c3.8-2.4,11.1-7,10.1-11.9c-0.2-0.4-0.2-0.6-0.4-1c0.2,0.4,0.2,0.8,0.4,1c2.4,6.4,11.5,1.2,13.5,1.2c1.8,0,7.3-2.6,8.1-3.6
		c3.2-4.2,4.8-3.6,7.7-3.6c5.4,0-10.5,10.1-13.7,10.9c-2.8,0.6-10.1,3.4-13.7,4.2c-4.8,1.2,4,8.5,14.7,7.3c3.8-0.4,11.1,0,13.9-0.8
		c3.6-0.8,12.9-5.8,15.7-6.6c-4,4.4-11.9,11.1-10.9,19.7c0.4,4,8.5,1.4,10.3,0.8c8.3-3,15.1-0.2,18.7-0.2c3.8,0,8.1-1.8,11.9-1.8
		c3.6,0,0,7.5-3.4,7.5s-7-1.6-10.3-1.6c-5.4,0-12.5,9.3-16.3,7.5c-3.4-1.6-2-4-7.3-5.2c-2.6-0.6-3.6,6.6-6.2,7.5
		c-13.5,5.8-33.6,1.8-32,5.4c4,8.7,24.4,8.7,31.6,27.8c1.4,3.8,15.7-5.8,18.5-7.2c4.4-2.4,7.3,14.5,9.7,14.3
		c9.5-0.6,22.8,0.8,25.4,2c2.4,1.2,19.1-1,17.9,3.2c-0.8,3.2,10.1,3.8,12.5,3.8c10.5,0.6,11.5-4.4,8.5,3.4c-3.6,1.8-5.2,4.4-7.3,4
		c-7.9-1.2-12.7-8.1-21.5-8.7c-3.6-0.4-7.3-1.6-11.1-1.6c-1.2,0-3.4,8.5-3.4,0.8c0-3.8-7.3,0-11.1,0h-11.9c-3.8,0-6-11.1-7-15.1
		c-0.6-2-6.4,8.7-10.9,8.7c-4,0-9.9-0.4-12.1-1.4c-0.8-0.4-3.2-9.7-8.7-9.7c-4.6,0-5.8,3.4-8.7,1.8c-2.6-1.4,7.3-4,10.1-4.8
		c4-1-7.7-1.8-8.7-3c-3.4-3.8-11.9-10.3-12.9-10.5c-4.8-1.2-7.9,2-6.8-3c0.8-3.2,1.2-8.3,2-11.9c1.2-4.8,6.4-5,11.7-5
		c1.2,0,2.4,4.8,5,3.6c2.4-1,6-3.8,4.2-7.3c-2.4-4.8-30-4.6-33.4-4c-18.7,3-12.7,16.1-35.8,12.5c-4.4-0.6-10.9,7.7-12.7,9.5
		c-2.4,2.4-30.4,4.4-34,2.6c-3.4-1.6-11.1-5.6-11.1-9.5c-0.4-12.9-1.6-9.3-10.1-7.5c-2.2,1.2-7.7,0-10.3,0
		c-1.6,3.4-7.3-2.8-11.1-2.8c-2.8,0-8.3,9.3-15.9,7.5c-3.2-0.6-4.4,3.2-7.5,5c-4.4,2.2-8.1,1.2-10.5-1.6c-11.7-14.1-8.5-16.3-0.8-22
		c1.4-1,8.1-8.9,4.4-8.9c-4.4,0-5.6-1.4-8.9,2c-2.4,2.4-2.6,5.4-5,7.5c-2.4,2.2-5.6,4.8-4.2,8.3c2.2,5.4-8.1,10.5-10.3,11.1
		c-3.4,0.8-3.2-4-3.2-6.4c0-2.6-5.4-1.8-7.2-3.8c-2.6-2.6-7.7-10.7-7.7-14.3c0-2.4,7.2-3.8,10.9-3.8c3.2,0-7.3-15.7,8.3-32.8
		c2.8-3-12.5-2-15.3-0.6c-8.5,4.2-14.3,17.3-23,21.5c-3.6,1.6,8.9,1.4,10.5,20.9c0.4,4.6,2.6,5,3.4,8.3c2.2,7.5-8.3,18.5-19.5,20.9
		c-4.2,0.8-4-7.3-8.3-10.9c-3-2.6-4.8,3.8-8.3,5.6c-3,1.4-18.5,0.6-12.5,2c3.4,1,6,3.6,7,7c0.8,3.4-5.6,20.7-5,22
		c1.2,2.4,7.3-8.1,11.3-8.1c5.2,0,7.5,7,10.9,10.3c7.2,7.7,18.5-8.5,29.6-6.2c9.3,1.8,13.3,9.3,11.5,17.5c-1.2,5.4-25,6.2-24.4,9.1
		c0.2,0.8,10.7,4.4,11.7,5.8c4.2,4.4,1.2,19.1,5.4,21.5c3,1.6,0.2,27.4,0.2,31.6c0,4-4.4,6.6-4.2,10.1c0.8,7.5,12.3,7,13.3,3.6
		c1.8-4.8-5.4-11.5,6-14.7c4.2-1.2,13.1-4,16.9-29.6c0.6-4.2,8.9-7.3,11.5-8.5c4.8-2.4-4.4-8.1-5.4-9.3
		c-0.4-1.2,11.7-16.7,32.2-15.7c3,0.2-5.4,9.3,28.8,6.4c6-0.6-3,5-7.2,9.7c1.2,1.2,7.3-4.8,8.5-5c4-1,23.8,12.3,27.6,13.3
		c5.8,1.4,5.4-0.2,10.3-1.4c2.6-0.6,3.8,17.1,7.2,17.1c3.8,0,27.8-1,31-1.8c2.4-0.6-1.2,5.8,1.2,5.2c16.9-4.2,26.4,10.7,29.8,35.4
		c0.6,4-1.6,4.4-5.8,4.4c-2.8,0,1.6,7.3,3.6,9.5c1.4,1.4,10.5,1.6,16.1,7.7c2,2.4,6,28.2,3.2,26.2c-8.3-5.8-8.7-2.8-10.5-0.4
		c-5.6,7.9,1.4,11.5,1.8,12.9c2.6,2.6-10.9,30.6-13.7,33.4c-3,3-10.1-0.6-16.5-3.6c-1.6-0.8-10.3,4-12.5,1.6
		c-7.3-8.1-7.3-13.1-17.3-13.1c-4.6,0-8.3-9.9-10.9-8.5c-14.5,8.1-28.8,9.7-31.6,7.9c-6.2-4.2-7.3-1.4-14.3,3.2
		c-4.2,2.8-2,5.2-8.3,5.6c-8.9,0.8-20.7-1.4-24.4-2.4c-3-0.6,1-0.2-10.7,7.9c-7.7,5.2-13.9-0.4-14.5-0.8c-1.8-1-3,3.4-5,3.4
		c-3.8-0.8-5.8-4.4-9.7-4.2c-2.8-0.6-4,6.2-6.4,7.5c-8.9-1.2-6.2-9.5-12.9,3.2c-10.5,15.5-9.3,2.6-20.1,1.6
		c-5.2,0.4-12.1,1-13.9,6.4c-1.2,5-2.8,3.8-6.2,2c-7.3-1.6-11.9-1.2-16.7,4.2c-2.6,2.6-4.2,2.4-7.5,1.4c-0.2,0-4.4-7.3-4.4,0.6
		c-0.6,6-11.5,2.4-16.3,2.2c-9.1-1.2-10.7-10.7-11.7-1.4c-2.6,6.2-5.2,12.7-12.7,8.9c-12.9-0.2-1-10.5-12.5,0.2
		c-2.4-1.2-9.5-4.4-12.3-4.4c-3.4,3.6-3.8,12.9,1,15.1c2.6,1.2,4,4.4,3,7.2c-7.9,3-19.1,5.2-26.6,5.2c-2.6,1.2,5.4,3.2,7.3,5.2
		c5.4,8.7,13.3-6.8,26.4,14.1c1.8-5,4.8-7.2,12.9-4.4c6.2,0.6,7.7-1.4,13.7,1c3.6,1.8,5.6,4.2,7.9,7c1.4,0.2-2-3.6,16.3-9.3
		c7.2-1,1,6,10.7,12.7c6,3.2,11.9,2.6,18.5,5.2c3.8,1.8,5.8,2,7,8.3c7.5,1.8,11.3,7.3,19.1,7.7c5.6-3.6,9.5-8.7,12.9-16.1
		c3.2-2.4,7.7,3.6,7.7-3.2c0.2-4.4,0.8-8.5,1.8-12.9c0.8-4.2,1.4-9.1-2.4-11.7c-4.2-2.8,1.8,1,6.2,1c3.8,0,3.8-5,7.9-5
		c3.4,0,6.8,2.4,10.3,3.2c4.2,0.8,10.7,2.2,8.5,2.6c-3.2,0.8-6.4,1-9.7,0.8c-10.1-1.2-6-2-9.7-0.8c-12.7,5-3.4,3.6-6.6,13.3
		c3.2,3.4-0.8,6.4-2.4,11.9c0.4,7,11.1,11.7,15.5,9.3c10.7,2.4,17.5,10.5,26.6,15.9c2.4,6,5.2,8.5,11.7,8.7
		c5.8-0.4,10.5,5.4,14.7,9.5c8.5,6,17.9,14.5,24,22.4c4.2,11.9,13.1,18.7,17.9,29c5.6,15.3,13.5,26.4,20.7,41.1
		c7.9,6.6,13.3-1.2,22.4-3.4c4.6,4.6-12.9,7-15.5,10.1c2.4,10.7,0,17.7,3.4,26.2c10.3,27.2,8.9,35.8,2,36c-1.8,1.8,5.4,4.4,5.4,7
		c0,2.4-6.6,1.4-8.9,1.4c-5.8,2.2-10.9,5.4-15.3,9.7c-2.6,6.6,3.2,5.4,3.2,16.5c0.8,4.6-0.4,7.3-0.4,11.9c11.7,0.6,18.5,1.2,30-3
		c10.1-1.2,5.8,3.8,26.2-2.2c7.3,9.7,8.5,12.1,23,10.1c2.8,5.4,6.2-4,18.3,0.4c7.9-4.2,8.7,1,16.5-2.4c4.4-1,10.3,3,11.7-2
		c5.2-3.4,1.8-8.5-0.4-16.3c-1-1-2.4-1.4-3.8-1.4c-0.6,1-1.4,1.8-2.8,1.8c-3.6-0.2-0.6-1.8,2.8-1.8c1.4-2.8,0.4-7.7,1-4
		c0.6,3,9.1,12.3,8.7,15.3c-0.4,4.4,3,0.4,5.8,0.4c2.2,0,5.4,7.2,6.2,5c2.4-5.2,6.2-2.6,10.1-7.2c1.6-1.8,5-1.8,3.6-9.9
		c-0.6-2.8,8.7-0.6,8.1-3.6c-2.6-10.3,5.4-7.3,3.6-11.3c0.6-0.2-5.8-3.4,2-8.5c-3-7-7.9-11.5-14.1-10.3c-3.4-3.2-13.1-3.4-11.1-8.1
		c5.4-5.2-4.4-7.2-6.2-12.3c-0.8-2.8-4.8-4.4-6.2-5.8c-1-1-1.4-1.8-1.4-2.4c-3.6-1.6-6.4-3.2-3-3.4c3.8,0.8,2.6,1.6,3,3.4
		c3.2,1.6,7.2,3.2,7.7,4.2c2.8,2.8-1-2.8,2-5c3.2-2.4,1.4-6.2,0.8-10.9c-0.2-1.6,4.6-1,9.3-1c1,0-3.2-7-1.8-7.2
		c3.2-0.8,15.1,9.9,7,10.3c-3,0,3.2,2.8,4.4,4c5.8,5-3.8,4.2,1,8.9c-0.4,13.7,7.7,1.6,10.9,0.2c8.3-3.2-6,8.3-7.5,10.9
		c-0.6,3-1.4,3.2-3.2,6.6c-1,1.8,5.6-3.8,7.5-4.8c5.6-1.6,8.7-6.6,13.7-9.3c5.6-3.2,9.1-3.6,14.9-6.2c2.8-1.4,5.2,2.4,8.1,2.4
		c-0.2-8.7-3.2-14.3-7.3-19.1c-1.8-3.8,3.6-7.3,0.4-10.5c-1.8-1.8-6.2-3.4-8.9-4.2c-2.8-0.8-2.4-4.2-7.5-4.2
		c-9.3,5.4-14.9,3.4-22-3.4c-2-2-4.4-7.7-4.4-10.3c0-2.8,6.2,7.2,8.5,8.3c7.2,5,8.5,4,14.3-0.6c4-5.2-1.4-5.8-3-10.7
		c0.4-10.9,7.3-23.6,18.3-26.8c3.4-0.8,6.8-2.2,9.7-4.2c2.4-2.2,3.4-9.9,0.8-12.5c-1.4-1.4,2-8.1,1.4-8.9c-0.6-0.6-8.5,4.8-5.8-1
		c13.7-13.3-8.7-13.1,9.1-13.7c6,0,5.4-0.2,7.5-5c2-6.4-0.8,12.3-1.4,13.9c-1.8,3.6-6,2.6-6,9.9c0,2.4-0.2,7.9,0.2,9.9
		c0.8,3,9.5-3.2,12.5-3.2c1.8,0,1.8-5.8,3-7c1-1,0,5.8,6.8,6.2c2.6,0.2-10.1,1.2-9.5,3.6c3,1.2,14.5,7.9,6.8,7
		c-4.4,0.6-10.7,0.6-13.1-4.2c-15.5,1.4-1,10.1-18.1,10.3c-11.3,3.4-16.7,13.7-16.1,24c1.4,5.2-0.6,13.9,9.9,14.1
		c8.9,7.7,12.1,18.1,16.5,29.2c4,3.4,4.8,6.4,6.6,11.7c2.4,4.6,9.9,0.8,10.5-2c0.8-3.2,3.6-0.4,7-0.4c2.6,0-2-7.5-3.8-9.3
		c4.2-8.3,6.2,8.9,10.3,7.5c3.6-1.8,6.6-5.4,6.6,0.6c-1.4,2.8,4.8,9.3,10.1,12.3c2.4,1.2,6,10.5,6.8,11.9c2.4,5,3.4,0.2,5.4-3.6
		c14.7-3.6,46.9-1.2,40.5-22c1.2-14.1-2-7.9-3.8-16.9c0-5.4,6.6-0.6,7.9-5.6c2.8-7.9-11.7,0.8-10.7-10.1c0-5.2,5.2,0.8,7,1.6
		c7-2.4,2.4-7.7,3.2-13.3c4.4-7.3,3.6,6,5,9.5c2,4.2,8.3-1.4,14.5,1.4c4,1,4.6-9.3,7.3-9.3c3,3.4-7,20.1,1.6,22
		c8.3,1.8,9.3,13.1,11.9,16.1c10.3,6,12.1-0.6,17.3,12.1c1.4,3,6.6-2.4,7.7,0.8c1,3.2-5.6,5.2-13.1,2.8c-7.2,0.6,8.7,8.1,10.7,8.9
		c4.4,2.2,4-1.2,2.6-4.4c-0.6-1.4,3,2.8,7.5-2.8c0.6,3.2-1,6-0.4,10.7c-11.5,0.4-6.4,8.3-10.7,9.9c-2.4,8.5,5,1.6,13.1,15.5
		c16.9,14.5,11.7,17.3,19.5,20.9s9.3,15.7,2,18.3c7.3,0.8,11.5-5.6,18.3-7.3c22.8-1.6,15.3,15.1,32.6,9.3c9.3-4,19.5,0.6,29.8-2.4
		c4.4-4,7.9-8.1,12.9-11.3c-5-9.3-4.2-6.2-5.6-14.9c-3-0.4-8.5-2-8.5-5.2c0-2,5.4-0.8,7,0.8c2.8-3.8-0.2-12.9-2.8-16.3
		c-2.2-5.6,1-10.5,1-16.3c3.6-0.6,3.2,9.9,3.8,12.9c4,7,0.4,11.1,4.8,25.4c2.6,3.6,6.6,16.9,10.1,8.7c9.5-5,7-5.2,12.5-12.7
		c6.2-2.6,7.7-1,9.9-5.6c1.4-2.8-1-11.1,2.4-12.3c8.5-2.6-5.4,14.7,8.1,10.9c4.4-3.4,7.9-4.2,13.7-5c9.7,3,14.1,4.2,4.4,5
		c-10.5-5.8-14.7,8.1-24,5.6c-4.4-1-5,1.4-6,5.6c-0.8,3.4-4.4-1.8-5.8,0.6c-3.2,4.6-5.4,7.9-9.3,10.3c-2.6,1.6-0.8,8.7,2.4,9.9
		c9.7,0.6,11.1,11.1,21.5,14.5c4,5.6,8.9,7.2,15.3,5.6c5.2-2.8,7.5-3,13.5-3.2c4.6-1.4,6.2-5.8,7.9-12.9c-0.2,4.2,2,6.4-1.6,12.7
		c-0.6,6.4,22,12.3,35.6,12.7c13.7,4.2,15.9-2.4,39.1,3.8c7.5-0.8,16.3,1,13.5-12.7c3-7.9,5.6-10.3,3.2-16.7c1.8-3.8,6.8,1,7.2-2.2
		c1.4-11.9-5.2-8.5-6.2-11.7c-1-3.4,5.6-4,2.4-7.3c-2.6-2.6-5.4-2.2-7.3-4.2c-4.4-4.4,1.8-6.2-2.4-9.7c-5.4-4-3-14.9,2.6-20.1
		c4.2-1-3.8,10.7-0.6,16.9c10.9,4.6-1,9.5,5.2,11.7c3.4,1.4,9.3,4.4,7.9,8.1c5,12.3,5.2,14.5-0.4,21.8c3,5.8-7.2,4.8-6,10.5
		c-1,21.1,6.6,24.4,10.3,25.4c10.7,25.6,15.7,23.2,12.3,29c-3.2,5.2,12.3,19.1,14.3,19.9c9.3,3.2,3,8.7,13.5,9.5
		c3.2,3.2,5,3.6,1.2,6.2c-3.6,4,11.3,8.5,13.1,5.2c1.4-2.8,4.8-5.2,7.3-4.4c7.7-1.8,5.8-6.2,12.7,0.2c7.9-2.2,13.7-3.8,23-1.8
		c16.7,7.7,18.9-1.2,17.5-18.5c0-4.8,1-9.3,4.4-10.9c3.2-1.6,13.7-2.4,15.1-4.8c2.2-4.2-6.8-3.4-6.4-7.7c0.8-16.1-7.5-26-13.1-35
		c-10.5-17.9,1-16.9-4.2-25c-1.2-1.6-9.5-6.6-10.9-8.5c-0.4-6.8-2.6-9.7-4.6-12.1c-5-1.2,3-5,3.4-5.2c2.4-1.2-3.8-8.9-2.6-10.9
		c1.4-2.6,3.4-5.6,3.4-8.9c5.8,6.2,4.6,14.3,3.2,20.3c-3.2,13.7,5,3,2.2,15.7c13.5,2-1.6,4.2,15.3,7.5c4.2,0.8,4.6,3.4,4.6,7.9
		c-16.1,13.1-4.4,16.3,1.2,22c9.1,6.6,5.6,25.2,12.7,27c7.2,5.4,0.2-4.2,12.5-6.2c2.2-2.2-3.2-10.3,7.5-11.7
		c5.6-0.8,10.3-9.9,12.3-18.3c5.8,3.2,9.5-5,13.5-5.8c1.4,6.4-3.2,11.3-9.3,14.3c-1.4,8.3-7,14.5-10.1,22c-1.6,5-12.5,8.1-15.9,18.7
		c-0.6,3.2-9.5,5.6-12.1,7c-10.5,12.3-0.6,5.2-9.5,15.3c-11.1,12.9,12.3,9.1,18.7,5.6c2.2-1.6,7-1.4,9.7-1.4c12.5,5,8.5,6.6,20.9,5
		c5.6,1.8,7.2,9.7,11.5,17.9c-9.1,6.2-19.9-8.1-29.6-10.9c-7.5-2.6-14.3-2.6-20.1,2.8c-0.6,0.8-18.5-8.1-8.5,1
		c7.9,5.6,16.1,1,23.8,1c12.3,0.6,23.8,8.3,34,12.5c11.5,4.8,17.7,18.7,27.4,24.4c9.9,2.6,14.1,18.7,25,16.5
		c4.4-6.6,1.6-15.9-2.8-22.2c10.3-9.5,14.1-19.5,9.7-24.2c-2.4-2.6-5.2-3.6-1.8-7.5c8.9-0.2,3,12.3,13.1,3c7.3-6.6,8.7-0.4,17.9-2.2
		c4.2,0.2,17.5-5.2,16.7,2c-0.6,2.6-6.2,3-8.3,3.4c-1.6,0.4-4.6,8.1-5.6,9.3c-7-2.6-2.8-4.8-18.1-3.2c-7.5,4.4,1,7.9-8.9,9.7
		c-9.3,10.7-3.6,26.8-8.1,37.3c-4,9.1,4.4,5.8,8.9,22.2c1,3.4,13.7,9.9,25,13.1c10.3,7,16.9,24.2,19.5,36.9
		c1.6,14.7,5.2,41.1-0.8,57.2c-3.6,3.6-15.7-1-13.1,5.6c2,4.2,7.7,0.4,6.2,3.4c-3.8,8.1-0.6,10.3-0.6,18.5
		c-0.4,15.9,6.4,16.5,4.8,26c-0.4,2.4,4.4-2,10.3,9.7c5.6,6.4-0.8-4.4,12.5-3.6c3.4,0,6,6.2,8.9,7.5c8.5,0.4,5.4-5.4,18.7,3.8
		c0.2-6.6-10.1-4.8-9.3-15.7c-5-7.9-13.3-5.6-16.1-15.3c-8.9-9.1,0.6-6.4-6.6-19.9c-0.8-0.6,3.2-6.2,2-8.9c-14.9-27.6-7-57.6,7-65.7
		c-9.7,1-14.3,10.7-11.7-6.2c1-5.2-6.2-12.3,1.2-13.7c12.3,16.7,12.7,6.8,15.5,13.3c1.4,3.6,12.5,4.8,8.7,6.4
		c-5.6,2.8-14.1,3.2-7.7,7.3c6.2,3.8,7.7,12.9,16.9,6c6.4-5,7.7-7,21.5-5.6c0.6,0,2.6-6.6,2.8-8.3c0.4-1.4,8.7-0.2,8.9-0.8
		c1.2-2.8-4.4-4.4-4.4-6.6c11.5-1.6,4.8,9.7,14.9,14.9c1.6,1.6,4.2,6.6,6.2,6.2c8.7-1.4-0.4-7.3-0.8-11.1c-0.4-4.2-3-4.8-5-8.3
		c-2.8-10.1,4.6-8.1,7.2,0.4c1.2,4.2,5.2,1.6,5.4,7.3c0.8,7.3,5,14.3,10.1,8.9c3-3,7.2-5.2,1.4-15.3c-1.6-2.8-3.8-8.9-2-10.7
		c7.9,4.2,4,3.2,7,11.1c10.5,12.1,9.7-0.4,14.7,16.3c3.4,4.4,0,13.9,8.3,13.5c5.2-2.4-1-14.5,5-6.2c3,3,3.6,5.2,8.9,5.2
		c3.4-0.2,6.8,0.6,9.7,2c7.7,0.4,1.8-6.6-5.2-8.5c-1.8-7.5-8.3-14.1-8.7-21.3c-8.9-2.2-16.3-6.2-14.5-8.3
		c4.8-1.8,13.9-14.5,3.8-14.5c-4.4-4.8-14.5-7.3-4.2-8.9c4.4-2.2,2.4-9.7,8.3-6.4c0-3,1.4-4.8-2-10.9c-2-3.6-1.2-9.1-4.2-9.3
		c-15.7-0.8,0.2-8.1-8.9-8.9c-2.6-0.4,5-2.6,3-7.3c-0.6-1.4,1.2,2.4,7.7,7.7c2.6,2-5.8,2-3.8,3.8c4,3.6,6.6-0.8,7.3,1.8
		c1,2,0.2,7,0.8,8.9c7.9,4.4,10.7-10.1,13.9-3.2c1.6,3.6-7.9,7.9-7.5,14.3c2.8,9.7-4.2,9.7,2.4,16.3c8.1,4.4,4.2,10.7,5.6,18.5
		c3,4.8,0.2-13.5,6-16.5c3-1.4,0-4.8-0.4-6.2c7.7-10.3,4.8,7,4.4,11.1c1.6,11.7,4.6-17.9,7.9-4.4c0,1.6-3.4,5.8-3.4,8.9
		c0,2-5.6,1.8-1.6,7.5c3.4,4.8,4,3,5.6,1.4c3.4-3.4-3-4.8,4.2-6.2c7.2-0.6,5.2,2.6,2.8,8.9c7.9,1.4,7.9-5,11.5-0.2
		c1.2,1.4,0.4,7.7,4.4,9.7c7.7-6.4,1.2-7.9-1.4-12.5c1.6-7.2-3-14.1,2.8-21.5c2-2.8,7.7,1.6,10.3,4.2c2.4,2.4,5,2.8,8.9,2.8
		c4.8,0,3.2-3.2,2.8-5c-0.4-1.6-3.4-2-3.4-7c0-5.6,3.6-1.4,5-6.2c1.2-4.4-3.2-4.6-5-6.2c-3.6-3.6,1-7.5,2.8-6
		c6.2,5.2,9.9,5.8,17.9,6.6c2.4,0.6,4.6-3.6,7-4.2c1-0.2-6.2,6.2-5,7c6.4,3.6,6.2-9.1,23.6-7.5c3.2,8.5,10.3-1.6,10.5,2
		c0.2,5.2,2.2,6,6-2.8c2.4-5.4-4-9.3,7.2-11.9c2.2,0,4.2,2.8,8.3,2.8c5.8,0.2,8.9-6.2,10.5,3.8c-0.4,4.2,2,9.3,4.4,3
		c1.4-5.4,1,4.2,3.2,6.2c7,6.4,10.1,7.7,4,7.9c-5.8,0-7.2-5.8-11.7-5.8c-8.7-0.2-12.7-10.5-21.8-6.6c-3.8,4.2,18.7,13.5,22.4,14.5
		c4.8,1.2,3.8,1.2,5,5.6c7.5,0.2-1.2,9.3,15.9,3.4c3.2-3.2,5.6,0.6,5.6,3.4c0,5-4.8,4.2-2.4,6.6c4.2,4.2-5.8,10.7,1.6,12.7
		c5.2,0.6,4.8,6.6,0.4,10.9c-0.6,2.6,1.6,7.9,0.2,9.3c-16.5-1.6-0.4,5.6-10.9,8.7c-3.4,1.6,3.6,14.1-2.2,14.1
		c-6.8,4.4-23.2,17.3-23.4,12.5c-0.8-13.3-10.3-2.2-10.5-8.9c-2.2-4.6-8.1-9.1-13.1-9.7c-5.2-0.6-1.6,7-2,8.3c-2,6.4-1,8.5-4.8,5
		c-3-3-5.8-1.2-5.8-7c4.4-9.3,2.8-10.3-2.6-8.9c-1.6,1.6-4.6-2.8-7-2c0.2,5.8,6.8,7.5,3.4,14.5c-1.4,3-6,4-8.5,5.2
		c-1.8,0.8-2.6-8.1-10.7-7.9c-2,0-1.6,6.4-2.8,5.6c-3.8-3-4.4,0-10.3,0.8c-5.2-1-0.4-4.2-2-12.9c-4.6-2.6-7.5,4.8-11.1,4.2
		c-4.4-0.6,5.4-7.3,4.8-9.3c-1.8-5.8-11.5,5.8-8.7-5c2-7.7-5-5-5-0.4c0,5-3.8,5.6-7.2,3.8c-2.6-1.2,0-6.4-2-7
		c-12.5-3.6-3.4,6.8-13.5,5.2c-3,0,1,5.8,3.2,7.9c-7.3,16.7,8.5,1.8,4.6,16.3c-2.4,10.3,4.4-2.6,14.9-1c8.7-0.6,5.2,7.2,12.5,10.3
		c8.7,1,4.8,11.1,13.1,13.9c7,4.2,1.4,12.5,1.4,20.1c6,3.8,15.3,9.1,22.8,9.5c5.4,2.4,4.8,6.2,11.1,3.6c3.6-1.8,5,1.6,7,3.4
		c8.1,4.8-1.2-3.8,9.5-7.5c5.6-2.8,0.2-5.6,9.1-5.6c23.2-3.8,16.9,1,32.4-9.3c13.7-2.6,27.2-0.6,39.5,9.3c8.5,6.8,8.3,6.6,5.6-1
		c-1.2-3.2,7.7-7.7,8.7-12.9c2.4-8.7-10.1-10.9,13.3-11.7c4.8,4,7.5,0.4,12.3,5.4c1.4,1.4,0.8,8.7,1,10.3c5,3.4,2-1.6,19.3-3.8
		c4.8-5-5.4-8.1,15.7-9.7c7.9,7.5,8.9-2.2,18.7,5.6c3.8,1.6,13.3,4.2,12.1,0.8c-1.6-8.3,2.8-13.1,7.9-17.3c2.8-2,5.6-1.4,4.4,2.4
		c5.6,4.2,8.7-6.8,18.9,1.6c4.2,3.2,9.1-0.2,6,8.9c-0.8,2.4,2.4-4.6,11.9-0.6c9.7-0.8,16.1,5.4,25,11.3c6,1.8,7,1.2,11.9,6
		c9.7,6.2,19.9,7,28.6-1c2.6-2.6,5-2.4,9.9-2.4c15.1,5.2,22.6-4.8,30.8-12.1c12.5-2.4,5.8,0.2,0.4,4.4c-22.2,23-25.2,7.5-36.7,15.3
		c-8.7,4-13.1,8.9-27.8,4.2c-10.3-7.7-7.3-0.8-15.5,4.2c-20.7,12.3-14.1-7-24.6-6.2c-2,0-6.6,2-9.7,2c-6,0,4.4,15.5,6.2,22.2
		c3.2,11.3-13.1,15.3-7.3,21.3c2,10.7,7,16.9,17.7,14.9c6.4-3.2,1-8.9,16.3-2.2c3.6,3,7.9,7,9.9,11.1c-6.6,2.8-11.5,5.6-10.9,13.9
		c8.7-1.2,8.1-0.8,14.9,5c5.8,5,9.5,8.1-1.2,7c-14.9-1.4-22.4,8.7-21.1-7.5c0.6-6.2-29.4,28-50.3,39.1c-8.3,3.4-14.9-1.8-19.1,5.6
		c-8.1,14.7-0.4,7.9,5.8,15.1c9.1,10.5,41.3,30.4,31.2,41.9c-2.6,2.6-4.8,0.4-3.6,5.6c7.5,6.6,8.7-5.4,4,17.1
		c-4.8,22.4-13.1,13.9-19.3,14.1c-11.9,0.6-15.1,8.7-5.6,11.7c3.6,1.2,7.9-1,11.1,1.4c20.9,15.1,48.1,21.8,68.7,30.8
		c11.1,4.8,16.9,8.7,13.7-7c-0.6-2.4-5-12.7-0.4-8.9c2.8,2.4,7.2-2,8.5-2.4c12.3-4,24.2-2.2,36.3,12.1c12.7,14.9,35.4,23.8,49.7,36
		c5.6,4.8,21.1,0.6,31-9.5c5-5-1.2-5,31.8-17.7c9.5-3.6,8.9-8.7,19.9-14.3c5.6-3,0.6-8.1,6.6-12.9c3-2.4,5.6-1.4,7-4.2
		c0.4-0.6-4-5.6,2.8-6.2c14.9-1.4,29.6-9.1,43.7-13.9c14.1-4.8,26.8,4.4,39.9-2c21.7-10.5,25-15.3,29.4,0.4c1.6,5.8,2.4,1.8,6.8-0.4
		c4.4-2,5.6,3,5.6-5c0-5.2-0.2-6.6,5-5.6c22,4.6,9.9,8.7,34.6,13.9c20.3,4.2,39.9,11.5,57.8,21.8c2.8,1.6-2,6.8,6.6,2.4
		c2.6-1.4,13.1,11.9,14.1,12.5c13.9,8.9,16.1,10.5,30.2,31.6c35.8,41.9,45.9,43.9,86.4,43.9c10.9,0-19.3,5.4-31.6,3.4
		c-4.4-0.8-9.9-4.2-14.5-4.8c-20.1-2.6-44.3-21.8-48.7-23c-14.1-3.8-32.4-12.1-35.2-22.8c-1.4-5-6-5-11.3-6.2
		c-13.3-3-21.5-15.5-31-17.9c-45.1-11.7-32.6-14.7-78.9-26.4c-6.6-1.6-9.1,5.8-14.5,7.5c-28.8,9.3-54.6,10.3-71.9,11.7
		c-3.4,0.4-17.7,5.6-18.5,7.5c-7,17.7,11.1,21.1-5.8,36.1c-2.8,2.6,5.2,10.9,7.2,13.7c17.1,24.4,2.2,29.4,6,56.4
		c1.2,8.3-1.6,16.3-10.3,20.7c-9.3,4.4-21.7-1-31.2,1.4c-4.8,1.2-11.1,15.3-17.3,17.9c-7.3,3.2-6.8,4.6-6.6,10.5
		c0.2,3.4,5.4-0.2,8.5-0.4c7.2-0.8,7.7,7.2,14.3,8.9c17.9,5.2,28.2-1.6,42.5,10.1c11.1,9.1,34.4,1.8,46.9,7c3.4,1.4-5.6,2.4-0.6,4.2
		c11.1,4.4,24.6,7,34.8,11.3c12.9,5.8,12.5,17.9,23.2,25.2c21.6,14.9,21.1,12.3,31.2,32c3.8,7.3,12.3,14.3,8.3,22.4
		c-7.5,15.3-38.7,15.5-38.5,20.3c0.2,7.5-2.4,14.9-4.4,14.7c-3.2-0.6,6.8,5.4,4.4,7.5c-6.6,6.2-11.9,12.3-11.7,21.5
		c0,1.2,6.2,2.4,1.2,7c-7.3,6.6-9.5,14.3-17.1,20.9c-6,5.2,0,8.1-2,13.1c-0.6,1.8-4.6-3.8-5.6-2c-8.9,14.9-29.8,21.1-32.2,31.2
		c-3.4,14.7,11.1,16.3-15.7,27.6c-1.8,0.8-15.7-29.2-10.9-37.5c5-8.9-4.2-5.8-3.2-12.3c2.8-18.5-4.2-27.6-18.5-32
		c-26.6-8.3-8.7,17.9-1,27.8c6.2,7.7,4.6,18.1,8.3,27.4c2.6,6.2,5.4,14.1,6.2,20.7c3.2,22.6,12.5,22.4,11.5,70.7
		c-0.2,3.8,4,5.6,4,12.7c0.2,7,44.5,38.7,78.7,63.6c8.3,6.2,25,29.6,26.8,31.8c9.9,6.2,16.3,12.7,21.7,24c5.2,10.9-5,17.1,12.1,25.4
		c7.5,3.8,6.6-0.2,11.7,0c6,0.4,9.3,8.9,14.9,16.9c17.7,25.2,19.5,43.7,38.3,55l-36.3,133.5H5946v-2950.4H4445.2z"/>
	<path id="_Trace_" fill="none" stroke="#4C9ECC" stroke-width="3" d="M4432.3,1092.4c22.2-0.2,28.6,8.1,42.5,13.5
		c17.5,6.6,38.1,3.6,56.2-1c19.7-5.2,23-19.7,46.7-22c24-2.6,17.7-3,28.6-8.9c2.4-1.2,16.7-3.4,20.1-8.7
		c9.7-15.5,28.4-28.4,38.7-39.7c13.7-15.1,23.8-26,51.2-42.5c8.5-5.2,17.7-25.2,49.5-42.1c7.3-4,16.9-2,25-4.6
		c10.9-3.4,18.9-10.5,29.4-15.5c2.4-1.2,16.5,0.2,19.3,0.2c10.9,0.4,21.7-6.4,29.2-12.9c24-11.5,29.6-10.9,54.2-5
		c3,0.8,29.6-0.8,36,1.4c14.5,4.8,22.6,0.8,32.8-3.2c9.5-3.6,24.6-7,36.9-7.2c2.6,0,7-7.7,8.7-9.3c10.3-9.3,17.9-16.3,32.8-17.5
		c10.3-1,15.7,4,26,5c17.5,1.2,29.6,4.2,47.5,9.5c15.3,4.6,34.6,18.7,49.1,22.4c23.4,6.6,22.8,9.3,36.5,7.9c9.7-1,20.3-4,28.8-9.5
		c2-1.4,7.9-11.5,10.1-11.3c12.7,1,30.4-11.1,36.3-24.4c4-8.7,10.3-14.7,21.8-16.1c7.7-1,15.3-3.8,23-5.4
		c12.7-2.8,25.2-5.6,37.1-1.8c13.7,4.2,37.1,5.6,57,5"/>
	<path id="_Trace_2" fill="none" stroke="#4C9ECC" stroke-width="3" d="M5109.6,873.1c15.3,7.7,20.7,13.3,21.1,14.3
		c5,8.9,16.7,8.9,21.8,13.9c3.8,3.6,22.8,8.3,39.3,18.9c7.2,4.4,7.9,2.4,15.7,3.4c27.4,3.2,9.5,6.6,29.4,7.5
		c12.9,0.6,26-14.3,38.1-16.5c9.7-1.6,15.7-2,20.1-14.3c1.2-3.2,8.5-3.6,9.9-12.7c1.2-8.9,7-18.3,19.9-15.1
		c5.8,1.4,15.7-6.4,18.3-7.2c13.1-3.8,19.3,0.2,33.2-4.4c5.2-1.6,6.6-7.7,12.3-7.7c17.3,0.2,26-1.4,37.3-5.4"/>
	<path id="_Trace_3" fill="none" stroke="#4C9ECC" stroke-width="3" d="M5194,921.9c11.1-1.2,12.5,2,31.2-9.9"/>
	<path id="_Trace_4" fill="none" stroke="#4C9ECC" stroke-width="3" d="M5328.9,851.2c1.8-1.8,14.5,1.4,16.9,2.4
		c7,2.8,14.7-1.6,21.8-0.4c11.1,1.8,16.7-7.3,26.8-8.1"/>
	<path id="_Trace_5" fill="none" stroke="#4C9ECC" stroke-width="3" d="M4544.5,1099.1c13.9,2.4,28.6-2.2,32.6,5.8
		c7.2,13.7,15.7,21.8,30.2,25.4c26.4,6.6,8.3,21.5,29,25.8c7,1.4,15.1-5.4,27-1.8c9.3,2.8,13.7-3.4,22.6,7c4.2,5,13.3,1.2,16.9,1.8
		c7.5,1.6,1.6,9.5,21.1,8.1c6.4-0.4,17.9,11.9,20.5,14.7c8.9,18.7,31.2,28.2,38.9,40.1c4,6.2,6.6,6,13.7,13.9
		c1.6,1.8,1.2,2.6,1.6,4.2c0.6,2.2,1.4-0.8,3.8-0.2c3.2,0.8,3.6,7.7,5.4,9.7c1.8,1.8,15.3,4.2,17.3,5.8c23.6,18.5,13.1,28,51.6,34.4
		c13.9,2.4,27.4,17.7,42.1,18.3c18.9,0.8,24,11.9,33.4,5.4c2.6-1.8,3.8,8.9,37.9,7.5c8.1-0.4,27.6,11.1,41.1,10.9"/>
	<path id="_Trace_6" fill="none" stroke="#4C9ECC" stroke-width="3" d="M4571.1,1084c-6.2-18.3-1-35.4,5.8-54
		c4.4-12.1,3.4-22.2,3.2-38.5c-0.2-10.5,5.8-13.1,6.2-46.7c0-3.4,6-9.5,10.1-23.2c3.6-11.9,14.9-6.2,13.9-29.6
		c-1-23-5.2-19.9,1-46.9c3.2-14.1-9.1-19.3-6.4-36c1.8-11.3-2.2-16.3,6.8-28.6"/>
	<path id="_Trace_7" fill="none" stroke="#4C9ECC" stroke-width="3" d="M5308.8,859.6c4.2-18.9,7.7-39.7,16.9-56.8
		c4.2-7.7,2.4-13.9,10.5-20.3c15.3-11.9,23.2-14.3,22.8-28.2c-0.4-10.9-8.3-15.1-9.3-24.2c-3.8-32.8-34.2-8.3-33.4-25
		c1.2-23-1.2-28.8-20.1-35.4c-22.2-7.5-25.6-9.3-38.3-22.2"/>
	<path id="_Trace_8" fill="none" stroke="#4C9ECC" stroke-width="3" d="M5381.9,683.8c-13.3,2.6-22.4,18.5-12.7,29.4
		c7,8.1,9.9,16.1,7.3,26.4c-2.2,8.9-10.1,13.9-16.9,19.5"/>
	<path id="_Trace" fill="none" stroke="#4C9ECC" stroke-width="3" d="M5258.4,648.2c-3-7-3.2-14.9-7.3-21.3c-7-10.5-2.2-16.7-2-25
		c0.2-23.2-6.2-24.2-5.8-36.9c1.8-14.7,26.2-39.3,26.6-53c6-7.3-4.2-11.7-2.8-18.9c7.2-10.5,12.9-7.7,19.9-18.9
		c6.6-10.5-3.4-9.5-5.2-14.3c-2.8-7.5-0.4-15.3-16.7-12.7c-6.6,1-10.9-0.6-4.6-7.9s6-17.9,4.2-26.6c-1.8-8.9-0.6-24.4-12.1-25.4
		c-13.5-1.2-15.3-15.5-15.3-25.4c0.2-10.5,10.7-17.9,9.5-28c-0.8-7-9.3-13.7-5.2-20.3c5.2-8.1,10.9-18.5,3.8-25.8
		c-13.7-14.1-25.6-4.8-26.6-25c-0.8-15.5,9.1-9.1,16.7-6.2c3.4,1.4-0.8-14.9-2.6-18.5c-5.6-12.3-20.1-19.5-10.5-25.8
		c6-3.8,5.4-6,0.4-9.9c-4.8-3.6-11.1-12.1-12.1-17.5c-2.4-16.5,3.2-22-7.5-36c-8.3-11.1-16.9-20.3-9.1-39.3
		c5.4-13.1-3.6-25-13.9-34.8c-12.9-12.3-3.8-26,8.3-31.2c8.7-3.6,14.1-13.9,14.5-23.4c0.6-9.7-6.4-23.4,2-28.8
		c7.7-4.8-2.6-8.1-2.2-18.7c0.6-16.5,21.8-12.5,26-29.6c1.4-6,9.7-14.7,16.1-20.9"/>
	<path id="_Trace_9" fill="none" stroke="#4C9ECC" stroke-width="3" d="M5381.7,683.6c13.5-2.4,8.9-14.5,13.3-21.7
		c3.8-6.2,15.5-13.5,8.9-18.5s-7.3-8.3-8.5-16.5c-3-19.1,6.4-14.3,16.5-14.3c22-0.2,14.7-33.6,7-34.4c-16.3-2.2-17.7-14.5-11.9-26
		c4.2-8.1,9.3-7.2,17.7-7.2s18.7,2.4,22.8-7c3.8-8.3-10.9-23.8,0.6-28"/>
	<path id="_Trace_10" fill="none" stroke="#4C9ECC" stroke-width="3" d="M5378.7,684.8c4.2,11.7,14.5,18.3,20.9,5.2
		c5.6-11.3,11.9-21.3,25-22.8c11.1-1.4,23.4,3.6,33.6,8.5c8.1,4,24.8,12.1,29.4,3.4c4-7.7,8.7-9.5,22-9.1"/>
	<path id="_Trace_11" fill="none" stroke="#4C9ECC" stroke-width="3" d="M4962.4-89.7c16.3-0.2,15.7-6,22.2-12.3
		c5.6-5.2,14.9-4.8,16.3,4c1,6.4-6.6,3.8-5.8,17.7c0.2,1.8-6.4,10.9-7.9,11.9c-9.9,6-9.5,12.3-17.5,21.3c-8.1,7.5-21.7,7.3-28,15.5
		c-3.2,4.2,3.2,8.1,4.2,12.9c2,9.1,0.4,21.7-11.1,21.8c-8.9,0.2-8.1,3-9.5,4.2c-2.6,2.6-5.6,0.8-8.1-0.6c-2.2-1.2-7-5.4-8.5-4
		c-5.8,5-14.1,3.8-22.4,5.2c-9.1,1.4-15.9,9.3-24.2,13.1c-8.9,4.2-11.3,8.7-18.3,12.7c-9.3,5.4-22,4.4-32.2,8.7
		c-8.1,3.6-13.7,19.7-21.1,13.3c-9.7-8.3-30.4-20.3-38.7-12.3c-7.5,7.2-11.3,10.9-28,8.7c-12.5-1.6-12.1-3-23,3.2
		c-6.4,3.6-10.9,1-14.9-2.6c-2.8-2.6-11.9-3.8-12.5-3.2c-7.7,6-3.8-3.8-20.9-0.6c-12.9,2.6-7.7-16.9-23.8-7.9
		c-5.6,3.2-9.5,2.8-13.5-2.6c-4-5.4-10.9-4.6-16.7-3.2c-13.3,3.6-5.8-9.5-13.7-11.5c-8.3-2-14.9,8.3-28,7.9
		c-2.8-0.2-5.2-5.8-5.6-8.3c-2-12.7-12.5-11.3-13.7,7.3c0,17.5-31.6,14.9-44.3,14.9c-4,0-12.3,5-15.7,5.2c-6.4,0.4-13.1-6-19.5-7.2
		c-13.7-2.6-26.4,0.8-37.3,8.9c-7.9,6-13.3,15.1-18.3,24.2c-6.4,11.9-6.4,24.4-7.5,37.9c-1.4,14.1-5.8,2.4-7.5,21.3
		c-0.8,8.3,2.8,8.5-5.2,25c-4.6,9.3,1,11.5,10.5,11.7c7.7,0.2,15.1,6.2,10.5,13.3c-4.8,7.5,2.6,15.7,6,22
		c8.3,15.3,0.8,32.4-8.3,45.5c-3.6,3.8,3.8,3.6,7.3,7.7c2.6,3.2-4.4,2-5.8,2c-11.9,0.4-10.9,4.8-7.3,16.7
		c5.2,16.9,15.1,5.6-14.5,20.9c-4,2.6,1.8,9.9,2.6,14.1c3.2,16.1,7,33.8-3.2,46.7c-2.8,3.6-10.1,1.8-14.7,3.4
		c-5.2,1.6-10.5,3.8-10.1,10.7c0.4,6.4-7,4.4-10.3,7.7c-6,5.6-16.1,9.7-11.9,17.1c2.4,4.4,5.8,9.3,0,15.5
		c-7.7,8.1,8.7,15.5-0.6,23.8c-3.8,3.4,10.7,4.4,13.5,4.2c13.9-1-0.2,17.7-5.8,22.8c-8.7,10.1-1.6,18.5-0.2,27.8
		c1.2,8.3,2.8,16.1-7.2,17.9c-7.5,1.2-16.9-3.8-20.5,5c-2.2,5.2-11.1,7.9-16.9,8.5c-15.3,1.6-38.9,7.9-41.9,14.9
		c-4.4,9.9-13.9,17.3-21.5,9.5c-8.5-8.5-12.3-5.8-21.5-1.8c-11.5,5.2-31.4-1-36.9,12.3c-3.6,8.7-13.7,15.3-23,15.9
		c-9.5,0.6-17.9,13.1-18.7,21.8c-1.2,12.5,11.3,7.9,9.9,23.4c-0.8,7.3-4,12.1-11.9,16.7c-1.4,0.8-1.4,6.2-1.6,7.7
		c-1.2,7.5,1.4,16.9-8.7,16.7c-15.5-0.6-11.7-15.3-27.6-11.3c-9.3,2.4-15.5-4.2-22-0.4c-5.6,3.2-11.7,0-16.5-2.6
		c-5.2-2.8-7.7,2-11.1,3.2c-2.8,0.8-9.9-0.6-12.5,0.2c-6.4,1.8-9.1,10.1-16.3,11.7c-3,0.8-6-3.2-8.5-3c-8.3,0.6-18.7,1.8-19.7,4.2
		c-2,5,2.4,8.5,1.4,13.5c-1.2,6-7.5,4.8-10.7,5.8c-10.7,4-11.5,17.5-12.1,26.8c-0.4,8.1,1.6,17.3-4.2,22.4
		c-7.2,6.2-14.5,2.6-23.6,0.2"/>
	<path id="_Trace_12" fill="none" stroke="#4C9ECC" stroke-width="3" d="M4464.5-266.2c-4.8,3.2-4.2,8.1-4.2,13.3
		c0,2.6-2.6,4.8-4.2,6.4c-3.4,4-0.2,7.9,2.6,10.7c1.2,1.2,1,5.2,1.8,6.8c3.2,6.2,12.1,16.9,8.5,23.4c-2.6,5.2-10.1,1.6-4.8,9.3
		c5.8,8.1,7.3,20.1,4.8,29.6c-1,3.6-3.2,8.9-0.8,11.9c7,8.7,11.9,18.5,5.2,28.4c-1.8,2.8-1.8,15.3,0.4,17.9
		c8.1,10.1,17.7,9.5,20.7,20.1c5,18.7-5.4,11.7-0.8,17.3c3.2,4,5.4,8.1,2.6,12.9c-3.2,5.8,6,7.2,4.8,18.3
		c-2.4,18.9-8.3,19.5-18.5,19.3c-13.9-0.2-4.2,12.3,3.6,13.7c10.7,2-5,9.9-11.1,13.9c-7.2,4.2-7.2,17.7-8.9,25.8
		c-1.4,5.8-7.9,2.8-7.2,11.7"/>
	<path id="_Trace_13" fill="none" stroke="#4C9ECC" stroke-width="3" d="M4723.5-554.8c8.1,5.4,17.1,6.2,26.4,1.4
		c17.7-8.7,23.2,5.2,13.7,15.9c-5.8,6.4-3.8,20.1,4,24.2c1.8,1,5.6-7.2,7-6.6c3.8,1.8,2.8,5.8,8.9,5.6c5.2-0.2,12.5-1,14.5-5.8
		c2-4.8,3.2,0.4,6.6,6c7,11.9,3.4,13.7,14.7,23.2c7.5,6.4,7.5,4,14.3,1.4c2.8-1,4.4,0,5.4,3.8c1.2,4.4,5.8-2,8.1-2.4
		c10.7-1.6,3.8,7.2,16.9,0.8c4.2-2-11.7,7.7,5.2,6c5-0.6,0.8,7.5,11.1,6.8c2-0.2,2-4.8,3.8-5.6c4-2,3.6,3.6,5.6,5.2
		c20.7,10.3,22.2-0.6,20.9-12.9c-1-7.5,18.5-11.1,23.2-7c2.8,2.6,8.5-5.4,11.5-4.6c2,0.6,9.1,7.2,11.3,6.4c7-2,11.1-2.6,17.5-7.2
		c2-1.4,5.6,1,7.9,1c2.8,0,4.2,0.4,4.2-4c0-2,5-2,6.6-2.4c12.9-2.2,11.7-7,20.9-8.7c8.5-1.8,17.5,0.8,26-1.4c5.6-1.4,3-4.2,12.3-2
		c5,1.2,12.9,2,16.1,5.8c8.7,10.3,13.7,6.2,24.4,1.8c7.5-3.2,19.1-3.6,25.4,1.6c5.8,5,10.5,11.1,14.1,18.1c1.6,3,13.1,6.8,17.3,5.8
		c10.3-2.6,16.3-15.7,19.5-13.3c7.3,5.2-2.8,14.1,13.9,22"/>
	<path id="_Trace_14" fill="none" stroke="#4C9ECC" stroke-width="3" d="M4598.9-538.3c1,28.4-5,29.4-3.8,39.7
		c1.2,9.9,4.6,16.7,7,26.4c3.2,13.7,2.8,34.2,2.4,48.5"/>
	<path id="_Trace_15" fill="none" stroke="#4C9ECC" stroke-width="3" d="M4209.8-393c-1.2,14.3-4.8,23.8-15.9,27
		c-6.2,1.6-9.9,9.5-14.3,14.5c-9.9,11.7,2,12.5,0,21.8c-1.6,7.3,4.6,11.9,10.1,11.3c5.6-0.6,7.3,1.4,7,7.3
		c-0.6,10.7,8.1,18.9,11.3,28.6c2.8,8.7,4.8,17.5,2.8,26.4c-3.8,16.9-21.1,14.5-21.8,24.4c-1,10.1-10.1,26.6-24.8,30.2
		c-7.7,1.8-3.2,7.7-2,11.9c3.8,14.7-8.1,16.1-19.7,16.5c-2.6,0.2-7.9-5.4-9.5-5.6c-8.5-0.8-3.2,4.8-10.3,4.2
		c-5.8-0.4-14.1,8.3-22,9.3c-3.4,0.4-6,5.4-8.7,7.2"/>
	<path id="_Trace_16" fill="none" stroke="#4C9ECC" stroke-width="3" d="M4092.6-158c-16.5,15.7-12.1,39.5-27.6,46.7
		c-22.8,10.7-30,5.4-41.1,2.6c-8.7-2.4-17.9-4-27-2c-11.7,2-19.7-5.6-30.6-9.9c-18.9-7.3-26.6,13.7-44.3,17.3
		c-21.1,2.4-33.6-7.3-49.1-16.1c-10.1-5.6-17.3-34.8-43.9-44.7c-7.3-2.8-16.3,4.4-21.1,4.2c-9.3,0-18.3-2.2-26.6-6.2"/>
	<path id="_Trace_17" fill="none" stroke="#4C9ECC" stroke-width="3" d="M3315.6-702.4c-0.2-0.2-2,5.6-3.2,7.3
		c-3.8,6.2-9.9,2.8-13.3,8.5c-5.2,8.3-4,16.1,5.6,16.3c7,0.2,4.8,2,5.8,14.5c1,11.5-18.1,13.7-21.7,17.9c-4.6,5.4-8.9,13.7-3.8,19.5
		c3.8,4.2,0.6,8.3,2.8,12.3c2.6,4.4,7.5,4.4,2.8,13.1c-5.6,10.3,7.2,7.2,9.3,30.2c0.6,5.2-2.4,5.4,2.2,9.9c3.2,3,5,31.4-3,43.5
		c-6.6,10.1-15.3,7.9-15.7,16.1c-0.6,10.9,10.1,16.1,8.7,27.6c-1,8.1,6.4,21.5-4.8,25.4c-8.9,3.4-2.6,15.3,5.8,15.5
		c9.9,0.4,16.7,5.6,22,13.5c5.2,7.5,8.3,10.7,7.5,19.3c-1,10.3,7.5,10.5,12.5,16.7c1.4,1.6,1.6,7.9,1,9.9c-2,8.1,13.1,13.9,5.2,19.7
		c-7,5-1.8,10.7,0,17.1c7.7,25.8-9.1,11.3-15.1,18.7c-6.4,7.7-9.9,14.7-6,23.2c4.2,8.9-11.9,12.7-17.3,17.1"/>
	<path id="_Trace_18" fill="none" stroke="#4C9ECC" stroke-width="3" d="M3219.5-338.3c-32.2,22-17.7,29.8-7.2,54
		c8.3,19.1-4.8,32.2-1,50.1c4.6,21.8,14.7,39.5,29.8,55c9.7,9.9,34.4,0.4,34.2,16.9c-0.2,8.3-7.3,9.3-11.3,14.3
		c-5.4,7.2,1.4,13.5,7.7,18.5c6.6,5.4-6.2,9.7-7.9,16.9c-2.8,11.5,10.5,10.5,13.1,20.7c5.8,22,17.5,22,34.4,23.2
		c13.9,1,28.2,18.1,35.4,6.6c5.2-8.3,2.4,2.8,26.6,0.8c4.8-0.4,3,5.2,9.7,3.4c2-0.6,9.3,11.1,11.5,9.7c12.1-8.3,5.6,1,6.4,12.1
		c0.6,8.1,3,13.9,10.7,15.7c6.2,1.6,9.7,4,4.8,8.7c-4.8,4.4-13.9,7.5-4.2,14.5c4,3-4.8,8.9-5.8,11.9c-1.2,3.4,7.2,7.5,3,10.5
		c-8.9,6.6-6.2,11.7,6.4,10.7c7.9-0.6,6.2,6.2,2,9.1c-8.9,6.4,7.5,20.7,10.5,38.9c2,11.5,19.7-4.8,18.5,15.3
		c-0.4,8.1,4.4,21.3-1.6,27.6c-5.6,6-6.2,11.5-6.8,19.7c-1.2,17.1-24.8,0.4-23.4,18.3c0.4,4,11.7,7.9,2,9.9
		c-6.6,1.4-11.9-1.6-13.5,6.2c-1.2,6,7,6,1.6,10.9c-6,5.4-13.5-0.8-20.9,0.6c-5.2,1,3.8,22-4.8,14.1c-10.7-10.1-18.1,5.8-8.3,15.3
		c-0.4,8.1-9.7,7.5-10.9,25.8c-0.8,10.3-5.6,15.5-12.7,22.4c-4.4,4.2,6.6,11.1,6.2,16.9c-2.2,26.2-2.6,25.4-15.9,19.3
		c-7.2-3.2-12.7,10.3-21.3,5.2c-23.4-14.3-32.6-7.7-52.6-5.8c-12.7,1.4-12.9,7.5-7.7,16.7c8.1,14.3-24,18.5-7.3,33.8
		c6.4,6-1.4,17.7-10.7,17.7c-5.2,0-17.1-5.4-18.7-0.2c-3.2,10.1-7,12.5-16.1,11.1c-18.3-2.8-8.5,4.4-11.5,10.3c-3,6-7,5.8-6.8,13.5
		c0.2,8.5,8.9,11.5,5.2,22"/>
	<path id="_Trace_19" fill="none" stroke="#4C9ECC" stroke-width="3" d="M3104.3,372c-1-26-5.4-16.1-8.9-27.4
		c-1.6-4.8,4.4-11.1,1.2-14.5c-4-4.4-5-7.7-3.2-15.1c3.2-12.9-1.4-23.2-3.4-35.2c-1.8-10.9,6.6-7.2,10.7-9.5
		c7.7-4.8,6.4-16.5-0.6-21.8c-4-2.4-4.4-11.9-1-14.5c5.4-4.2,17.7-4.8,22.2-0.6c4,3.6,9.5,8.7,11.9,1.8
		c6.6-18.9,23.6-53.4,30.6-49.7c7,3.8,4.4-5.2,14.7-5.2c7.7,0.2,13.1,4.6,21.1-6.4c3.2-4.4,12.1,1.6,16.5-1.4
		c6-4.2-0.8-17.3,6.4-21.7c10.7-6.6,4.4-21.1,3.2-30.6c-0.6-3.6,8.7-0.2,17.5-13.1c6-8.7,7.7-21.8,5.6-32c-1-4.8-10.7-6-12.5-10.3
		c-4-9.7-0.4-14.7-7.3-14.9c-7-0.2-5.6-2.4-6.2-9.9c-0.6-6.4-5.2-11.1-6.6-19.1c-2.6-15.3-3.4-16.1-20.1-12.5"/>
	<path id="_Trace_20" fill="none" stroke="#4C9ECC" stroke-width="3" d="M2822.2,23.6c-7.7,7-11.9,10.3-27.6,9.9
		c-5.2-0.2-10.7,1.8-14.1,6c-12.7,16.9-13.1,3-33.4,15.3c-18.1,10.7-18.5,26.4-32.2,37.1c-11.1,8.5-23.4,20.3-37.1,25.6
		c-9.1,3.6-19.7,10.1-31.2,9.5c-4.8-0.4-3.2,6.6-8.3,5.8c-4.8-0.8-7.2-1.4-11.7-2.4c-4.6-1-9.9,5-16.1,5.8c-8.9,1.2-5.6,8.7-20.3-1
		c-1-0.6-15.5-2.2-17.9,2.4c-6.6,12.5-1.4,21.8-3.4,32.8c-1.2,6.6-4,7.9-10.1,8.7c-16.3,2.6-9.7,15.9-16.9,28.2"/>
	<path id="_Trace_21" fill="none" stroke="#4C9ECC" stroke-width="3" d="M2523.7-105.7c10.3,14.9-5,30.4,3.2,39.9
		c5.2,6.2,16.7-5,25-7.3c7.2-2,10.7,1.2,4.2,7.3c-5.8,5.4-9.5,9.3-10.3,17.1c-0.8,7,5.8,8.3,9.3,2.6c5.4-8.5,11.7-18.3,22.2-13.7
		c4.8,2,4.6,7.5,7.3,4.8c4-3.8,1.4-6.6,5.4-13.3c3.6-5.8,8.1-6.2,9.1,0.6c0.6,3.6-4,14.1,1,11.9c0.4-0.2,2.8-9.3,3-10.1
		c1.4-4.2,13.3-5.4,9.3,1c-3.4,5.4-5.2,10.1,1,10.3c10.7,0.4,10.5-3,9.5,2.8c-1.8,11.1,16.3-1,25-6c4-2.4,0.6,12.7,7.2,14.3
		c7.7,1.8,16.5-5.8,18.7,6.2c0.6,3,3.4,3.8,3.6,8.3c0.6,12.5,13.1-7.9,23-3.4c10.5,4.8,20.3,16.5,31,16.5c5.8,0,5.2,3.8,26,6.6
		c3.6,0.4,10.1-0.6,8.3-3.2c-3.4-5-0.2-7.3-0.8-10.9c-3.2-20.7,10.9-17.1,10.5,5.2c-0.4,10.5,11.5-7.9,11.9-12.5
		c1.2-10.3,7.2-0.8,9.9,6.4c1,2.6,18.7-8.7,19.3-11.7c1.8-8.5-12.5-7.9-1-26c2.8-4.4,8.9,2.8,13.5,3.2c5.2,0.4,3.8-6.2,2.4-7.5
		c-6.6-6.8,4.4-11.1,11.1-15.7c3-7.3-7.3-16.7,9.3-16.7c19.5,0.2-0.6-15.3,0.8-19.3c1.6-4.8,9.3-6.2,10.1-12.9
		c-0.2-15.9,10.1-22,10.3-33.8c0.2-7-12.3-7.5-8.7-14.9c6-12.7,17.9-3.6,11.9-28.2c-7.7-31.6-7.3-41.1,6.8-64.2
		c4.8-7.7,15.1,1.4,21.8,3c8.9,1.8,21.8,6,27.8-1.6c8.7-10.9,0.8-28.4,4.4-37.9c5-12.7,31.6-28.2,47.9-37.3
		c8.5-4.8,10.5-15.3,10.3-23.8"/>
	<path id="_Trace_22" fill="none" stroke="#4C9ECC" stroke-width="3" d="M2399.2-331.4c12.3-16.5,24-11.7,27.8-14.7
		c8.1-6.8,17.1-15.1,23.6-24.2c1-1.6,18.3-5,20.5-5.4c3.2-0.8,9.3-6.6,12.1-7.3c9.7-2.6,26-1,28.2-2c28.6-12.7,19.5-7.3,34.8-10.3
		c18.5-2.4,16.1,7.7,16.7,23.2c0.6,15.7-5.8,26.8-17.1,36.7c-11.7,10.1-9.5,25-3.6,35.4c2.6,4.4,9.5,3,12.5,7.7
		c7.3,12.1,17.7,16.9,31.6,16.7c14.1-0.2,21.3-5.4,35,9.1c21.8,23.4,36-8.3,65.1-20.1"/>
	<path id="_Trace_23" fill="none" stroke="#4C9ECC" stroke-width="3" d="M5251.8,905.7c21.3-3.8,28.2-1.4,36-8.9
		c4.8-4.8,9.1-8.9,15.7-28"/>
	<path id="_Trace_24" fill="none" stroke="#4C9ECC" stroke-width="3" d="M4799.1,932.1c35.2,1.2,44.7-4.2,57-16.3"/>
	<path id="_Trace_26" fill="#FDF8EE" stroke="#4C9ECC" stroke-width="3" d="M3403.8-818.2c0.6,2.2,1.2,4.6,2.8,6.2
		c6.2,6.4-4.4,4.2-4.2,6.2c0,0.4,6.4,2.6,2.8,8.3c-1.2,2,1.4,8.7,1.4,8.9c0.8,2.8,3.8-4.4,6.2-6.2c2.8-2,2.6,7.2,5-2
		c1-3.8-1-5.2,2-8.9c2.2-2.8-5.8-2-8.3-2c-12.9,0.8,9.9-1.4,9.1-5.4c-0.6-3.2,8.5-11.3-0.2-8.3c-3.6,0-2.6,1.8-6,3.4
		C3411.1-816.4,3403.2-820.6,3403.8-818.2z"/>
	<path id="_Trace_27" fill="#FDF8EE" stroke="#4C9ECC" stroke-width="3" d="M2598.2-689.5c-3.2,1.8-12.9,3.6-6.4,7.5
		c1.4,0.8,6.2,0.8,7.9,2.8c2.6,3,4.4,3,8.1-0.8c5.2-7.2,3-1.8,8.1,0c4.8,2.4,7.7-2.6,9.1,3.4c6.2,6.6,1.4-5.6,2.8-8.1
		c1.4-4.4-2.4-1.4-4-1c-9.7-0.6-5.2-7-12.1-8.1c-2.6-0.6-1.8,4.2-7.5,0.6C2600.8-695.9,2600.2-690.9,2598.2-689.5z"/>
	<path id="_Trace_28" fill="#FDF8EE" stroke="#4C9ECC" stroke-width="3" d="M1948.9-235.4c-7.5,1.6-10.5,8.9-14.7,13.9
		c-1.8,1.8,6.4,5.4,6.4,0c0-3.4,4-3.4,7-5c3.2-1.6,3.8-4.4,6.2-7C1955-234.7,1950.7-235,1948.9-235.4z"/>
	<path id="_Trace_29" fill="#FDF8EE" stroke="#4C9ECC" stroke-width="3" d="M1851.1-282.5c-1.2,4.4,6.2,5.4,9.7,6.2
		c5.2,1.2,1.4-0.6,1.4-5C1858.9-289.3,1856.5-291.7,1851.1-282.5z"/>
	<path id="_Trace_30" fill="#FDF8EE" stroke="#4C9ECC" stroke-width="3" d="M1714.1-344.1c3.2-5.2,6.2-9.7,12.5-11.1
		c4.6-3.4,10.1-5.6,15.9-6.2c2.6,0-2-4.8-1.4-7.5c14.7-4.8,11.1-4.4,24.2-1.4c2.2,0,2-7.5,2-9.7c7.3-5.2,9.5,4.8,14.5,4.2
		c11.9-3.2,0.6,9.3-1.4,12.9c0.4,4.2,15.5,1.4,19.5,2.2c5,7.7-14.9,9.5-18.5,11.9c-2,5.2-7,9.5-9.3,4c-17.9-0.8-11.5,10.3-16.7,13.9
		c-8.3,0-19.5,9.7-22-2c7.7-3.4,17.3-5.4,21.5-13.1c0.2-6-11.5-6.2-14.5-1.4c-4.8,5.4-9.3-2.8-13.1,5
		C1723-340.7,1717.9-341.3,1714.1-344.1z"/>
	<path id="_Trace_31" fill="#FDF8EE" stroke="#4C9ECC" stroke-width="3" d="M1931.6,128c1.6,1.6,1-6.2,3.4-6.2c3.8,0,5.4,2.6,7,4.2
		c2,2,4.8,3,7,4.2c2,1,2.8,5,4.2,6.2c3,3-3.4,4.4-5.6,2c-2.2-2.4-5.4-3-7.5-4.2c-1.6-0.8-3.8-4.4-5-5.6
		C1934.2,128,1932.8,128.2,1931.6,128z"/>
	<path id="_Trace_32" fill="#FDF8EE" stroke="#4C9ECC" stroke-width="3" d="M3008.3,583.1c2.8-6,11.9-9.9,18.3-6.2
		c5.6,3.2,7.3,3.4,12.1,3.4c7.3,1.6,8.1,0.2,13.9,8.3c1.4,3,8.3,1.2,10.3,0.8c7.3-2,5-4,15.3,2.8c2.4,5.4,7,1.8,6,8.3
		c-1.8,14.1-2.8,9.9-11.7,9.7c-0.8-0.2-3.6-6.4-4.2-7c-1.8-1.8-3.6,6-6.2,6.6c-8.7-1-4.2,6-13.9,4.6c-4.2-7-6.2-6-14.5-7.5
		c-5.2,0-0.2-5.2,1.4-5.6c3.2-0.8-14.3-2.4-16.9-4.2C3012.3,592.4,3008.7,590,3008.3,583.1z"/>
	<path id="_Trace_33" fill="#FDF8EE" stroke="#4C9ECC" stroke-width="3" d="M3223.6,880.8c0.2-0.2-0.2,9.5,2,8.9
		c5.8-1.6,9.7,4.8,14.7,4.2c6-0.8-3.4,7-0.4,13.1c0,6.2,3.2-4.4,3.4-5.6c1.2-4.8,11.7-1,13.7,1c8.7,11.7,5.4,2.8,18.9,9.3
		c9.7,6.4,10.9-14.3,16.7,7c1.6,5.8,5.4,7.2,7.7,12.9c3,5.8-5.8,7.2-1,11.9c5,7.9,10.7,7,21.7,9.9c4.6,4.2,6,9.5,11.3,11.5
		c9.7,3.8,20.1-1.6,29.2-1.4c3.2,0.2,17.9,11.5,1.2,13.7c-1.4,9.5-1,7.7-7.9,12.7c-2.8,2.8-1.4,4.4-0.6,5.6c3.2,6.8-7,2-10.3,10.7
		c-7.7,1.8-4-1.2-5.8-4.2c-12.3-2.6-11.7-5.4-19.9-8.7c-2.4-0.6-3.8,3.6-6.2,4.2c-19.9,2-1-3.8-15.3-5.6
		c-12.9-0.2-12.9-12.1-22.8-8.3c-3.2,3.2-0.2,5.2-5,6.2c-3.2,1-6.4,1.4-9.7,1.4c-1.2,0-0.8-8.5-0.8-9.7c-7.9,6.4-6.6,6.2-17.9,8.3
		c-5.8-2.8,0.2-14.3-7-10.3c-9.7,3.6-2.4-6.6-11.7-8.3c-1.6-0.4-1.8-8.9-2-9.7c3.2-3.4,7.2-5.6,11.7-6.2c6-2.8-12.5-7.9-14.1-9.7
		c-4.4-2.6-4.2-13.1-6.6-16.5c-0.2-0.2-2.2-8.1-4.4-10.3c3-5.2-0.6-10.5,1.8-17.5c0.4-1.2,14.5-1.2,14.5-0.6c0,1.2-7.5-1.6-6.2-9.5
		C3216.1,887.2,3219.5,882.6,3223.6,880.8z"/>
	<path id="_Trace_34" fill="#FDF8EE" stroke="#4C9ECC" stroke-width="3" d="M3502.1,929.3c-2.4,0.4,5.6,6,4.2,8.9
		c-1.4,2.8-4,4.4,0,7c7.5,5,0.8-0.4,14.5-3.4c7.9-4,0.4-20.7-0.8-10.3c-1.4,2.8-5.4,2-8.9,2C3505.1,933.5,3505.1,928.7,3502.1,929.3
		z"/>
	<path id="_Trace_35" fill="#FDF8EE" stroke="#4C9ECC" stroke-width="3" d="M3421.7,866.9c-2.8-0.8-1.8,8.3,1.2,8.3
		c5.2,0,5.8,0.2,7.2,5c1.8,5.6,10.5,6.4,16.3,6.2c4-0.2,5.2,3,5.2,7c0,5,4.8,2.2,6.2,1.4c1.4-0.6-3.4-9.3-3.4-9.7
		c-0.4-4.2,6.2-4.4,8.7-8.1c2.4-3.2-9.9-0.2-14.9-0.8c-6-0.6-8.3,0.8-13.9-3.8C3430,866.7,3428,868.5,3421.7,866.9z"/>
	<path id="_Trace_36" fill="#FFFFFF" stroke="#4C9ECC" stroke-width="3" d="M3529.1,648c-1.6,0.8,1.8,7.9,1.4,9.7
		c-1.4,4.2-3,8.3-5,12.5c-0.2,5.2-0.6,6.6,1,11.9c1.2,2.2,1.4-5.6,3.8-5.6c10.1-0.4,1.2-3.2,1.8-10.1c1.4-8.1,3.2-7.7,5.2-14.9
		c1.4-8.3,4-1.4,8.9-0.8c6.4,0,9.9-1.8,7.5-4.2c-7.7-2.6-12.3,3.8-11.5-7.7c0-3.8,6.8-9.7,1-9.7c-1.4,0-5.6,7.5-6,8.3
		c-1.8,3.6-5.2-5.4-5.2,2.8C3532.5,644.3,3532.3,645.7,3529.1,648z"/>
	<path id="_Trace_37" fill="#FFFFFF" stroke="#4C9ECC" stroke-width="3" d="M3563.7,648.4c-0.2,1,5.6-4.4,8.3-6
		c2.8-1.6,5-7.2,5-10.3c0-3.2,3,4.8,6.2,5.6c7.7,1.6,2,2.8-5.2,8.7c-3.2,6.6-4.2,8.1-8.3,12.9c-4.4,5-5.8-3-2-7
		C3569.1,650.8,3563.9,646.3,3563.7,648.4z"/>
	<path id="_Trace_38" fill="#FDF8EE" stroke="#4C9ECC" stroke-width="3" d="M4015.8,1332.9c7.9-1.4,14.9,10.3,21.5,6.6
		c5.4-3-4-10.1-2-14.9c4.4-10.5-9.9-14.9-20.1-19.3c-8.3-3.6,3.8-10.7-18.3-7.7c-4,0.6-4.2,0.8-7.5,0c-2.4-0.6-5.2,3.4-8.9,3.4
		c-3.6,0-4.8-1.8-9.3-0.8c-3.4,0.8-10.3-0.6-2.4,3.8c2.2,1.2,3,2.8,5,4.6c3.6,3.6,8.7-3.8,7,3.4c-0.8,3.2-1.4,6.4-1.4,9.7
		c0,5-0.8,5.2-4.2,7.5c-6.8,4.8-6.2,13.9,4.2,17.3c8.3,2.8,8.1,7,13.1,13.7c6.4,8.3,3,17.3,15.3,17.3c7-2.6,7.3-5.2,10.7-11.1
		c1-1.8,7.5-6,7.9-7.9c0.8-3.6-1.2-6.6-2-9.7c-1-4,3.6-2.8,1.4-7c-1.8-3.4-6.2,3.6-6.2-4.2
		C4019.3,1334.7,4014.6,1333.1,4015.8,1332.9z"/>
	<path id="_Trace_39" fill="#FFFFFF" stroke="#4C9ECC" stroke-width="3" d="M4451.9,1200.6c4.2-0.2,3-8.3,4.6-8.9
		c5.2-2,11.7,1.2,17.1-3.2c3.2-2.4,8.5,1.8,13.1,3.4c3,1-3.8,5.2-2.8,7.9c2.8,8.3,6.6,0.6,6.2,12.1c-0.2,2.4-6.6,6.2,2.8,6.6
		c10.7,0.6,10.5,10.7,2,11.1c-5.6,0.2-7,4.8-8.1,5c-6,0.2-17.3-1-18.3,1c-0.8,1.6,14.7,0.2,14.7,4.4c0,5.2-2.6,7.3-8.1,7.3
		c-9.1,1.8-1.4,7.2-0.2,12.1c-2.6,6.2-8.7-3.8-10.3-7c-1.6-3.2-4.2-2-8.3-2c-4.8,0-8.9,1.4-7.9-3.2c1.8-7.3-6.8-0.4-7.5-10.3
		c-0.8-8.1,14.1-9.5,6.6-10.3c-5.4-0.6-12.3-4.8-12.1-8.3c0.8-3,7.9-1.6,9.7-4.2c3.4-5,14.5,0.4,10.3-1.8
		c-5.2-2.6-10.3-3.6-13.5-8.9C4440.6,1198,4448.4,1200.8,4451.9,1200.6z"/>
	<path id="_Trace_40" fill="none" stroke="#4C9ECC" stroke-width="3" d="M4335.5-840.7c1.2,1,1,5.2,1,8.3c0,0.6,4.8,1,5.2,3.2
		c0.8,3.4,1.8,3,4.8,1.6c2-0.8,4.2-1.6,6.2-2c3-0.8-0.6-4.2-3.2-4.2c-3,0-3.4-2.8-4.8-5.2c-0.6-1.2-4.6-2.2-6.2-2.6
		C4337.5-841.8,4328.4-840.7,4335.5-840.7z"/>
	<path id="_Trace_41" fill="#FFFFFF" stroke="#4C9ECC" stroke-width="3" d="M2680-243.4c0.2-0.8,7.3-0.8,9.9-2
		c2.8-1.4,6.4-1,8.7-1.6c4-0.8,2.8-5.8,5.8-7.2c3-1.4,1.2,4,3.2,5.2c3.2,1.6-7.5,9.1-3.8,7.7c17.1-6.6,11.9-5,11.7,3.6
		c-0.2,3,4,4.4,5.2,7.2c1.8,4.6,3.4,7.5-4.8,7c-3.2,0-5,1.2-7.7-0.4c-2.6-1.2-3.6-0.6-6.2-1.8c-2.4-1.2-6.2-2.4-7.3-4.4
		c-3.2-5.8-7.5-2.2-8.1-3.8c-1-1.8-0.4-5.8-4.8-6.2C2680.4-240.4,2679.8-242.6,2680-243.4z"/>
</g>
<g>
	<path id="path2458" fill="#FFFFFF" stroke="#E5A923" stroke-width="3" d="M4582.4,1050.3c0,6-4.8,10.8-10.8,10.8
		c-6,0-10.8-4.8-10.8-10.8c0-6,4.8-10.8,10.8-10.8l0,0C4577.5,1039.5,4582.4,1044.4,4582.4,1050.3z"/>
	<path id="path3238" fill="#FFFFFF" stroke="#E5A923" stroke-width="3" d="M4458.5,62.8c0,6-4.8,10.8-10.8,10.8
		c-6,0-10.8-4.8-10.8-10.8s4.8-10.8,10.8-10.8l0,0C4453.7,52,4458.5,56.9,4458.5,62.8z"/>
	<path id="path3258" fill="#FFFFFF" stroke="#E5A923" stroke-width="3" d="M2613.7,197.6c0,6-4.8,10.8-10.8,10.8
		c-6,0-10.8-4.8-10.8-10.8s4.8-10.8,10.8-10.8C2608.9,186.8,2613.7,191.7,2613.7,197.6z"/>
	<path id="path3268" fill="#FFFFFF" stroke="#E5A923" stroke-width="3" d="M3641.7,550.6c0,6-4.8,10.8-10.8,10.8
		c-6,0-10.8-4.8-10.8-10.8s4.8-10.8,10.8-10.8C3636.9,539.8,3641.7,544.6,3641.7,550.6z"/>
	<path id="path3348" fill="#FFFFFF" stroke="#E5A923" stroke-width="3" d="M4190.5-530.3c0,6-4.8,10.8-10.8,10.8
		c-6,0-10.8-4.8-10.8-10.8s4.8-10.8,10.8-10.8l0,0C4185.6-541.1,4190.4-536.2,4190.5-530.3z"/>
	<text transform="matrix(1 0 0 1 4033.9854 -491.0779)" fill="#65655F" font-family="'OpenSans'" font-size="39.7108">St-Malo</text>
	<text transform="matrix(1 0 0 1 2643.0322 205.6409)" fill="#65655F" font-family="'OpenSans'" font-size="47.653">Quimper</text>
	<text transform="matrix(1 0 0 1 3665.7754 561.3909)" font-family="'OpenSans'" font-size="47.653">Vannes</text>
	<text transform="matrix(1 0 0 1 4433.167 120.4915)" fill="#65655F" font-family="'OpenSans'" font-size="47.653">Rennes</text>
	<text transform="matrix(1 0 0 1 3686.3252 267.3616)" fill="#65655F" font-family="'OpenSans'" font-size="77.1232">Bretagne</text>
	<text transform="matrix(1 0 0 1 4605.0254 1061.1018)" font-family="'OpenSans'" font-size="47.653">Nantes</text>
</g>
<g id="trail-path" display="none">
	<path display="inline" fill="none" stroke="#7C5D27" stroke-miterlimit="10" d="M4221.5-578.7c0,0,3.2,21,0,30.6
		c-3.2,9.7-3,24-3,24c27.4,10,44.4,27,49.4,40s75.7,177.3,86.7,203s61.7,169,71,189c9.3,20,56,125.6,57.7,131.3l-11.9-1.6
		c0,0,2.5-4.5,6.1-4c3.5,0.5,5.9,5.6,5.9,5.6s-3.1,2.1-9.7,1c3.8,2.1,11.5,6.4,15.4,2s-3.4-12.5-8.3-12.5l2.6,9.5
		c0,0-1.6,23.4-7.5,23.4s-5.8-25-5.8-25"/>
</g>
<g id="camera-path" display="none">
	<path display="inline" fill="none" stroke="#EC2227" stroke-width="3" stroke-miterlimit="10" d="M4221.5-599.6
		c-8.3,26.9,254.9,583.3,256.3,642.9"/>
</g>
<g id="points" display="none">
	<circle id="Salle_de_la_Cit" fill="#F7B634" cx="1319.9" cy="528.6" r="1.5"/>
	<circle id="Hotel_de_Rennes_Mtrople" fill="#F7B634" cx="1322.8" cy="541.2" r="1.5"/>
	<circle id="Science_Po_Rennes" fill="#F7B634" cx="1325.3" cy="524.6" r="1.5"/>
	<circle id="Centre_ville_de_Rennes" fill="#F7B634" cx="1320.6" cy="528.6" r="1.5"/>
	<circle id="Vieux_Rennes" fill="#F7B634" cx="1321.7" cy="529.9" r="1.5"/>
	<circle id="Saint_Vincent_Providence" fill="#F7B634" cx="1326.6" cy="529.4" r="1.5"/>
	<circle id="Centre_ville_de_St-Malo" display="inline" fill="#F7B634" cx="4218.6" cy="-524.1" r="3"/>
	<circle id="cole_Nationale_de_Police" fill="#F7B634" cx="1194.8" cy="218.3" r="1.5"/>

</g>
</svg>
