<?xml version="1.0" encoding="utf-8"?>
<!-- Generator: Adobe Illustrator 19.2.1, SVG Export Plug-In . SVG Version: 6.00 Build 0)  -->
<svg version="1.1" id="Layer_1" xmlns="http://www.w3.org/2000/svg" xmlns:xlink="http://www.w3.org/1999/xlink" x="0px" y="0px"
	 viewBox="0 0 2040.5 1178.5" style="enable-background:new 0 0 2040.5 1178.5;" xml:space="preserve">
<style type="text/css">
	.st0{fill:#FDF8EE;stroke:#4C9ECC;}
	.st1{fill:none;stroke:#4C9ECC;}
	.st2{fill:#FFFFFF;stroke:#4C9ECC;}
	.st3{display:none;}
	.st4{display:inline;fill:#939598;}
	.st5{font-family:'HelveticaNeue-Bold';}
	.st6{font-size:5.1197px;}
	.st7{display:inline;fill:#A8AAAD;}
	.st8{display:inline;fill:none;stroke:#010101;stroke-miterlimit:10;}
	.st9{display:inline;fill:none;stroke:#EC2227;stroke-width:0.3;stroke-miterlimit:10;}
	.st10{display:inline;fill:#405B54;}
</style>
<g>
	<path class="st0" d="M1384.8-9.7l45.3,102.4c-1,9.3-5.9,10.6-10.1,14.7c-1.2,1-1.2,2.8-0.3,3.9c0.2,0.3,0.4,0.4,0.7,0.5
		c1.6,0.9,5.7,2,6.2,2.3c5.3,3.4,6.3,11.9,6.3,20.9c-0.1,12.8-1.9,19.2-1.3,22c0.5,2.6,5.7,6.1,7.5,6.4c1.7,0.4,4.6-1.1,6.8,1.2
		c3.6,3.4,5.3,11.5,8.6,20.6c1.4,3.8,6.4,2.7,7.5,3.2c4.9,2.7,9.6,3.5,12.9,7.4c1.5,1.8,0.4,5.6,1.9,7.1c0.5,0.5,2-3.9,5.5-6.4
		c1.3-1.1,7.1-2.2,8.6-2.8c2.8-1.2,8.6-6.1,9.4-7.6c-3.5,7.8-5.8,10.5-7.1,11.7c-1.6,1.6,0.9,3.3-1.2,3.9c-2.8,0.7,2.7,3.6,3.9,3.9
		c2.2,0.5,2.5-0.7,3.9-0.4c2.2,0.5,0.9,1.1,2.1,2.2c2,2,4.9,4.3,6.8,7.6c-2-1.3-3.5-2.4-4.8-3.7s-3.4-0.4-5.3-0.4
		c-1.2,0-2.3-1.5-3.6-1.8c-2.9-0.7-4.7,1.2-6.5,2c-1.4,0.7-4.1-0.3-5.5-1.2c0.4,2.8-3.6,5.8-4.7,6.4c-14.3,7.9-26.8,7.4-27,4.8
		c-0.4-4.8-3.4-4.1-7.1-4.3c-17.3-1.1-41,11.8-66.8,10.8c-5.5-0.2-18.6,0.7-28-2.1c-9.8-2.9-15.9-2.1-19.4-11.2
		c-0.9-2.4-4.9-4.8-4.5-6.4c0.4-1.2,3.2-7.1,3.5-10.5c0.3-3.2,2.6-0.8,5.5-2.8c1.9-1.2,3.9-3.4,3.8-5.1c-0.1-1.4-5.5-4.4-4.4-8.1
		c0.6-2.2,2.5-6.1,1.6-6.9c-0.8-0.8-7.6,4.7-9.8,7.4c-2,2.2-4.7-1.3-5.6-1.4c-1.2-0.2-3.9,4.5-5.9,4.4c-1.8-0.1-2-2.4-4.2-2.3
		c-2.1,0.1-1.1,1.3-3.6,1.3c-1.4,0-1.9-4.5-3.2-4.5c-1.2-0.1-0.1,3.1-1.2,4.2c-1.7,1.7-4.1-0.3-4.4,1.2c-0.4,2,3.2,2.5,5.4,3.9
		c-2.8-0.4-5.7,0.6-7.8-0.2c-2.5-0.9-0.4-3.9-6.4-0.9c-6.1,3.1-1.5,2.2-1.6,5.3c-0.2,4.1-9.1,8.9-13.4,10.3c-4.5,1.5-2,5.5-2,6.6
		c0,2.8-5.1,1.3,3.2,4.4c2,0.7,0.5,7.9,0.9,9.6c0.4,1.4,2.8,1.9,2,4.7c-0.3,1-1.4,2-1.5,2.9c-0.1,2.5,2.8,1.8,3.9,2.5
		c0.5,0.3,1.2,1.7,1.7,1.6c2.7-0.4,3.1-1.8,5.8-0.8c5.7,2,7.9,9,7.2,9.3c-1.4,0.4-3.7-5.5-8.1-4.6c-0.9,0.2-1.4,0.1-1.7,0.4
		c-0.5,0.5,2,1,2.3,6.1c0.1,0.7,3.4-0.8,2.6,5.4c-0.2,1.3,4.3,1.3,4.2,3.9c-0.1,0.7-0.4,2.9-0.5,3.2c-0.4,0.6-0.3,3.9,0.3,4.4
		c1,0.8,3.8,0,3.7,2.2c-0.1,1.8-0.3,3.2,0,4.1s1.9,2.3,4,3.9c-2.8-0.8-3.6,0.6-4.9-0.4c-0.6-0.4-1.7-4.8-3.7-3.1
		c-3.1,2.8-0.4,5.9,0.2,6.5c-1.6-0.7-4.6,0.5-5,1.2c-0.4,0.6-0.2,6.2-1.6,7c-0.5,0.3-2.7,0.4-2.6,0.8c0.4,1.6,0.4,5.3-3.2,2.4l0,0
		c0.5,0,2.9,0.4,2.2-0.4c-0.1-0.1-1.1-2.5-0.2-2.9c0.6-0.4,3.1,0.1,3.1-0.8s-1.3-5.9,0.1-6.6c0.5-0.3,3.4-1-0.3-2.5
		c-0.7-0.3-2.6-6.3,0.1-3.8c1.8,1.6,5.7-4.2,5.9-5.5c0.2-1.9-0.8-3.6-3.8-3.6c-0.7,0-3.2-1.1-3.2-1.4c-0.3-0.9,1.4-0.7,1.4-1.8
		c0-1.1-3.4-0.7-3.7-1.8c-0.3-1.1,0.4-4.6-0.8-6.3c-1.2-1.7-3.7,1-6.2-3.2c-0.6-1.1,7.9-3.2,7.3-4.3c-0.2-0.4-2-1.5-2.8-3.4
		c-0.5-1.1-4.3-0.7-5.2-1.4c-0.8-0.7-1.2-2.2-1.4-2.8c-0.2-0.8-1.4-1.2-1.6-1.7c-0.3-1.1,2.1-2.6,2-3.2c-0.9-5.5-1.1-9.9-3.6-11.4
		c-2.2-1.2-2.6,0.6-5.4,0.6c-2.3,0-1.1-4-2.8-5.5c-5.8-5.1-12.6-0.8-17.5-1.5c-2-0.3-1.3-3.2-4.6-2.7c-7.6,1.4-7.1,5.9-12,4.6
		c0.2,5.7,5.8,5,7.1,6.8c0.7,1.1,1.2,6.2,1.4,7.9c-3.2-1-6.2-4.7-7.9-4.1c-1.2,0.4-2.8,3.6-5.5,3.7c-1.6,0.1-1.9,4.8,0.3,5.9
		c1.8,0.9,3.1,0.4,3.1,2.8c0,1.5-2.9,2.4-3.2,3.6c-0.4,1.2,1.4,3.8,0.2,3.9c-4.8,0.8-8.2-3-8-4.3c0.4-3.5,1-12.2-1.2-12.3
		c-3.3-0.3-0.7,4.8-1.5,8.6c-0.4,2-1.2,1.7-2.4,2.8c-1.9,2,0.3,5.1-2.2,5.1c-2.1,0-1.2-7.9-2-9c-1.2-1.8-3.7-0.2-4.3-1.5
		c-2.3-4.6,3-8.6-6.3-10.4c-1.7-0.4,0.8-4.2-2.1-8.6c-1.2-1.8,1.2-6.2,1.4-6.8c0.5-1.2-5.2,2.4-8,1.5c-0.8-0.3-5.7,2.5-6.3,4.9
		c-0.4,1.5-1.2,3.1-1.4,4.3c-0.5,2-2.1-1.8-3.5-1.2c-1.3,0.6-2.3,4.8-2.8,5.7c-0.7,1.5-3.9,2.5-4.7-1c-0.2-0.9-6.5-0.4-5.6-2
		c0.6-1.2,9-5.2,9.2-8.6c0.4-8.6,10-14,9-15.7c-0.5-0.9-5.6-0.4-8.7-1.4c-2-0.7-0.2-5.5-2.1-7.7c-1.1-1.3-3.3,0.6-3.5,2.2
		c-0.2,1.5-1.8,4.8-4.6,7.7c-3.9,3.9-15.3,7-17,7.4s-0.4,4.1-4,5.7c-2,0.9-5.8-2-5.2,0.4c0.9,3.1-2.2,6.4-3.1,5.5
		c-0.6-0.6,1.3-6.9-0.6-8.8c-3.5-3.6-9.1-2.8-12.3-1.4c-1.9,0.8-10.6-0.1-9.9,3.4c0.5,3.3,4.7,2.5,5.4,3.2c1.8,2.5-5.7,14.5-15.1,17
		c-1.4,0.4,1.4,3.9-8.6,3.9c-1.8,0-4.8-1.7-5.5,0.6c-0.4,1.7-3.1,4.7-5.5,5.9c-1.6,0.8,3.5,1.9-2.4,4.4c-3.5,1.6-8.8,11.4-18.9,18.8
		c-1.2,0.9-1.5,4.8-0.9,6.2c0.7,1.5-4.2,0.3-8.4,0.2c-1.7,0-3.7-4.8-5-4.8c-1.8,0-3.3,0.6-3.9,1.8c-0.6,1.2,1.1,7,1.4,7.9
		c1.1,2.9-0.7,6.8-1.8,7.3c-1.7,0.8,3.2,7.1,1.3,7.1c-2.1,0-8.3-14.4-13.9-19.7c-0.2-0.2,2.3-2.4,2.6-2.7c0.9-0.9-2.9-0.9-3.1-1.3
		c-2.7-7.1,3.1-11.4,1.2-11.6c-1.8-0.3-17.6-4-20.7-8.4c-0.3-0.4-0.1-5.5-3.2-5.5c-2.2,0-11.4-4.3-11.7-6.7
		c-0.2-1.5,1.2-10.1,0.4-11.5c-4.2-7.9-2.9-16.7-3.5-17.4c-0.3-1.2-2.9-2.1-4.1-3.1c-1.2-1.1-0.2-2.9-1.3-3.2
		c-5.6-1.3-4.1-5.8-5.3-6.1c-1.1-0.3-2.1,3.5-8.8,1.8c-1.4-0.4-0.2-5.7-1.3-6.5c-1.6-1.2-0.9-5.6-1.3-6.4c-0.3-0.5-3.5,0.8-5.6-0.1
		c-2-0.8-6.5-4.1-7.3-4.9c-0.8-0.8-0.6-4.4-1.2-5.3c-0.8-1.7-4.3,1.7-4.9-0.9c-0.4-1.4-3.2-3.1-1.5-3.6c4.8-1.6,3.9-3.2,4.1-4.1
		c0.4-1.8-1.7-3.2-2.2-4c-0.8-1.2,5.1-3.7,3.9-5.5c-0.9-1.3-5.4,0.3-5.4-2.8c0-1.5-0.8-4.4-2.7-4.7c-0.8-0.2-1.3,4.7-11.8,3.8
		c-1.5-0.2-6.2-3.1-7.9-2.8c-3.6,0.5-7-2.7-6.8-5.1c0.1-1.1,4.7-1.2,5.4-1.2c3-0.7-5.5-1.1-5.9-1.5c-1.2-1.2-4.3-4.9,1.3-3.9
		c0.4,0.1,2-3.3,2.1-4c0.2-0.6,5.6,0.4,5.9-0.6c0.5-2-4-3.8-4.8-5.5c-1-1.9,2.5-2.3,2.4-4.3c-0.2-2.4-5.7-0.2-8.7-0.2
		c-1.2,0-4.9,1.6-6.1,1.9c-1.8,0.4-2.8-1.3-0.9-2.8c1.2-0.8-3.1,0.2-3.7,0.1c-2.4-0.3-2.2,1.3-3.5,2.2c-3.2,2.1-4.4,5-4.9,8.3
		c-0.7,4.1-1.6,16.5-6.3,17.4c-3.5,0.6-2.7,5.4-6.9,6.3c-1.8,0.4,2.3-2.9,1.5-8.2c-0.2-1.2,4.8-3.6,5.5-4.7c1-1.9,2.8-5.9,2.8-7.6
		c0-1.6,0.2-3.2,0.5-4.7c0.4-1.7,2.5-2,2.5-3.3c0.2-5.4,3.3-4.3,3.2-5.5c-0.9-4.3,4.5-5,4.4-6.1c-0.3-1.9-7.7,1.7-9.8-0.9
		c-0.8-1.1,4.4-4,4.4-6.5c0-1.9-2.5-4.7-2.8-6c-0.5-2.1,3.2-1.2,5.5,0.9c0.4,0.4,0.1-5.2-4.7-5.5c-1.5-0.2-6.1,1.3-9.3,0.4
		c-0.6-0.2-2.2,1.7-4.1,1.4c-1.2-0.2-0.5,2.2-1.6,2.8c-1.8,0.9-4.2,3.4-7.8,3.4c-2,0-1.8-1.2-3.9-0.4c-0.8,0.4-2,2.9-2.1,3.5
		c-0.4,3.2-3.9-2.3-5.2,2.1c-0.4,1.5-1.2,5.5-2.8,6.7c-1.2,0.8-0.5,2.9-0.7,4.8c-0.7,5-9.1,13.3-10.5,12.1c-2-1.8,6.3-6.9,6.8-9.2
		c0.3-1.3,3.6-10.2,1.1-12.4c-0.6-0.5-4.6,1.6-5.1,0.4c-0.8-1.8,3.5-3.6,1.7-13.8c-0.2-0.6-1.7-1.1-3.4-3.3
		c-1.2-1.6-0.4,1.9-3.1,1.4c-1.2-0.2-0.9,3.7-4.2,4.6c-1.9,0.4-1.7,4.5-3.7,5.5c-1.8,0.9,0.5,7.6-3.9,6.2c-5.2-1.7-2.5-3.2-4.6-3.9
		c-2.7-0.8-3.1,5-4.5,6.6c-0.8,0.9-2.3-3.2-3.6-3.2c-5.2,0.3-4.8-3.6-7.4-0.2c-0.8,1.2-3.7,5.5-5.6,4.7c-1.2-0.4-6.5,2.8-8.2,2.8
		c-1.9,0-0.4,3.9-8.6,3.1c-1.3-0.2,0.3,5.5,0,6.7c-0.2,0.7-6.1,3.9-16.8,0.7c-4.1-1.2,2.9-7.1,2.4-9.1c-0.5-2.1-9.3,0.2-7,0.1
		c1.4-0.1-2.9,0.6-4.4,0.1c-6.4-2.4-4-9.4-8.3-9.3c-2.4,0.1-2.4,4.9-4.6,4.9c-5.8,0-0.7-4-1.6-5.7c-0.4-0.9-4.9,2.9-5.4,4.9
		c-1.3,5.7-7.4,2-8.4,3.3c-1.2,1.6,1.2,1.7,1.2,2.8c0,1.7-3.1,0.9-3,2c0.1,2.2,5.1,1.5,3.3,4.4c-2.5,4.2-10.5-2.6-12.6-0.9
		c-1.5,1.2-1.8,1.2-3.9,1.2c-2.7,0,1.6,7.9,0.9,17.2c-0.2,2.1-4.1,1.1-1.2,2.2c5.1,1.9,2.1,2.9,2.2,3.3c0.4,0.9,4.9-0.8,5-0.1
		c0.6,4.8,7.5,8.1,6.4,8.7c-5.3,3.2,0.8,2.4,0.4,3.7c-0.2,0.7-9.3,6.3-10.6,6.6c-1.7,0.4-3.7,1.6-3.3,3.2c0.4,1.3,2.3,4.1,0.7,6.4
		c-0.5,0.7,1.9,4.4-0.5,6.8c-1,1,3.6,2.5,4.9,2.5c0.4,0-2.3,9.2-14.5,8.6c-2.3-0.1-1.3-6.3-2.3-7.3c-3.4-3.7-2.8,1.4-6.3,0.5
		c-1.6-0.4-0.5,1.2-0.5,3.1c0,2.1,0.7,1.9-1.2,0.9c-0.6-0.4-5.2-1.6-5.6-3.9c-0.3-1.4,2.9-1.8,2.9-3.5c0-1.9,0.5-3.1-1.5-3.1
		c-1.7,0-6.3,3.5-7.7,3.9c-4.7,1.8-4.3-3.9-10.4-1.6c-1.2,0.4-0.9-3.2-2.5-3.6c-1.3-0.4-3.2-0.4-2.5-3.3c0.7-2.6-1.6,1.1-3.1-0.9
		c-3.8-2.5-5.9-0.9-7.7-0.9c-1.7,0-3.3,0.3-4.9,0c-4.1-0.7-5.5,3.5-8.3,3c-4.3-0.9-4-7.5-7.8-5.2c-0.1,0.1-2.8-2.6-3.1-2.8
		c-1.9-1.9-1.2-0.4-1.2,1.9c0,1.3,1.2,2.6,1.5,3.3c1,2-0.3,2.1-1.9,2.2c-5.7,0.3-0.7-4.1-3.3-4.6c-1.5-0.3-0.8,2.4-3.2,2.6
		c-2,0.2,1.2,3.1,0.1,4.1c-1.2,1.2-2.8,0.4-3.9,1.9c-3.6,4.1,0,5.5-0.1,8.7c-0.1,1.7,1.5,4.1,1.1,6.6c-0.4,2.1-2.8,0.6-2.8-0.1
		c0.8-6.9-0.5-1.6-3.7-4.2c2.7,6.9,2.7,9.7,2.7,11.4c0,1.2,2.3,4.2,2.5,5.5c0.8,4.6,2.2,4.3,3.1,5.3c1.1,1.1,10.6,1.2,11.1,1.2
		c1.9,0-9.8,0.6-11.2,0.4c-3.1-0.4-6.9,9.5-6.9,6.3c0-1.3,1.7-5.5,0.8-7.6c-1.5-3.7-3.3-2.5-5-2.8c-1.2-0.4-0.8-1.5-7.1-3.5
		c-1-0.4-3.8-7.1-3.8-9c0-2,2.7-3.1,3.7-4.4c0.9-1.2-6.1,0.7-7.1-2.3c-0.5-1.8-4.1,3.1-4.5,3.7c-0.6,1.2-0.2,3.5-1.7,4.3
		c-2,1.1-1.8-2.3-3.1,0.4c-2.4,4.5-5.3,2.8-6,2c-0.8-1,2.9,0.3,1.2-7.9c-0.4-1.6,2.6-2.1,2.2-3.5c-0.5-2.6-3.2-3.2-4-6.8
		c-0.7-3.1-3-1.2-3.9-4.1c-2.3-7.8,1.9-12.2,1.5-13.5c-0.5-1.8-3.9-0.7-5.8,0.5c-1.3,0.9-5.7,4.7-7.1,4.7c-1.8,0,0.2-3.1-1.2-3.7
		c-1.2-0.6,1.4-3.6,0.1-3.4c-1,0.2-1.6,5.7-3.7,7.5c-2.1,1.7-6.3-0.3-6.9-0.8c-1.2-1.2,1.2,4-2.3,5.3c-1.9,0.7-3.3-2.1-3.6-1.7
		c-4.9,10.1-0.4,8.6,5.6,10.3c-7.1,0.5-10.5,0.2-9.8,0.9c3.9,3.9,4.2,6.4,4.4,7.3c0.2,0.2,0.3,0.4,0.2,0.4c-0.1,0.1-0.2-0.1-0.2-0.4
		c-1-1.2-4.7-4.4-6.3-4.6c-1.7-0.3-0.3-1.8-1.3-2.8c-1.2-1.2-2.1-0.3-2.6-3.4c-0.4-2.1-3.2-0.2-4.6,0.1c-5.7,1.1-7.8-3.8-8.5-2.7
		c-1.2,2.2-2.7,0.4-4.6,0.4c-1.5,0-0.9,2.8-6.7,1.6c-1-0.2-4.7,1.2-6,2.4c-2.3,2.1-5.8,0.6-6.9,0.6c-0.7,0-1.3,2.3-2.8,1.9
		c-1-0.3-0.7,2-1.2,2.6c-1.5,1.5-0.6,2.1-3.3,2.8c-1.7,0.4-1.7,9.4-12.3,11.5c-7.9,1.6-10.1-1.3-11.1,0.2c-1.6,2.4-6.3,4.7-7.3,4.7
		c-2.5,0-2.6,1.2-0.6,2.2s-8.6,1.8-7.5-0.4c0.7-1.4,1.1-1.5,2.1-2.6c1.3-1.3,0.1-2-1.8-2c-2.1,0,4.6-2.3,5.1-2.8
		c0.9-0.9,1.2-3.6,2-4.4c1.5-1.5-3.7-1.3-6.8-6.1c-1.1-1.6-1.8,1.5-3.4,1.5c-0.5,0-0.7-4.2-0.9-3.9c-2.5,2-6.6-2-7.1,0
		c-0.3,1.2-2.7,1.2-3.7,0.9c-0.4-0.1-1.1,2.8-6.1,2.9c-1.7,0.1,3.2,4.3-3.7,4.4c-0.6,0-3.9,3.4-9,3.1c-1.9-0.2-6.5,1.9-8.7-0.4
		c-1.3-1.3,0.6,3.3,1.9,3.9c1.2,0.7,3.5,0.6,4.8,2.8c1.2,2,4.4-0.6,4.2,1.2c-0.3,1.5-3.6,1.2-5.1,1.2c-1.1,0-2.2-2.5-4.4-2.5
		c-1.1,0,0.8,3.6-0.3,3.6c-1.3,0-2.7-3.2-3.6-2.9c-3.3,0.5-4.8,7-7,7c-1.2,0-4.4,3.1-10.3,1.2c-1.2-0.4-2.8,2.4-5.5,0.9
		c-3.9-2.1,0.1-3.4-0.7-4.5c-1.2-1.8-3.9-2-3.9-0.5s-2.3,1.5-3.7,1.5c-2.9,0-2.3-4.2-4.8-2.7c-2.3,1.4,1.6,5.2-0.3,4.7
		c-0.9-0.3-2.7,1.9-3.5,1.9c-1,0-1.9-0.7-2.8-0.9c-1.3-0.4-2.4,2.5-2.3,3.8c0.3,3.7,3.7,3,5.4,2.6c1.2-0.3,0.8-0.4-1.6,3.2
		c-1.1,1.5,5.3,0.3,8,3.1c1.1,1.1,7.4,1.3,7.4,3.1s-2.5,1.8-0.3,2c3.7,0.3,7.4,1.3,7.9,3.4c0.4,1.9,2.8,3.1,4.1,3.9
		c1.3,1,0.4,1.2,2.1,1.6c1.7,0.4-3,2.2-6.7-2.8c-0.6-0.8-6.3-4.1-8.1-3.7c-1.7,0.4-2.8-1.1-3.2-2.6c-0.4-1.4-2.4-2.5-4.4-2.5
		c-1.8,0-2.6-1.6-3.9-0.9c-2,1-3.4,0.7-4.3-0.8c-0.7-1.4-6.3,3.5-11.1,2.2c-2.2-0.6,4.2-5.5,2.2-4.9c-2.8,0.6-3.7-1.5-4.9-1.2
		c-0.1,0.1-2.7,2.8-1.7,4.4c2.5,3.9-4.2,3.8,2.8,6.6c0.9,0.4-3.1,1.3-2.8,2.2c0.7,2.3,3.5,2.9,4.7,3.2c1.6,0.4,0.9,3.4,2.8,4.7
		c0.9,0.6,4.2,1.6,6.8,1.2c5.5-0.8,6.6,1.4,6.8,1.5c1.1,1.1,1.8-1.2,3.9-0.4c2.4,0.9,3.5-0.2,3.9,1.9c0.1,0.4,3.3,1.3,3.7,1.5
		c1.3,0.6,1.5,1.2,2.2,2.5c1,2-3.7-0.5-5.2-1.3c-1.3-0.6-1.9-3.2-2.5-0.8c-0.4,1.7-2.9-1.7-6.3-1.7c-3.2,0.1-6.6-1.1-7.9-1.1
		c-3.5-0.2-5.7-1.9-4.4,1.1c0.8,1.8-1.6,1.6-2.8,0.1c-3.1-3.7-1.8-8.6-3.8-8.2c-3.8,0.6-4.5-0.8-6.5-2c-0.5-0.4-2.9,0.3-4.7-0.8
		c-1.5-0.8-2.2,3.7-8.8,3.1c-1.5-0.2-1.4,2.8-4.3-2.3c-0.5-1.1,0.1,3.9-2.8,4.1c-3.2,0.4-2.1-3.8-2.8-2.8c-1.4,2.1-5.7,0.5-5.9,1.8
		c-0.2,1.6,2.1,2.5-0.4,3.2c-1.3,0.4,1.9,4.5-0.1,5.1c-4.9,1.8-4.9-3.2-6.9-3.7c-1.2-0.4-0.9,3.8-5.1,5.6c-1.2,0.5-2.1,2.9-4.8,2.8
		c-1.6,0,1.2,7.2,0.3,6.8c-0.6-0.4-3.4-2.2-3.3-1.4c0.9,5.5-4.8,7.9-4.9,8c-1.6,0.8,2.9,1.4,3.9,2.6c1.6,1.6-2.4,1.5-2.8,2.8
		c-1.5,3.9-5.5,1.8-3.2,5.1c2.8,3.8,1.1,3.7,1.9,5.5c0.6,1.3,3.6,3.3,4,4.1c0.4,0.6-1.7,0.8-1.5,1.5c0.1,0.4,3.7,3.2,6,1
		c1.1-1.1,8.9-1.4,9.4-0.3c0.6,1.9-3.9,2.4-5.5,2.4c-1.8,0-3.1,0.2-3.9,0.6c-1.2,0.6-2,5.4-3.1,3.6s0.5-3.2-1-3.6
		c-1.3-0.4-0.3,3.3-1.5,3.7c-2.3,0.5-1.9,0.4-1.9,3.1c0,2.2-1.7,1.2-2.7,2.6c-1,1.3-1.5,2.6,1.5,3.3c1.2,0.4-1.2,2.2-2.2,3.1
		c-1.6,1.6-0.7,0.5-0.9,3.1c-0.4,2.8-1.5,5.3-3.3,7.3c-0.7,0.7-0.9,2.8,1.2,2.8c1.3,0,1.7,1.8,2.2,2.8c0.8,1.7,2.8-0.9,3.3-0.4
		c2.6,2.7-2.3,6.9,0.4,9.4c4.8,4.4,5.3,6.3,3.7,9.9c-1.2,2.9-5.1,2.4-6.3,4.4c-1.2,2,0.2,3.7,0.2,4.4c0,1.2,3.2,1.8,4.2,2
		c1.3,0.4-3.7,6.3-2.8,6.3c1.8-0.2,0.2,4.2,2.4,4.2c2.6,0,7.7-0.4,11.3-2.1c1.6-0.7,7.1,1.2,8.6,1.2c1.4,0,4.9-2.8,5.5-3.5
		c1.2-1.2-5.3-4-0.9-6.5c1.2-0.7,6.5-2.3,8.6-2.2c8.1,0.4,15.3,12.3,26.3,6.3c1.9-1.1,5.5-3.3,10.5-3.9c1.2-0.2,1.1-2.8,2-3.2
		c1.4-0.7,2.7,0.8,3.5-0.2c1.2-1.2-0.5-2.5,1.1-2.8c1.2-0.3,4.5,3.1,5.6,2.7c2.7-1.1-1.2-4.4,4.7-4.3c1.9,0.1,0.6-3.9,6.9-5.7
		c0.9-0.3,2-0.6,3.1-0.9c2-1,2.6-0.3,4.3-0.9c11.6-4.3,12.3-1.2,15.8-1.4c2.8-0.1-0.4-5.6,2.8-6c1.9-0.2,2.8,2.6,4.2,2.6
		c1.2,0,3.5-2.6,4.4-3.4c0.5-0.5,4.5-1.8,5.5-1.6c2,0.3,5.5,0.8,5.7-0.4c1.2-5.3,4.4-5.1,7.6-4.1c1.3,0.4,5.3-5.8,10.3-6.3
		c2-0.3,6.3-2.8,7.2-3.8c0.7-0.7,6.7-6.7,8.3-5.5c1.2,0.8-3.3,4.3-3.9,5.2c-3.2,4.2-0.8-0.5-7.4,5.7c-1.6,1.5-8.9,6-13.4,8.2
		c-0.7,0.4-2.8-1.1-3.4-0.7c-0.5,0.4-5.1,5.3-6.1,5.3c-1.2,0-2.5-0.1-3.7,0c-2.8,0.2-5.5,3.5-7.1,6.6c-4.3,8.1-12.3,9-11.1,11.1
		c0.9,1.4-0.3,2.8-2.6,3.9c-1.3,0.7,3.1,2.8,2.8,3.8c-0.7,2.9-4.3,1.5-2.8,5.8c0.3,0.6-3.2,1.8-2.8,1.9c5.2,1.2,8.6-1.2,9.2-1.9
		c0.7-1,10.6-5.4,11.7-5.9c0.8-0.4-3.1,4.2-4.9,5.2c-0.9,0.4-1.9,2.9-2.1,3.8c-1.6,0.8,3.4,1,4.8-0.1c2-1.3,5.5,1.2,7.7,0.1
		s3.2-4.7,3.4-5.4c0.4-1.5-1.5-3.3,1.2-5.1c2.6-1.3,8-6.3,9.4-6.5c0.6-0.2-3.3,4.2-4.5,5.1c-4.4,3.3,2.5,2.5,4.2,1.8
		c0.4-0.2,0.7-2,0.8-2.2c0.4-1.3,0.5-1.1,1.9-1.1c1.6,0,3.9-4.7,4.4-5.2c0.9-0.9-4.2,8.1-3.6,9.1c1.6,2.8,6.4,0.5,6.5,0.5
		c1.2-0.6,3.3,0.2,4.5-1.2c0.8-1.1-2.2-0.4-2.7-1.5c-1.1-2.9,2.8-4,5.4-2.8c1.4,0.6,2-1.4,2.3-1.2c0.8,0.8,2-0.3,2.5-0.1
		c1,0.4,4.6-2,5.6-2c1.3,0-3.2,3.6-4.8,4.5c-0.9,0.4-6.3,0.3-5.5,1.2c0.5,0.6,4.2,0.5,4.6,1.8s-2.8,2.6-4.5,2.2
		c-1.2-0.3-3.3,2-4.5,2.8c-1.7,1.2-2.8-1.2-2.8,1.9c0,2.2-0.7,2-2.8,2.5c-1.2,0.3,1.8,2.8,0.7,3.1c-1.4,0.4-6.9,2.5-6.5,3.2
		c0.3,0.6,8.8-0.1,9.3-1.2c0.5-1.3,3.3,3.6,5.2,2.4c1.7-1.1,4.9-3.1,4.5-5.3c-0.1-0.2-0.1-0.3-0.2-0.4c0.1,0.2,0.1,0.4,0.2,0.4
		c1.1,2.8,5.1,0.5,6,0.5c0.8,0,3.2-1.2,3.6-1.6c1.4-1.9,2.1-1.6,3.4-1.6c2.4,0-4.7,4.5-6.1,4.8c-1.2,0.3-4.5,1.5-6.1,1.9
		c-2.1,0.5,1.8,3.8,6.5,3.2c1.7-0.2,4.9,0,6.2-0.4c1.6-0.4,5.7-2.6,7-2.9c-1.8,2-5.3,4.9-4.8,8.7c0.2,1.8,3.8,0.6,4.6,0.4
		c3.7-1.3,6.7-0.1,8.3-0.1c1.7,0,3.6-0.8,5.3-0.8c1.6,0,0,3.3-1.5,3.3s-3.1-0.7-4.6-0.7c-2.4,0-5.5,4.1-7.2,3.3
		c-1.5-0.7-0.9-1.8-3.2-2.3c-1.2-0.3-1.6,2.9-2.8,3.3c-6,2.6-14.9,0.8-14.2,2.4c1.8,3.9,10.8,3.9,14,12.3c0.6,1.7,7-2.6,8.2-3.2
		c2-1.1,3.2,6.4,4.3,6.3c4.2-0.3,10.1,0.4,11.3,0.9c1.1,0.5,8.5-0.4,7.9,1.4c-0.4,1.4,4.5,1.7,5.5,1.7c4.7,0.3,5.1-2,3.8,1.5
		c-1.6,0.8-2.3,2-3.2,1.8c-3.5-0.5-5.6-3.6-9.5-3.9c-1.6-0.2-3.2-0.7-4.9-0.7c-0.5,0-1.5,3.8-1.5,0.4c0-1.7-3.2,0-4.9,0H503
		c-1.7,0-2.7-4.9-3.1-6.7c-0.3-0.9-2.8,3.9-4.8,3.9c-1.8,0-4.4-0.2-5.4-0.6c-0.4-0.2-1.4-4.3-3.9-4.3c-2,0-2.6,1.5-3.9,0.8
		c-1.2-0.6,3.2-1.8,4.5-2.1c1.8-0.4-3.4-0.8-3.9-1.3c-1.5-1.7-5.3-4.6-5.7-4.7c-2.1-0.5-3.5,0.9-3-1.3c0.4-1.4,0.5-3.7,0.9-5.3
		c0.5-2.1,2.8-2.2,5.2-2.2c0.5,0,1.1,2.1,2.2,1.6c1.1-0.4,2.7-1.7,1.9-3.2c-1.1-2.1-13.3-2-14.8-1.8c-8.3,1.3-5.6,7.1-15.9,5.5
		c-2-0.3-4.8,3.4-5.6,4.2c-1.1,1.1-13.5,2-15.1,1.2c-1.5-0.7-4.9-2.5-4.9-4.2c-0.2-5.7-0.7-4.1-4.5-3.3c-1,0.5-3.4,0-4.6,0
		c-0.7,1.5-3.2-1.2-4.9-1.2c-1.2,0-3.7,4.1-7.1,3.3c-1.4-0.3-2,1.4-3.3,2.2c-2,1-3.6,0.5-4.7-0.7c-5.2-6.3-3.8-7.2-0.4-9.8
		c0.6-0.4,3.6-3.9,2-3.9c-2,0-2.5-0.6-3.9,0.9c-1.1,1.1-1.2,2.4-2.2,3.3c-1.1,1-2.5,2.1-1.9,3.7c1,2.4-3.6,4.7-4.6,4.9
		c-1.5,0.4-1.4-1.8-1.4-2.8c0-1.2-2.4-0.8-3.2-1.7c-1.2-1.2-3.4-4.7-3.4-6.3c0-1.1,3.2-1.7,4.8-1.7c1.4,0-3.2-7,3.7-14.5
		c1.2-1.3-5.5-0.9-6.8-0.3c-3.8,1.9-6.3,7.7-10.2,9.5c-1.6,0.7,3.9,0.6,4.7,9.3c0.2,2,1.2,2.2,1.5,3.7c1,3.3-3.7,8.2-8.6,9.3
		c-1.9,0.4-1.8-3.2-3.7-4.8c-1.3-1.2-2.1,1.7-3.7,2.5c-1.3,0.6-8.2,0.3-5.5,0.9c1.5,0.4,2.7,1.6,3.1,3.1s-2.5,9.2-2.2,9.8
		c0.5,1.1,3.2-3.6,5-3.6c2.3,0,3.3,3.1,4.8,4.6c3.2,3.4,8.2-3.8,13.1-2.8c4.1,0.8,5.9,4.1,5.1,7.8c-0.5,2.4-11.1,2.8-10.8,4
		c0.1,0.4,4.7,2,5.2,2.6c1.9,2,0.5,8.5,2.4,9.5c1.3,0.7,0.1,12.2,0.1,14s-2,2.9-1.9,4.5c0.4,3.3,5.5,3.1,5.9,1.6
		c0.8-2.1-2.4-5.1,2.7-6.5c1.9-0.5,5.8-1.8,7.5-13.1c0.3-1.9,3.9-3.2,5.1-3.8c2.1-1.1-2-3.6-2.4-4.1c-0.2-0.5,5.2-7.4,14.3-7
		c1.3,0.1-2.4,4.1,12.8,2.8c2.7-0.3-1.3,2.2-3.2,4.3c0.5,0.5,3.2-2.1,3.8-2.2c1.8-0.4,10.6,5.5,12.2,5.9c2.6,0.6,2.4-0.1,4.6-0.6
		c1.2-0.3,1.7,7.6,3.2,7.6c1.7,0,12.3-0.4,13.8-0.8c1.1-0.3-0.5,2.6,0.5,2.3c7.5-1.9,11.7,4.7,13.2,15.7c0.3,1.8-0.7,2-2.6,2
		c-1.2,0,0.7,3.2,1.6,4.2c0.6,0.6,4.7,0.7,7.1,3.4c0.9,1.1,2.7,12.5,1.4,11.6c-3.7-2.6-3.9-1.2-4.7-0.2c-2.5,3.5,0.6,5.1,0.8,5.7
		c1.2,1.2-4.8,13.6-6.1,14.8c-1.3,1.3-4.5-0.3-7.3-1.6c-0.7-0.4-4.6,1.8-5.5,0.7c-3.2-3.6-3.2-5.8-7.7-5.8c-2,0-3.7-4.4-4.8-3.8
		c-6.4,3.6-12.8,4.3-14,3.5c-2.8-1.9-3.2-0.6-6.3,1.4c-1.9,1.2-0.9,2.3-3.7,2.5c-3.9,0.4-9.2-0.6-10.8-1.1c-1.3-0.3,0.4-0.1-4.7,3.5
		c-3.4,2.3-6.2-0.2-6.4-0.4c-0.8-0.4-1.3,1.5-2.2,1.5c-1.7-0.4-2.6-2-4.3-1.9c-1.2-0.3-1.8,2.8-2.8,3.3c-3.9-0.5-2.8-4.2-5.7,1.4
		c-4.7,6.9-4.1,1.2-8.9,0.7c-2.3,0.2-5.4,0.4-6.2,2.8c-0.5,2.2-1.2,1.7-2.8,0.9c-3.2-0.7-5.3-0.5-7.4,1.9c-1.2,1.2-1.9,1.1-3.3,0.6
		c-0.1,0-2-3.2-2,0.3c-0.3,2.7-5.1,1.1-7.2,1c-4-0.5-4.7-4.7-5.2-0.6c-1.2,2.8-2.3,5.6-5.6,3.9c-5.7-0.1-0.4-4.7-5.5,0.1
		c-1.1-0.5-4.2-2-5.5-2c-1.5,1.6-1.7,5.7,0.4,6.7c1.2,0.5,1.8,2,1.3,3.2c-3.5,1.3-8.5,2.3-11.8,2.3c-1.2,0.5,2.4,1.4,3.2,2.3
		c2.4,3.9,5.9-3,11.7,6.3c0.8-2.2,2.1-3.2,5.7-2c2.8,0.3,3.4-0.6,6.1,0.4c1.6,0.8,2.5,1.9,3.5,3.1c0.6,0.1-0.9-1.6,7.2-4.1
		c3.2-0.4,0.4,2.7,4.7,5.6c2.7,1.4,5.3,1.2,8.2,2.3c1.7,0.8,2.6,0.9,3.1,3.7c3.3,0.8,5,3.2,8.5,3.4c2.5-1.6,4.2-3.9,5.7-7.1
		c1.4-1.1,3.4,1.6,3.4-1.4c0.1-2,0.4-3.8,0.8-5.7s0.6-4-1.1-5.2c-1.9-1.2,0.8,0.4,2.8,0.4c1.7,0,1.7-2.2,3.5-2.2
		c1.5,0,3,1.1,4.6,1.4c1.9,0.4,4.7,1,3.8,1.2c-1.4,0.4-2.8,0.4-4.3,0.4c-4.5-0.5-2.7-0.9-4.3-0.4c-5.6,2.2-1.5,1.6-2.9,5.9
		c1.4,1.5-0.4,2.8-1.1,5.3c0.2,3.1,4.9,5.2,6.9,4.1c4.7,1.1,7.8,4.7,11.8,7.1c1.1,2.7,2.3,3.8,5.2,3.9c2.6-0.2,4.7,2.4,6.5,4.2
		c3.8,2.7,7.9,6.4,10.6,9.9c1.9,5.3,5.8,8.3,7.9,12.9c2.5,6.8,6,11.7,9.2,18.2c3.5,2.9,5.9-0.5,9.9-1.5c2,2-5.7,3.1-6.9,4.5
		c1.1,4.7,0,7.9,1.5,11.6c4.6,12.1,3.9,15.9,0.9,16c-0.8,0.8,2.4,2,2.4,3.1s-2.9,0.6-3.9,0.6c-2.6,1-4.8,2.4-6.8,4.3
		c-1.2,2.9,1.4,2.4,1.4,7.3c0.4,2-0.2,3.2-0.2,5.3c5.2,0.3,8.2,0.5,13.3-1.3c4.5-0.5,2.6,1.7,11.6-1c3.2,4.3,3.8,5.4,10.2,4.5
		c1.2,2.4,2.8-1.8,8.1,0.2c3.5-1.9,3.9,0.4,7.3-1.1c2-0.4,4.6,1.3,5.2-0.9c2.3-1.5,0.8-3.8-0.2-7.2c-0.4-0.4-1.1-0.6-1.7-0.6
		c-0.3,0.4-0.6,0.8-1.2,0.8c-1.6-0.1-0.3-0.8,1.2-0.8c0.6-1.2,0.2-3.4,0.4-1.8c0.3,1.3,4,5.5,3.9,6.8c-0.2,2,1.3,0.2,2.6,0.2
		c1,0,2.4,3.2,2.8,2.2c1.1-2.3,2.8-1.2,4.5-3.2c0.7-0.8,2.2-0.8,1.6-4.4c-0.3-1.2,3.9-0.3,3.6-1.6c-1.2-4.6,2.4-3.2,1.6-5
		c0.3-0.1-2.6-1.5,0.9-3.8c-1.3-3.1-3.5-5.1-6.3-4.6c-1.5-1.4-5.8-1.5-4.9-3.6c2.4-2.3-2-3.2-2.8-5.5c-0.4-1.2-2.1-2-2.8-2.6
		c-0.4-0.4-0.6-0.8-0.6-1.1c-1.6-0.7-2.8-1.4-1.3-1.5c1.7,0.4,1.2,0.7,1.3,1.5c1.4,0.7,3.2,1.4,3.4,1.9c1.2,1.2-0.4-1.2,0.9-2.2
		c1.4-1.1,0.6-2.8,0.4-4.8c-0.1-0.7,2-0.4,4.1-0.4c0.4,0-1.4-3.1-0.8-3.2c1.4-0.4,6.7,4.4,3.1,4.6c-1.3,0,1.4,1.2,2,1.8
		c2.6,2.2-1.7,1.9,0.4,3.9c-0.2,6.1,3.4,0.7,4.8,0.1c3.7-1.4-2.7,3.7-3.3,4.8c-0.3,1.3-0.6,1.4-1.4,2.9c-0.4,0.8,2.5-1.7,3.3-2.1
		c2.5-0.7,3.9-2.9,6.1-4.1c2.5-1.4,4-1.6,6.6-2.8c1.2-0.6,2.3,1.1,3.6,1.1c-0.1-3.9-1.4-6.3-3.2-8.5c-0.8-1.7,1.6-3.2,0.2-4.7
		c-0.8-0.8-2.8-1.5-3.9-1.9c-1.2-0.4-1.1-1.9-3.3-1.9c-4.1,2.4-6.6,1.5-9.8-1.5c-0.9-0.9-2-3.4-2-4.6c0-1.2,2.8,3.2,3.8,3.7
		c3.2,2.2,3.8,1.8,6.3-0.3c1.8-2.3-0.6-2.6-1.3-4.7c0.2-4.8,3.2-10.5,8.1-11.9c1.5-0.4,3-1,4.3-1.9c1.1-1,1.5-4.4,0.4-5.5
		c-0.6-0.6,0.9-3.6,0.6-3.9c-0.3-0.3-3.8,2.1-2.6-0.4c6.1-5.9-3.9-5.8,4-6.1c2.7,0,2.4-0.1,3.3-2.2c0.9-2.8-0.4,5.5-0.6,6.2
		c-0.8,1.6-2.7,1.2-2.7,4.4c0,1.1-0.1,3.5,0.1,4.4c0.4,1.3,4.2-1.4,5.5-1.4c0.8,0,0.8-2.6,1.3-3.1c0.4-0.4,0,2.6,3,2.8
		c1.2,0.1-4.5,0.5-4.2,1.6c1.3,0.5,6.4,3.5,3,3.1c-2,0.3-4.7,0.3-5.8-1.9c-6.9,0.6-0.4,4.5-8,4.6c-5,1.5-7.4,6.1-7.1,10.6
		c0.6,2.3-0.3,6.2,4.4,6.3c3.9,3.4,5.4,8,7.3,13c1.8,1.5,2.1,2.8,2.9,5.2c1.1,2,4.4,0.4,4.7-0.9c0.4-1.4,1.6-0.2,3.1-0.2
		c1.2,0-0.9-3.3-1.7-4.1c1.9-3.7,2.8,3.9,4.6,3.3c1.6-0.8,2.9-2.4,2.9,0.3c-0.6,1.2,2.1,4.1,4.5,5.5c1.1,0.5,2.7,4.7,3,5.3
		c1.1,2.2,1.5,0.1,2.4-1.6c6.5-1.6,20.8-0.5,18-9.8c0.5-6.3-0.9-3.5-1.7-7.5c0-2.4,2.9-0.3,3.5-2.5c1.2-3.5-5.2,0.4-4.7-4.5
		c0-2.3,2.3,0.4,3.1,0.7c3.1-1.1,1.1-3.4,1.4-5.9c2-3.2,1.6,2.7,2.2,4.2c0.9,1.9,3.7-0.6,6.4,0.6c1.8,0.4,2-4.1,3.2-4.1
		c1.3,1.5-3.1,8.9,0.7,9.8c3.7,0.8,4.1,5.8,5.3,7.1c4.6,2.7,5.4-0.3,7.7,5.4c0.6,1.3,2.9-1.1,3.4,0.4c0.4,1.4-2.5,2.3-5.8,1.2
		c-3.2,0.3,3.9,3.6,4.7,3.9c2,1,1.8-0.5,1.2-2c-0.3-0.6,1.3,1.2,3.3-1.2c0.3,1.4-0.4,2.7-0.2,4.7c-5.1,0.2-2.8,3.7-4.7,4.4
		c-1.1,3.8,2.2,0.7,5.8,6.9c7.5,6.4,5.2,7.7,8.6,9.3c3.5,1.6,4.1,7,0.9,8.1c3.2,0.4,5.1-2.5,8.1-3.2c10.1-0.7,6.8,6.7,14.5,4.1
		c4.1-1.8,8.6,0.3,13.2-1.1c2-1.8,3.5-3.6,5.7-5c-2.2-4.1-1.9-2.8-2.5-6.6c-1.3-0.2-3.8-0.9-3.8-2.3c0-0.9,2.4-0.4,3.1,0.4
		c1.2-1.7-0.1-5.7-1.2-7.2c-1-2.5,0.4-4.7,0.4-7.2c1.6-0.3,1.4,4.4,1.7,5.7c1.8,3.1,0.2,4.9,2.1,11.3c1.2,1.6,2.9,7.5,4.5,3.9
		c4.2-2.2,3.1-2.3,5.5-5.6c2.8-1.2,3.4-0.4,4.4-2.5c0.6-1.2-0.4-4.9,1.1-5.5c3.8-1.2-2.4,6.5,3.6,4.8c2-1.5,3.5-1.9,6.1-2.2
		c4.3,1.3,6.3,1.9,2,2.2c-4.7-2.6-6.5,3.6-10.6,2.5c-2-0.4-2.2,0.6-2.7,2.5c-0.4,1.5-2-0.8-2.6,0.3c-1.4,2-2.4,3.5-4.1,4.6
		c-1.2,0.7-0.4,3.9,1.1,4.4c4.3,0.3,4.9,4.9,9.5,6.4c1.8,2.5,3.9,3.2,6.8,2.5c2.3-1.2,3.3-1.3,6-1.4c2-0.6,2.8-2.6,3.5-5.7
		c-0.1,1.9,0.9,2.8-0.7,5.6c-0.3,2.8,9.8,5.5,15.8,5.6c6.1,1.9,7.1-1.1,17.3,1.7c3.3-0.4,7.2,0.4,6-5.6c1.3-3.5,2.5-4.6,1.4-7.4
		c0.8-1.7,3,0.4,3.2-1c0.6-5.3-2.3-3.8-2.8-5.2c-0.4-1.5,2.5-1.8,1.1-3.2c-1.2-1.2-2.4-1-3.2-1.9c-2-2,0.8-2.8-1.1-4.3
		c-2.4-1.8-1.3-6.6,1.2-8.9c1.9-0.4-1.7,4.7-0.3,7.5c4.8,2-0.4,4.2,2.3,5.2c1.5,0.6,4.1,2,3.5,3.6c2.2,5.5,2.3,6.4-0.2,9.7
		c1.3,2.6-3.2,2.1-2.7,4.7c-0.4,9.4,2.9,10.8,4.6,11.3c4.7,11.4,7,10.3,5.5,12.9c-1.4,2.3,5.5,8.5,6.3,8.8c4.1,1.4,1.3,3.9,6,4.2
		c1.4,1.4,2.2,1.6,0.5,2.8c-1.6,1.8,5,3.8,5.8,2.3c0.6-1.2,2.1-2.3,3.2-2c3.4-0.8,2.6-2.8,5.6,0.1c3.5-1,6.1-1.7,10.2-0.8
		c7.4,3.4,8.4-0.5,7.8-8.2c0-2.1,0.4-4.1,2-4.8c1.4-0.7,6.1-1.1,6.7-2.1c1-1.9-3-1.5-2.8-3.4c0.4-7.1-3.3-11.5-5.8-15.5
		c-4.7-7.9,0.4-7.5-1.9-11.1c-0.5-0.7-4.2-2.9-4.8-3.8c-0.2-3-1.2-4.3-2-5.4c-2.2-0.5,1.3-2.2,1.5-2.3c1.1-0.5-1.7-3.9-1.2-4.8
		c0.6-1.2,1.5-2.5,1.5-3.9c2.6,2.8,2,6.3,1.4,9c-1.4,6.1,2.2,1.3,1,7c6,0.9-0.7,1.9,6.8,3.3c1.9,0.4,2,1.5,2,3.5
		c-7.1,5.8-2,7.2,0.5,9.8c4,2.9,2.5,11.2,5.6,12c3.2,2.4,0.1-1.9,5.5-2.8c1-1-1.4-4.6,3.3-5.2c2.5-0.4,4.6-4.4,5.5-8.1
		c2.6,1.4,4.2-2.2,6-2.6c0.6,2.8-1.4,5-4.1,6.3c-0.6,3.7-3.1,6.4-4.5,9.8c-0.7,2.2-5.5,3.6-7.1,8.3c-0.3,1.4-4.2,2.5-5.4,3.1
		c-4.7,5.5-0.3,2.3-4.2,6.8c-4.9,5.7,5.5,4,8.3,2.5c1-0.7,3.1-0.6,4.3-0.6c5.5,2.2,3.8,2.9,9.3,2.2c2.5,0.8,3.2,4.3,5.1,7.9
		c-4,2.8-8.8-3.6-13.1-4.8c-3.3-1.2-6.3-1.2-8.9,1.2c-0.3,0.4-8.2-3.6-3.8,0.4c3.5,2.5,7.1,0.4,10.6,0.4c5.5,0.3,10.6,3.7,15.1,5.5
		c5.1,2.1,7.9,8.3,12.2,10.8c4.4,1.2,6.3,8.3,11.1,7.3c2-2.9,0.7-7.1-1.2-9.8c4.6-4.2,6.3-8.6,4.3-10.7c-1.1-1.2-2.3-1.6-0.8-3.3
		c3.9-0.1,1.3,5.5,5.8,1.3c3.2-2.9,3.9-0.2,7.9-1c1.9,0.1,7.8-2.3,7.4,0.9c-0.3,1.2-2.8,1.3-3.7,1.5c-0.7,0.2-2,3.6-2.5,4.1
		c-3.1-1.2-1.2-2.1-8-1.4c-3.3,2,0.4,3.5-3.9,4.3c-4.1,4.7-1.6,11.9-3.6,16.5c-1.8,4,2,2.6,3.9,9.8c0.4,1.5,6.1,4.4,11.1,5.8
		c4.6,3.1,7.5,10.7,8.6,16.4c0.7,6.5,2.3,18.2-0.4,25.4c-1.6,1.6-7-0.4-5.8,2.5c0.9,1.9,3.4,0.2,2.8,1.5c-1.7,3.6-0.3,4.6-0.3,8.2
		c-0.2,7.1,2.8,7.3,2.1,11.5c-0.2,1.1,2-0.9,4.6,4.3c2.5,2.8-0.4-2,5.5-1.6c1.5,0,2.7,2.8,3.9,3.3c3.8,0.2,2.4-2.4,8.3,1.7
		c0.1-2.9-4.5-2.1-4.1-7c-2.2-3.5-5.9-2.5-7.1-6.8c-3.9-4,0.3-2.8-2.9-8.8c-0.4-0.3,1.4-2.8,0.9-3.9c-6.6-12.2-3.1-25.6,3.1-29.1
		c-4.3,0.4-6.3,4.7-5.2-2.8c0.4-2.3-2.8-5.5,0.5-6.1c5.5,7.4,5.6,3,6.9,5.9c0.6,1.6,5.5,2.1,3.9,2.8c-2.5,1.2-6.3,1.4-3.4,3.2
		c2.8,1.7,3.4,5.7,7.5,2.7c2.8-2.2,3.4-3.1,9.5-2.5c0.3,0,1.2-2.9,1.2-3.7c0.2-0.6,3.9-0.1,3.9-0.4c0.5-1.2-2-2-2-2.9
		c5.1-0.7,2.1,4.3,6.6,6.6c0.7,0.7,1.9,2.9,2.8,2.8c3.9-0.6-0.2-3.2-0.4-4.9c-0.2-1.9-1.3-2.1-2.2-3.7c-1.2-4.5,2-3.6,3.2,0.2
		c0.5,1.9,2.3,0.7,2.4,3.2c0.4,3.2,2.2,6.3,4.5,3.9c1.3-1.3,3.2-2.3,0.6-6.8c-0.7-1.2-1.7-3.9-0.9-4.7c3.5,1.9,1.8,1.4,3.1,4.9
		c4.7,5.4,4.3-0.2,6.5,7.2c1.5,2,0,6.2,3.7,6c2.3-1.1-0.4-6.4,2.2-2.8c1.3,1.3,1.6,2.3,3.9,2.3c1.5-0.1,3,0.3,4.3,0.9
		c3.4,0.2,0.8-2.9-2.3-3.8c-0.8-3.3-3.7-6.3-3.9-9.4c-3.9-1-7.2-2.8-6.4-3.7c2.1-0.8,6.2-6.4,1.7-6.4c-2-2.1-6.4-3.2-1.9-3.9
		c2-1,1.1-4.3,3.7-2.8c0-1.3,0.6-2.1-0.9-4.8c-0.9-1.6-0.5-4-1.9-4.1c-7-0.4,0.1-3.6-3.9-3.9c-1.2-0.2,2.2-1.2,1.3-3.2
		c-0.3-0.6,0.5,1.1,3.4,3.4c1.2,0.9-2.6,0.9-1.7,1.7c1.8,1.6,2.9-0.4,3.2,0.8c0.4,0.9,0.1,3.1,0.4,3.9c3.5,2,4.7-4.5,6.2-1.4
		c0.7,1.6-3.5,3.5-3.3,6.3c1.2,4.3-1.9,4.3,1.1,7.2c3.6,2,1.9,4.7,2.5,8.2c1.3,2.1,0.1-6,2.7-7.3c1.3-0.6,0-2.1-0.2-2.8
		c3.4-4.6,2.1,3.1,2,4.9c0.7,5.2,2-7.9,3.5-2c0,0.7-1.5,2.6-1.5,3.9c0,0.9-2.5,0.8-0.7,3.3c1.5,2.1,1.8,1.3,2.5,0.6
		c1.5-1.5-1.3-2.1,1.9-2.8c3.2-0.3,2.3,1.2,1.2,3.9c3.5,0.6,3.5-2.2,5.1-0.1c0.5,0.6,0.2,3.4,2,4.3c3.4-2.8,0.5-3.5-0.6-5.5
		c0.7-3.2-1.3-6.3,1.2-9.5c0.9-1.2,3.4,0.7,4.6,1.9c1.1,1.1,2.2,1.2,3.9,1.2c2.1,0,1.4-1.4,1.2-2.2c-0.2-0.7-1.5-0.9-1.5-3.1
		c0-2.5,1.6-0.6,2.2-2.8c0.5-2-1.4-2-2.2-2.8c-1.6-1.6,0.4-3.3,1.2-2.7c2.8,2.3,4.4,2.6,7.9,2.9c1.1,0.3,2-1.6,3.1-1.9
		c0.4-0.1-2.8,2.8-2.2,3.1c2.8,1.6,2.8-4,10.5-3.3c1.4,3.8,4.6-0.7,4.7,0.9c0.1,2.3,1,2.7,2.7-1.2c1.1-2.4-1.8-4.1,3.2-5.3
		c1,0,1.9,1.2,3.7,1.2c2.6,0.1,3.9-2.8,4.7,1.7c-0.2,1.9,0.9,4.1,2,1.3c0.6-2.4,0.4,1.9,1.4,2.8c3.1,2.8,4.5,3.4,1.8,3.5
		c-2.6,0-3.2-2.6-5.2-2.6c-3.9-0.1-5.6-4.7-9.7-2.9c-1.7,1.9,8.3,6,9.9,6.4c2.1,0.5,1.7,0.5,2.2,2.5c3.3,0.1-0.5,4.1,7.1,1.5
		c1.4-1.4,2.5,0.3,2.5,1.5c0,2.2-2.1,1.9-1.1,2.9c1.9,1.9-2.6,4.7,0.7,5.6c2.3,0.3,2.1,2.9,0.2,4.8c-0.3,1.2,0.7,3.5,0.1,4.1
		c-7.3-0.7-0.2,2.5-4.8,3.9c-1.5,0.7,1.6,6.3-1,6.3c-3,2-10.3,7.7-10.4,5.5c-0.4-5.9-4.6-1-4.7-3.9c-1-2-3.6-4-5.8-4.3
		c-2.3-0.3-0.7,3.1-0.9,3.7c-0.9,2.8-0.4,3.8-2.1,2.2c-1.3-1.3-2.6-0.5-2.6-3.1c2-4.1,1.2-4.6-1.2-3.9c-0.7,0.7-2-1.2-3.1-0.9
		c0.1,2.6,3,3.3,1.5,6.4c-0.6,1.3-2.7,1.8-3.8,2.3c-0.8,0.4-1.2-3.6-4.7-3.5c-0.9,0-0.7,2.8-1.2,2.5c-1.7-1.3-2,0-4.6,0.4
		c-2.3-0.4-0.2-1.9-0.9-5.7c-2-1.2-3.3,2.1-4.9,1.9c-2-0.3,2.4-3.2,2.1-4.1c-0.8-2.6-5.1,2.6-3.9-2.2c0.9-3.4-2.2-2.2-2.2-0.2
		c0,2.2-1.7,2.5-3.2,1.7c-1.2-0.5,0-2.8-0.9-3.1c-5.5-1.6-1.5,3-6,2.3c-1.3,0,0.4,2.6,1.4,3.5c-3.2,7.4,3.8,0.8,2,7.2
		c-1.1,4.6,2-1.2,6.6-0.4c3.9-0.3,2.3,3.2,5.5,4.6c3.9,0.4,2.1,4.9,5.8,6.2c3.1,1.9,0.6,5.5,0.6,8.9c2.7,1.7,6.8,4,10.1,4.2
		c2.4,1.1,2.1,2.8,4.9,1.6c1.6-0.8,2.2,0.7,3.1,1.5c3.6,2.1-0.5-1.7,4.2-3.3c2.5-1.2,0.1-2.5,4-2.5c10.3-1.7,7.5,0.4,14.4-4.1
		c6.1-1.2,12.1-0.3,17.5,4.1c3.8,3,3.7,2.9,2.5-0.4c-0.5-1.4,3.4-3.4,3.9-5.7c1.1-3.9-4.5-4.8,5.9-5.2c2.1,1.8,3.3,0.2,5.5,2.4
		c0.6,0.6,0.4,3.9,0.4,4.6c2.2,1.5,0.9-0.7,8.6-1.7c2.1-2.2-2.4-3.6,7-4.3c3.5,3.3,3.9-1,8.3,2.5c1.7,0.7,5.9,1.9,5.4,0.4
		c-0.7-3.7,1.2-5.8,3.5-7.7c1.2-0.9,2.5-0.6,2,1.1c2.5,1.9,3.9-3,8.4,0.7c1.9,1.4,4-0.1,2.7,3.9c-0.4,1.1,1.1-2,5.3-0.3
		c4.3-0.4,7.1,2.4,11.1,5c2.7,0.8,3.1,0.5,5.3,2.7c4.3,2.8,8.8,3.1,12.7-0.4c1.2-1.2,2.2-1.1,4.4-1.1c6.7,2.3,10-2.1,13.7-5.4
		c5.5-1.1,2.6,0.1,0.2,2c-9.8,10.2-11.2,3.3-16.3,6.8c-3.9,1.8-5.8,3.9-12.3,1.9c-4.6-3.4-3.2-0.4-6.9,1.9
		c-9.2,5.5-6.3-3.1-10.9-2.8c-0.9,0-2.9,0.9-4.3,0.9c-2.7,0,2,6.9,2.8,9.8c1.4,5-5.8,6.8-3.2,9.4c0.9,4.7,3.1,7.5,7.9,6.6
		c2.8-1.4,0.4-3.9,7.2-1c1.6,1.3,3.5,3.1,4.4,4.9c-2.9,1.2-5.1,2.5-4.8,6.2c3.9-0.5,3.6-0.4,6.6,2.2c2.6,2.2,4.2,3.6-0.5,3.1
		c-6.6-0.6-9.9,3.9-9.4-3.3c0.3-2.8-13,12.4-22.3,17.3c-3.7,1.5-6.6-0.8-8.5,2.5c-3.6,6.5-0.2,3.5,2.6,6.7
		c4,4.7,18.3,13.5,13.8,18.6c-1.2,1.2-2.1,0.2-1.6,2.5c3.3,2.9,3.9-2.4,1.8,7.6c-2.1,9.9-5.8,6.2-8.6,6.3c-5.3,0.3-6.7,3.9-2.5,5.2
		c1.6,0.5,3.5-0.4,4.9,0.6c9.3,6.7,21.3,9.7,30.5,13.7c4.9,2.1,7.5,3.9,6.1-3.1c-0.3-1.1-2.2-5.6-0.2-3.9c1.2,1.1,3.2-0.9,3.8-1.1
		c5.5-1.8,10.7-1,16.1,5.4c5.6,6.6,15.7,10.6,22,16c2.5,2.1,9.4,0.3,13.8-4.2c2.2-2.2-0.5-2.2,14.1-7.9c4.2-1.6,3.9-3.9,8.8-6.3
		c2.5-1.3,0.3-3.6,2.9-5.7c1.3-1.1,2.5-0.6,3.1-1.9c0.2-0.3-1.8-2.5,1.2-2.8c6.6-0.6,13.1-4,19.4-6.2c6.3-2.1,11.9,2,17.7-0.9
		c9.6-4.7,11.1-6.8,13,0.2c0.7,2.6,1.1,0.8,3-0.2c2-0.9,2.5,1.3,2.5-2.2c0-2.3-0.1-2.9,2.2-2.5c9.8,2,4.4,3.9,15.3,6.2
		c9,1.9,17.7,5.1,25.6,9.7c1.2,0.7-0.9,3,2.9,1.1c1.2-0.6,5.8,5.3,6.3,5.5c6.2,3.9,7.1,4.7,13.4,14c15.9,18.6,20.4,19.5,38.3,19.5
		c4.8,0-8.6,2.4-14,1.5c-2-0.4-4.4-1.9-6.4-2.1c-8.9-1.2-19.7-9.7-21.6-10.2c-6.3-1.7-14.4-5.4-15.6-10.1c-0.6-2.2-2.7-2.2-5-2.8
		c-5.9-1.3-9.5-6.9-13.8-7.9c-20-5.2-14.5-6.5-35-11.7c-2.9-0.7-4,2.6-6.4,3.3c-12.8,4.1-24.2,4.6-31.9,5.2
		c-1.5,0.2-7.9,2.5-8.2,3.3c-3.1,7.9,4.9,9.4-2.6,16c-1.2,1.2,2.3,4.8,3.2,6.1c7.6,10.8,1,13,2.7,25c0.5,3.7-0.7,7.2-4.6,9.2
		c-4.1,2-9.6-0.4-13.8,0.6c-2.1,0.5-4.9,6.8-7.7,7.9c-3.2,1.4-3,2-2.9,4.7c0.1,1.5,2.4-0.1,3.8-0.2c3.2-0.4,3.4,3.2,6.3,3.9
		c7.9,2.3,12.5-0.7,18.9,4.5c4.9,4,15.3,0.8,20.8,3.1c1.5,0.6-2.5,1.1-0.3,1.9c4.9,2,10.9,3.1,15.4,5c5.7,2.6,5.5,7.9,10.3,11.2
		c9.6,6.6,9.4,5.5,13.8,14.2c1.7,3.2,5.5,6.3,3.7,9.9c-3.3,6.8-17.2,6.9-17.1,9c0.1,3.3-1.1,6.6-2,6.5c-1.4-0.3,3,2.4,2,3.3
		c-2.9,2.8-5.3,5.5-5.2,9.5c0,0.5,2.8,1.1,0.5,3.1c-3.2,2.9-4.2,6.3-7.6,9.3c-2.7,2.3,0,3.6-0.9,5.8c-0.3,0.8-2-1.7-2.5-0.9
		c-3.9,6.6-13.2,9.4-14.3,13.8c-1.5,6.5,4.9,7.2-7,12.2c-0.8,0.4-7-13-4.8-16.6c2.2-3.9-1.9-2.6-1.4-5.5c1.2-8.2-1.9-12.2-8.2-14.2
		c-11.8-3.7-3.9,7.9-0.4,12.3c2.8,3.4,2,8,3.7,12.2c1.2,2.8,2.4,6.3,2.8,9.2c1.4,10,5.5,9.9,5.1,31.4c-0.1,1.7,1.8,2.5,1.8,5.6
		c0.1,3.1,19.7,17.2,34.9,28.2c3.7,2.8,11.1,13.1,11.9,14.1c4.4,2.8,7.2,5.6,9.6,10.6c2.3,4.8-2.2,7.6,5.4,11.3
		c3.3,1.7,2.9-0.1,5.2,0c2.7,0.2,4.1,3.9,6.6,7.5c7.9,11.2,8.6,19.4,17,24.4l-16.1,59.2H2051V-10h-665.7v0.3H1384.8z"/>
	<path id="_Trace_" class="st1" d="M1379,946.2c9.8-0.1,12.7,3.6,18.9,6c7.8,2.9,16.9,1.6,24.9-0.4c8.7-2.3,10.2-8.7,20.7-9.8
		c10.6-1.2,7.9-1.3,12.7-3.9c1.1-0.5,7.4-1.5,8.9-3.9c4.3-6.9,12.6-12.6,17.2-17.6c6.1-6.7,10.6-11.5,22.7-18.9
		c3.8-2.3,7.9-11.2,22-18.7c3.2-1.8,7.5-0.9,11.1-2c4.8-1.5,8.4-4.7,13-6.9c1.1-0.5,7.3,0.1,8.6,0.1c4.8,0.2,9.6-2.8,13-5.7
		c10.6-5.1,13.1-4.8,24-2.2c1.3,0.4,13.1-0.4,16,0.6c6.4,2.1,10,0.4,14.5-1.4c4.2-1.6,10.9-3.1,16.4-3.2c1.2,0,3.1-3.4,3.9-4.1
		c4.6-4.1,7.9-7.2,14.5-7.8c4.6-0.4,7,1.8,11.5,2.2c7.8,0.5,13.1,1.9,21.1,4.2c6.8,2,15.3,8.3,21.8,9.9c10.4,2.9,10.1,4.1,16.2,3.5
		c4.3-0.4,9-1.8,12.8-4.2c0.9-0.6,3.5-5.1,4.5-5c5.6,0.4,13.5-4.9,16.1-10.8c1.8-3.9,4.6-6.5,9.7-7.1c3.4-0.4,6.8-1.7,10.2-2.4
		c5.6-1.2,11.2-2.5,16.5-0.8c6.1,1.9,16.5,2.5,25.3,2.2"/>
	<path id="_Trace_2" class="st1" d="M1679.5,849c6.8,3.4,9.2,5.9,9.4,6.3c2.2,3.9,7.4,3.9,9.7,6.2c1.7,1.6,10.1,3.7,17.4,8.4
		c3.2,2,3.5,1.1,7,1.5c12.2,1.4,4.2,2.9,13,3.3c5.7,0.3,11.5-6.3,16.9-7.3c4.3-0.7,7-0.9,8.9-6.3c0.5-1.4,3.8-1.6,4.4-5.6
		c0.5-3.9,3.1-8.1,8.8-6.7c2.6,0.6,7-2.8,8.1-3.2c5.8-1.7,8.6,0.1,14.7-2c2.3-0.7,2.9-3.4,5.5-3.4c7.7,0.1,11.5-0.6,16.5-2.4"/>
	<path id="_Trace_3" class="st1" d="M1716.9,870.6c4.9-0.5,5.5,0.9,13.8-4.4"/>
	<path id="_Trace_4" class="st1" d="M1776.8,839.2c0.8-0.8,6.4,0.6,7.5,1.1c3.1,1.2,6.5-0.7,9.7-0.2c4.9,0.8,7.4-3.2,11.9-3.6"/>
	<path id="_Trace_5" class="st1" d="M1428.8,949.2c6.2,1.1,12.7-1,14.5,2.6c3.2,6.1,7,9.7,13.4,11.3c11.7,2.9,3.7,9.5,12.9,11.4
		c3.1,0.6,6.7-2.4,12-0.8c4.1,1.2,6.1-1.5,10,3.1c1.9,2.2,5.9,0.5,7.5,0.8c3.3,0.7,0.7,4.2,9.4,3.6c2.8-0.2,7.9,5.3,9.1,6.5
		c3.9,8.3,13.8,12.5,17.3,17.8c1.8,2.8,2.9,2.7,6.1,6.2c0.7,0.8,0.5,1.2,0.7,1.9c0.3,1,0.6-0.4,1.7-0.1c1.4,0.4,1.6,3.4,2.4,4.3
		c0.8,0.8,6.8,1.9,7.7,2.6c10.5,8.2,5.8,12.4,22.9,15.3c6.2,1.1,12.2,7.9,18.7,8.1c8.4,0.4,10.6,5.3,14.8,2.4
		c1.2-0.8,1.7,3.9,16.8,3.3c3.6-0.2,12.2,4.9,18.2,4.8"/>
	<path id="_Trace_6" class="st1" d="M1440.6,942.5c-2.8-8.1-0.4-15.7,2.6-24c2-5.4,1.5-9.8,1.4-17.1c-0.1-4.7,2.6-5.8,2.8-20.7
		c0-1.5,2.7-4.2,4.5-10.3c1.6-5.3,6.6-2.8,6.2-13.1c-0.4-10.2-2.3-8.8,0.4-20.8c1.4-6.3-4-8.6-2.8-16c0.8-5-1-7.2,3-12.7"/>
	<path id="_Trace_7" class="st1" d="M1767.8,843c1.9-8.4,3.4-17.6,7.5-25.2c1.9-3.4,1.1-6.2,4.7-9c6.8-5.3,10.3-6.3,10.1-12.5
		c-0.2-4.8-3.7-6.7-4.1-10.7c-1.7-14.5-15.2-3.7-14.8-11.1c0.5-10.2-0.5-12.8-8.9-15.7c-9.8-3.3-11.4-4.1-17-9.8"/>
	<path id="_Trace_8" class="st1" d="M1800.3,765c-5.9,1.2-9.9,8.2-5.6,13c3.1,3.6,4.4,7.1,3.2,11.7c-1,3.9-4.5,6.2-7.5,8.6"/>
	<path id="_Trace" class="st1" d="M1745.5,749.2c-1.3-3.1-1.4-6.6-3.2-9.4c-3.1-4.7-1-7.4-0.9-11.1c0.1-10.3-2.8-10.7-2.6-16.4
		c0.8-6.5,11.6-17.4,11.8-23.5c2.7-3.2-1.9-5.2-1.2-8.4c3.2-4.7,5.7-3.4,8.8-8.4c2.9-4.7-1.5-4.2-2.3-6.3c-1.2-3.3-0.2-6.8-7.4-5.6
		c-2.9,0.4-4.8-0.3-2-3.5s2.7-7.9,1.9-11.8c-0.8-3.9-0.3-10.8-5.4-11.3c-6-0.5-6.8-6.9-6.8-11.3c0.1-4.7,4.7-7.9,4.2-12.4
		c-0.4-3.1-4.1-6.1-2.3-9c2.3-3.6,4.8-8.2,1.7-11.4c-6.1-6.3-11.4-2.1-11.8-11.1c-0.4-6.9,4-4,7.4-2.8c1.5,0.6-0.4-6.6-1.2-8.2
		c-2.5-5.5-8.9-8.6-4.7-11.4c2.7-1.7,2.4-2.7,0.2-4.4c-2.1-1.6-4.9-5.4-5.4-7.8c-1.1-7.3,1.4-9.8-3.3-16c-3.7-4.9-7.5-9-4-17.4
		c2.4-5.8-1.6-11.1-6.2-15.4c-5.7-5.5-1.7-11.5,3.7-13.8c3.9-1.6,6.3-6.2,6.4-10.4c0.3-4.3-2.8-10.4,0.9-12.8c3.4-2.1-1.2-3.6-1-8.3
		c0.3-7.3,9.7-5.5,11.5-13.1c0.6-2.7,4.3-6.5,7.1-9.3"/>
	<path id="_Trace_9" class="st1" d="M1800.2,764.9c6-1.1,3.9-6.4,5.9-9.6c1.7-2.8,6.9-6,3.9-8.2c-2.9-2.2-3.2-3.7-3.8-7.3
		c-1.3-8.5,2.8-6.3,7.3-6.3c9.8-0.1,6.5-14.9,3.1-15.3c-7.2-1-7.9-6.4-5.3-11.5c1.9-3.6,4.1-3.2,7.9-3.2c3.7,0,8.3,1.1,10.1-3.1
		c1.7-3.7-4.8-10.6,0.3-12.4"/>
	<path id="_Trace_10" class="st1" d="M1798.9,765.4c1.9,5.2,6.4,8.1,9.3,2.3c2.5-5,5.3-9.4,11.1-10.1c4.9-0.6,10.4,1.6,14.9,3.8
		c3.6,1.8,11,5.4,13,1.5c1.8-3.4,3.9-4.2,9.8-4"/>
	<path id="_Trace_11" class="st1" d="M1614.2,421.9c7.2-0.1,7-2.7,9.8-5.5c2.5-2.3,6.6-2.1,7.2,1.8c0.4,2.8-2.9,1.7-2.6,7.9
		c0.1,0.8-2.8,4.8-3.5,5.3c-4.4,2.7-4.2,5.5-7.8,9.4c-3.6,3.3-9.6,3.2-12.4,6.9c-1.4,1.9,1.4,3.6,1.9,5.7c0.9,4,0.2,9.6-4.9,9.7
		c-3.9,0.1-3.6,1.3-4.2,1.9c-1.2,1.2-2.5,0.4-3.6-0.3c-1-0.5-3.1-2.4-3.8-1.8c-2.6,2.2-6.3,1.7-9.9,2.3c-4,0.6-7.1,4.1-10.7,5.8
		c-3.9,1.9-5,3.9-8.1,5.6c-4.1,2.4-9.8,2-14.3,3.9c-3.6,1.6-6.1,8.7-9.4,5.9c-4.3-3.7-13.5-9-17.2-5.5c-3.3,3.2-5,4.8-12.4,3.9
		c-5.5-0.7-5.4-1.3-10.2,1.4c-2.8,1.6-4.8,0.4-6.6-1.2c-1.2-1.2-5.3-1.7-5.5-1.4c-3.4,2.7-1.7-1.7-9.3-0.3
		c-5.7,1.2-3.4-7.5-10.6-3.5c-2.5,1.4-4.2,1.2-6-1.2c-1.8-2.4-4.8-2-7.4-1.4c-5.9,1.6-2.6-4.2-6.1-5.1c-3.7-0.9-6.6,3.7-12.4,3.5
		c-1.2-0.1-2.3-2.6-2.5-3.7c-0.9-5.6-5.5-5-6.1,3.2c0,7.8-14,6.6-19.7,6.6c-1.8,0-5.5,2.2-7,2.3c-2.8,0.2-5.8-2.7-8.6-3.2
		c-6.1-1.2-11.7,0.4-16.5,3.9c-3.5,2.7-5.9,6.7-8.1,10.7c-2.8,5.3-2.8,10.8-3.3,16.8c-0.6,6.3-2.6,1.1-3.3,9.4
		c-0.4,3.7,1.2,3.8-2.3,11.1c-2,4.1,0.4,5.1,4.7,5.2c3.4,0.1,6.7,2.8,4.7,5.9c-2.1,3.3,1.2,7,2.7,9.8c3.7,6.8,0.4,14.4-3.7,20.2
		c-1.6,1.7,1.7,1.6,3.2,3.4c1.2,1.4-2,0.9-2.6,0.9c-5.3,0.2-4.8,2.1-3.2,7.4c2.3,7.5,6.7,2.5-6.4,9.3c-1.8,1.2,0.8,4.4,1.2,6.3
		c1.4,7.1,3.1,15-1.4,20.7c-1.2,1.6-4.5,0.8-6.5,1.5c-2.3,0.7-4.7,1.7-4.5,4.7c0.2,2.8-3.1,2-4.6,3.4c-2.7,2.5-7.1,4.3-5.3,7.6
		c1.1,2,2.6,4.1,0,6.9c-3.4,3.6,3.9,6.9-0.3,10.6c-1.7,1.5,4.7,2,6,1.9c6.2-0.4-0.1,7.9-2.6,10.1c-3.9,4.5-0.7,8.2-0.1,12.3
		c0.5,3.7,1.2,7.1-3.2,7.9c-3.3,0.5-7.5-1.7-9.1,2.2c-1,2.3-4.9,3.5-7.5,3.8c-6.8,0.7-17.3,3.5-18.6,6.6c-2,4.4-6.2,7.7-9.5,4.2
		c-3.8-3.8-5.5-2.6-9.5-0.8c-5.1,2.3-13.9-0.4-16.4,5.5c-1.6,3.9-6.1,6.8-10.2,7.1c-4.2,0.3-7.9,5.8-8.3,9.7
		c-0.5,5.5,5,3.5,4.4,10.4c-0.4,3.2-1.8,5.4-5.3,7.4c-0.6,0.4-0.6,2.8-0.7,3.4c-0.5,3.3,0.6,7.5-3.9,7.4c-6.9-0.3-5.2-6.8-12.2-5
		c-4.1,1.1-6.9-1.9-9.8-0.2c-2.5,1.4-5.2,0-7.3-1.2c-2.3-1.2-3.4,0.9-4.9,1.4c-1.2,0.4-4.4-0.3-5.5,0.1c-2.8,0.8-4,4.5-7.2,5.2
		c-1.3,0.4-2.7-1.4-3.8-1.3c-3.7,0.3-8.3,0.8-8.7,1.9c-0.9,2.2,1.1,3.8,0.6,6c-0.5,2.7-3.3,2.1-4.7,2.6c-4.7,1.8-5.1,7.8-5.4,11.9
		c-0.2,3.6,0.7,7.7-1.9,9.9c-3.2,2.8-6.4,1.2-10.5,0.1"/>
	<path id="_Trace_12" class="st1" d="M1393.3,343.6c-2.1,1.4-1.9,3.6-1.9,5.9c0,1.2-1.2,2.1-1.9,2.8c-1.5,1.8-0.1,3.5,1.2,4.7
		c0.5,0.5,0.4,2.3,0.8,3c1.4,2.8,5.4,7.5,3.8,10.4c-1.2,2.3-4.5,0.7-2.1,4.1c2.6,3.6,3.2,8.9,2.1,13.1c-0.4,1.6-1.4,3.9-0.4,5.3
		c3.1,3.9,5.3,8.2,2.3,12.6c-0.8,1.2-0.8,6.8,0.2,7.9c3.6,4.5,7.9,4.2,9.2,8.9c2.2,8.3-2.4,5.2-0.4,7.7c1.4,1.8,2.4,3.6,1.2,5.7
		c-1.4,2.6,2.7,3.2,2.1,8.1c-1.1,8.4-3.7,8.6-8.2,8.6c-6.2-0.1-1.9,5.5,1.6,6.1c4.7,0.9-2.2,4.4-4.9,6.2c-3.2,1.9-3.2,7.9-3.9,11.4
		c-0.6,2.6-3.5,1.2-3.2,5.2"/>
	<path id="_Trace_13" class="st1" d="M1508.2,215.6c3.6,2.4,7.6,2.8,11.7,0.6c7.9-3.9,10.3,2.3,6.1,7.1c-2.6,2.8-1.7,8.9,1.8,10.7
		c0.8,0.4,2.5-3.2,3.1-2.9c1.7,0.8,1.2,2.6,3.9,2.5c2.3-0.1,5.5-0.4,6.4-2.6c0.9-2.1,1.4,0.2,2.9,2.7c3.1,5.3,1.5,6.1,6.5,10.3
		c3.3,2.8,3.3,1.8,6.3,0.6c1.2-0.4,2,0,2.4,1.7c0.5,2,2.6-0.9,3.6-1.1c4.7-0.7,1.7,3.2,7.5,0.4c1.9-0.9-5.2,3.4,2.3,2.7
		c2.2-0.3,0.4,3.3,4.9,3c0.9-0.1,0.9-2.1,1.7-2.5c1.8-0.9,1.6,1.6,2.5,2.3c9.2,4.6,9.8-0.3,9.3-5.7c-0.4-3.3,8.2-4.9,10.3-3.1
		c1.2,1.2,3.8-2.4,5.1-2c0.9,0.3,4,3.2,5,2.8c3.1-0.9,4.9-1.2,7.8-3.2c0.9-0.6,2.5,0.4,3.5,0.4c1.2,0,1.9,0.2,1.9-1.8
		c0-0.9,2.2-0.9,2.9-1.1c5.7-1,5.2-3.1,9.3-3.9c3.8-0.8,7.8,0.4,11.5-0.6c2.5-0.6,1.3-1.9,5.5-0.9c2.2,0.5,5.7,0.9,7.1,2.6
		c3.9,4.6,6.1,2.8,10.8,0.8c3.3-1.4,8.5-1.6,11.3,0.7c2.6,2.2,4.7,4.9,6.3,8c0.7,1.3,5.8,3,7.7,2.6c4.6-1.2,7.2-7,8.6-5.9
		c3.2,2.3-1.2,6.3,6.2,9.8"/>
	<path id="_Trace_14" class="st1" d="M1453,222.9c0.4,12.6-2.2,13-1.7,17.6c0.5,4.4,2,7.4,3.1,11.7c1.4,6.1,1.2,15.2,1.1,21.5"/>
	<path id="_Trace_15" class="st1" d="M1280.4,287.3c-0.5,6.3-2.1,10.6-7.1,12c-2.8,0.7-4.4,4.2-6.3,6.4c-4.4,5.2,0.9,5.5,0,9.7
		c-0.7,3.2,2,5.3,4.5,5s3.2,0.6,3.1,3.2c-0.3,4.7,3.6,8.4,5,12.7c1.2,3.9,2.1,7.8,1.2,11.7c-1.7,7.5-9.4,6.4-9.7,10.8
		c-0.4,4.5-4.5,11.8-11,13.4c-3.4,0.8-1.4,3.4-0.9,5.3c1.7,6.5-3.6,7.1-8.7,7.3c-1.2,0.1-3.5-2.4-4.2-2.5c-3.8-0.4-1.4,2.1-4.6,1.9
		c-2.6-0.2-6.3,3.7-9.8,4.1c-1.5,0.2-2.7,2.4-3.9,3.2"/>
	<path id="_Trace_16" class="st1" d="M1228.4,391.6c-7.3,7-5.4,17.5-12.2,20.7c-10.1,4.7-13.3,2.4-18.2,1.2c-3.9-1.1-7.9-1.8-12-0.9
		c-5.2,0.9-8.7-2.5-13.6-4.4c-8.4-3.2-11.8,6.1-19.7,7.7c-9.4,1.1-14.9-3.2-21.8-7.1c-4.5-2.5-7.7-15.4-19.5-19.8
		c-3.2-1.2-7.2,2-9.4,1.9c-4.1,0-8.1-1-11.8-2.8"/>
	<path id="_Trace_17" class="st1" d="M883.7,150.1c-0.1-0.1-0.9,2.5-1.4,3.2c-1.7,2.8-4.4,1.2-5.9,3.8c-2.3,3.7-1.8,7.1,2.5,7.2
		c3.1,0.1,2.1,0.9,2.6,6.4c0.4,5.1-8,6.1-9.6,7.9c-2,2.4-3.9,6.1-1.7,8.6c1.7,1.9,0.3,3.7,1.2,5.5c1.2,2,3.3,2,1.2,5.8
		c-2.5,4.6,3.2,3.2,4.1,13.4c0.3,2.3-1.1,2.4,1,4.4c1.4,1.3,2.2,13.9-1.3,19.3c-2.9,4.5-6.8,3.5-7,7.1c-0.3,4.8,4.5,7.1,3.9,12.2
		c-0.4,3.6,2.8,9.5-2.1,11.3c-3.9,1.5-1.2,6.8,2.6,6.9c4.4,0.2,7.4,2.5,9.8,6c2.3,3.3,3.7,4.7,3.3,8.6c-0.4,4.6,3.3,4.7,5.5,7.4
		c0.6,0.7,0.7,3.5,0.4,4.4c-0.9,3.6,5.8,6.2,2.3,8.7c-3.1,2.2-0.8,4.7,0,7.6c3.4,11.4-4,5-6.7,8.3c-2.8,3.4-4.4,6.5-2.7,10.3
		c1.9,3.9-5.3,5.6-7.7,7.6"/>
	<path id="_Trace_18" class="st1" d="M841.1,311.6c-14.3,9.8-7.9,13.2-3.2,24c3.7,8.5-2.1,14.3-0.4,22.2c2,9.7,6.5,17.5,13.2,24.4
		c4.3,4.4,15.3,0.2,15.2,7.5c-0.1,3.7-3.2,4.1-5,6.3c-2.4,3.2,0.6,6,3.4,8.2c2.9,2.4-2.8,4.3-3.5,7.5c-1.2,5.1,4.7,4.7,5.8,9.2
		c2.6,9.8,7.8,9.8,15.3,10.3c6.2,0.4,12.5,8,15.7,2.9c2.3-3.7,1.1,1.2,11.8,0.4c2.1-0.2,1.3,2.3,4.3,1.5c0.9-0.3,4.1,4.9,5.1,4.3
		c5.4-3.7,2.5,0.4,2.8,5.4c0.3,3.6,1.3,6.2,4.7,7c2.8,0.7,4.3,1.8,2.1,3.9c-2.1,2-6.2,3.3-1.9,6.4c1.8,1.3-2.1,3.9-2.6,5.3
		c-0.5,1.5,3.2,3.3,1.3,4.7c-3.9,2.9-2.8,5.2,2.8,4.7c3.5-0.3,2.8,2.8,0.9,4c-3.9,2.8,3.3,9.2,4.7,17.3c0.9,5.1,8.7-2.1,8.2,6.8
		c-0.2,3.6,2,9.4-0.7,12.2c-2.5,2.7-2.8,5.1-3,8.7c-0.5,7.6-11,0.2-10.4,8.1c0.2,1.8,5.2,3.5,0.9,4.4c-2.9,0.6-5.3-0.7-6,2.8
		c-0.5,2.7,3.1,2.7,0.7,4.8c-2.7,2.4-6-0.4-9.3,0.3c-2.3,0.4,1.7,9.8-2.1,6.3c-4.7-4.5-8,2.6-3.7,6.8c-0.2,3.6-4.3,3.3-4.8,11.4
		c-0.4,4.6-2.5,6.9-5.6,9.9c-2,1.9,2.9,4.9,2.8,7.5c-1,11.6-1.2,11.3-7.1,8.6c-3.2-1.4-5.6,4.6-9.4,2.3c-10.4-6.3-14.5-3.4-23.3-2.6
		c-5.6,0.6-5.7,3.3-3.4,7.4c3.6,6.3-10.6,8.2-3.2,15c2.8,2.7-0.6,7.9-4.7,7.9c-2.3,0-7.6-2.4-8.3-0.1c-1.4,4.5-3.1,5.5-7.1,4.9
		c-8.1-1.2-3.8,2-5.1,4.6c-1.3,2.7-3.1,2.6-3,6c0.1,3.8,3.9,5.1,2.3,9.8"/>
	<path id="_Trace_19" class="st1" d="M790,626.7c-0.4-11.5-2.4-7.1-3.9-12.2c-0.7-2.1,2-4.9,0.5-6.4c-1.8-2-2.2-3.4-1.4-6.7
		c1.4-5.7-0.6-10.3-1.5-15.6c-0.8-4.8,2.9-3.2,4.7-4.2c3.4-2.1,2.8-7.3-0.3-9.7c-1.8-1.1-2-5.3-0.4-6.4c2.4-1.9,7.9-2.1,9.8-0.3
		c1.8,1.6,4.2,3.9,5.3,0.8c2.9-8.4,10.5-23.7,13.6-22s2-2.3,6.5-2.3c3.4,0.1,5.8,2,9.4-2.8c1.4-2,5.4,0.7,7.3-0.6
		c2.7-1.9-0.4-7.7,2.8-9.6c4.7-2.9,2-9.4,1.4-13.6c-0.3-1.6,3.9-0.1,7.8-5.8c2.7-3.9,3.4-9.7,2.5-14.2c-0.4-2.1-4.7-2.7-5.5-4.6
		c-1.8-4.3-0.2-6.5-3.2-6.6c-3.1-0.1-2.5-1.1-2.8-4.4c-0.3-2.8-2.3-4.9-2.9-8.5c-1.2-6.8-1.5-7.1-8.9-5.5"/>
	<path id="_Trace_20" class="st1" d="M664.8,472.1c-3.4,3.1-5.3,4.6-12.2,4.4c-2.3-0.1-4.7,0.8-6.3,2.7c-5.6,7.5-5.8,1.3-14.8,6.8
		c-8,4.7-8.2,11.7-14.3,16.5c-4.9,3.8-10.4,9-16.5,11.4c-4,1.6-8.7,4.5-13.8,4.2c-2.1-0.2-1.4,2.9-3.7,2.6c-2.1-0.4-3.2-0.6-5.2-1.1
		c-2-0.4-4.4,2.2-7.1,2.6c-3.9,0.5-2.5,3.9-9-0.4c-0.4-0.3-6.9-1-7.9,1.1c-2.9,5.5-0.6,9.7-1.5,14.5c-0.5,2.9-1.8,3.5-4.5,3.9
		c-7.2,1.2-4.3,7.1-7.5,12.5"/>
	<path id="_Trace_21" class="st1" d="M532.4,414.8c4.6,6.6-2.2,13.5,1.4,17.7c2.3,2.8,7.4-2.2,11.1-3.2c3.2-0.9,4.7,0.5,1.9,3.2
		c-2.6,2.4-4.2,4.1-4.6,7.6c-0.4,3.1,2.6,3.7,4.1,1.2c2.4-3.8,5.2-8.1,9.8-6.1c2.1,0.9,2,3.3,3.2,2.1c1.8-1.7,0.6-2.9,2.4-5.9
		c1.6-2.6,3.6-2.8,4,0.3c0.3,1.6-1.8,6.3,0.4,5.3c0.2-0.1,1.2-4.1,1.3-4.5c0.6-1.9,5.9-2.4,4.1,0.4c-1.5,2.4-2.3,4.5,0.4,4.6
		c4.7,0.2,4.7-1.3,4.2,1.2c-0.8,4.9,7.2-0.4,11.1-2.7c1.8-1.1,0.3,5.6,3.2,6.3c3.4,0.8,7.3-2.6,8.3,2.8c0.3,1.3,1.5,1.7,1.6,3.7
		c0.3,5.5,5.8-3.5,10.2-1.5c4.7,2.1,9,7.3,13.8,7.3c2.6,0,2.3,1.7,11.5,2.9c1.6,0.2,4.5-0.3,3.7-1.4c-1.5-2.2-0.1-3.2-0.4-4.8
		c-1.4-9.2,4.8-7.6,4.7,2.3c-0.2,4.7,5.1-3.5,5.3-5.5c0.5-4.6,3.2-0.4,4.4,2.8c0.4,1.2,8.3-3.9,8.6-5.2c0.8-3.8-5.5-3.5-0.4-11.5
		c1.2-2,3.9,1.2,6,1.4c2.3,0.2,1.7-2.8,1.1-3.3c-2.9-3,2-4.9,4.9-7c1.3-3.2-3.2-7.4,4.1-7.4c8.6,0.1-0.3-6.8,0.4-8.6
		c0.7-2.1,4.1-2.8,4.5-5.7c-0.1-7.1,4.5-9.8,4.6-15c0.1-3.1-5.5-3.3-3.9-6.6c2.7-5.6,7.9-1.6,5.3-12.5c-3.4-14-3.2-18.2,3-28.5
		c2.1-3.4,6.7,0.6,9.7,1.3c3.9,0.8,9.7,2.7,12.3-0.7c3.9-4.8,0.4-12.6,2-16.8c2.2-5.6,14-12.5,21.2-16.5c3.8-2.1,4.7-6.8,4.6-10.6"
		/>
	<path id="_Trace_22" class="st1" d="M477.2,314.7c5.5-7.3,10.6-5.2,12.3-6.5c3.6-3,7.6-6.7,10.5-10.7c0.4-0.7,8.1-2.2,9.1-2.4
		c1.4-0.4,4.1-2.9,5.4-3.2c4.3-1.2,11.5-0.4,12.5-0.9c12.7-5.6,8.6-3.2,15.4-4.6c8.2-1.1,7.1,3.4,7.4,10.3c0.3,7-2.6,11.9-7.6,16.3
		c-5.2,4.5-4.2,11.1-1.6,15.7c1.2,2,4.2,1.3,5.5,3.4c3.2,5.4,7.9,7.5,14,7.4c6.3-0.1,9.4-2.4,15.5,4c9.7,10.4,16-3.7,28.9-8.9"/>
	<path id="_Trace_23" class="st1" d="M1742.6,863.4c9.4-1.7,12.5-0.6,16-3.9c2.1-2.1,4-3.9,7-12.4"/>
	<path id="_Trace_24" class="st1" d="M1541.8,875.1c15.6,0.5,19.8-1.9,25.3-7.2"/>
	<path id="_Trace_26" class="st0" d="M922.8,98.7c0.3,1,0.5,2,1.2,2.8c2.8,2.8-2,1.9-1.9,2.8c0,0.2,2.8,1.2,1.2,3.7
		c-0.5,0.9,0.6,3.9,0.6,3.9c0.4,1.2,1.7-2,2.8-2.8c1.2-0.9,1.2,3.2,2.2-0.9c0.4-1.7-0.4-2.3,0.9-3.9c1-1.2-2.6-0.9-3.7-0.9
		c-5.7,0.4,4.4-0.6,4-2.4c-0.3-1.4,3.8-5-0.1-3.7c-1.6,0-1.2,0.8-2.7,1.5C926.1,99.5,922.6,97.7,922.8,98.7z"/>
	<path id="_Trace_27" class="st0" d="M565.5,155.8c-1.4,0.8-5.7,1.6-2.8,3.3c0.6,0.4,2.8,0.4,3.5,1.2c1.2,1.3,2,1.3,3.6-0.4
		c2.3-3.2,1.3-0.8,3.6,0c2.1,1.1,3.4-1.2,4,1.5c2.8,2.9,0.6-2.5,1.2-3.6c0.6-2-1.1-0.6-1.8-0.4c-4.3-0.3-2.3-3.1-5.4-3.6
		c-1.2-0.3-0.8,1.9-3.3,0.3C566.6,153,566.4,155.2,565.5,155.8z"/>
	<path id="_Trace_28" class="st0" d="M277.5,357.2c-3.3,0.7-4.7,3.9-6.5,6.2c-0.8,0.8,2.8,2.4,2.8,0c0-1.5,1.8-1.5,3.1-2.2
		c1.4-0.7,1.7-2,2.8-3.1C280.2,357.6,278.3,357.4,277.5,357.2z"/>
	<path id="_Trace_29" class="st0" d="M234.1,336.3c-0.5,2,2.8,2.4,4.3,2.8c2.3,0.5,0.6-0.3,0.6-2.2
		C237.5,333.3,236.5,332.3,234.1,336.3z"/>
	<path id="_Trace_30" class="st0" d="M173.3,309c1.4-2.3,2.8-4.3,5.5-4.9c2-1.5,4.5-2.5,7.1-2.8c1.2,0-0.9-2.1-0.6-3.3
		c6.5-2.1,4.9-2,10.7-0.6c1,0,0.9-3.3,0.9-4.3c3.2-2.3,4.2,2.1,6.4,1.9c5.3-1.4,0.3,4.1-0.6,5.7c0.2,1.9,6.9,0.6,8.6,1
		c2.2,3.4-6.6,4.2-8.2,5.3c-0.9,2.3-3.1,4.2-4.1,1.8c-7.9-0.4-5.1,4.6-7.4,6.2c-3.7,0-8.6,4.3-9.8-0.9c3.4-1.5,7.7-2.4,9.5-5.8
		c0.1-2.7-5.1-2.8-6.4-0.6c-2.1,2.4-4.1-1.2-5.8,2.2C177.3,310.5,175,310.3,173.3,309z"/>
	<path id="_Trace_31" class="st0" d="M269.8,518.4c0.7,0.7,0.4-2.8,1.5-2.8c1.7,0,2.4,1.2,3.1,1.9c0.9,0.9,2.1,1.3,3.1,1.9
		c0.9,0.4,1.2,2.2,1.9,2.8c1.3,1.3-1.5,2-2.5,0.9s-2.4-1.3-3.3-1.9c-0.7-0.4-1.7-2-2.2-2.5C270.9,518.4,270.3,518.5,269.8,518.4z"/>
	<path id="_Trace_32" class="st0" d="M747.4,720.3c1.2-2.7,5.3-4.4,8.1-2.8c2.5,1.4,3.2,1.5,5.4,1.5c3.2,0.7,3.6,0.1,6.2,3.7
		c0.6,1.3,3.7,0.5,4.6,0.4c3.2-0.9,2.2-1.8,6.8,1.2c1.1,2.4,3.1,0.8,2.7,3.7c-0.8,6.3-1.2,4.4-5.2,4.3c-0.4-0.1-1.6-2.8-1.9-3.1
		c-0.8-0.8-1.6,2.7-2.8,2.9c-3.9-0.4-1.9,2.7-6.2,2c-1.9-3.1-2.8-2.7-6.4-3.3c-2.3,0-0.1-2.3,0.6-2.5c1.4-0.4-6.3-1.1-7.5-1.9
		C749.2,724.4,747.6,723.4,747.4,720.3z"/>
	<path id="_Trace_33" class="st0" d="M842.9,852.4c0.1-0.1-0.1,4.2,0.9,3.9c2.6-0.7,4.3,2.1,6.5,1.9c2.7-0.4-1.5,3.1-0.2,5.8
		c0,2.8,1.4-2,1.5-2.5c0.5-2.1,5.2-0.4,6.1,0.4c3.9,5.2,2.4,1.2,8.4,4.1c4.3,2.8,4.8-6.3,7.4,3.1c0.7,2.6,2.4,3.2,3.4,5.7
		c1.3,2.6-2.6,3.2-0.4,5.3c2.2,3.5,4.7,3.1,9.6,4.4c2,1.9,2.7,4.2,5,5.1c4.3,1.7,8.9-0.7,13-0.6c1.4,0.1,7.9,5.1,0.5,6.1
		c-0.6,4.2-0.4,3.4-3.5,5.6c-1.2,1.2-0.6,2-0.3,2.5c1.4,3-3.1,0.9-4.6,4.7c-3.4,0.8-1.8-0.5-2.6-1.9c-5.5-1.2-5.2-2.4-8.8-3.9
		c-1.1-0.3-1.7,1.6-2.8,1.9c-8.8,0.9-0.4-1.7-6.8-2.5c-5.7-0.1-5.7-5.4-10.1-3.7c-1.4,1.4-0.1,2.3-2.2,2.8c-1.4,0.4-2.8,0.6-4.3,0.6
		c-0.5,0-0.4-3.8-0.4-4.3c-3.5,2.8-2.9,2.8-7.9,3.7c-2.6-1.2,0.1-6.3-3.1-4.6c-4.3,1.6-1.1-2.9-5.2-3.7c-0.7-0.2-0.8-3.9-0.9-4.3
		c1.4-1.5,3.2-2.5,5.2-2.8c2.7-1.2-5.5-3.5-6.3-4.3c-2-1.2-1.9-5.8-2.9-7.3c-0.1-0.1-1-3.6-2-4.6c1.3-2.3-0.3-4.7,0.8-7.8
		c0.2-0.5,6.4-0.5,6.4-0.3c0,0.5-3.3-0.7-2.8-4.2C839.6,855.2,841.1,853.2,842.9,852.4z"/>
	<path id="_Trace_34" class="st0" d="M966.4,873.9c-1.1,0.2,2.5,2.7,1.9,3.9s-1.8,2,0,3.1c3.3,2.2,0.4-0.2,6.4-1.5
		c3.5-1.8,0.2-9.2-0.4-4.6c-0.6,1.2-2.4,0.9-3.9,0.9C967.8,875.7,967.8,873.6,966.4,873.9z"/>
	<path id="_Trace_35" class="st0" d="M930.8,846.2c-1.2-0.4-0.8,3.7,0.5,3.7c2.3,0,2.6,0.1,3.2,2.2c0.8,2.5,4.7,2.8,7.2,2.8
		c1.8-0.1,2.3,1.3,2.3,3.1c0,2.2,2.1,1,2.8,0.6c0.6-0.3-1.5-4.1-1.5-4.3c-0.2-1.9,2.8-2,3.9-3.6c1.1-1.4-4.4-0.1-6.6-0.4
		c-2.7-0.3-3.7,0.4-6.2-1.7C934.4,846.1,933.6,846.9,930.8,846.2z"/>
	<path id="_Trace_36" class="st2" d="M978.4,749.1c-0.7,0.4,0.8,3.5,0.6,4.3c-0.6,1.9-1.3,3.7-2.2,5.5c-0.1,2.3-0.3,2.9,0.4,5.3
		c0.5,1,0.6-2.5,1.7-2.5c4.5-0.2,0.5-1.4,0.8-4.5c0.6-3.6,1.4-3.4,2.3-6.6c0.6-3.7,1.8-0.6,3.9-0.4c2.8,0,4.4-0.8,3.3-1.9
		c-3.4-1.2-5.5,1.7-5.1-3.4c0-1.7,3-4.3,0.4-4.3c-0.6,0-2.5,3.3-2.7,3.7c-0.8,1.6-2.3-2.4-2.3,1.2
		C979.9,747.5,979.8,748.1,978.4,749.1z"/>
	<path id="_Trace_37" class="st2" d="M993.8,749.3c-0.1,0.4,2.5-2,3.7-2.7s2.2-3.2,2.2-4.6c0-1.4,1.3,2.1,2.8,2.5
		c3.4,0.7,0.9,1.2-2.3,3.9c-1.4,2.9-1.9,3.6-3.7,5.7c-2,2.2-2.6-1.3-0.9-3.1C996.1,750.3,993.8,748.3,993.8,749.3z"/>
	<path id="_Trace_38" class="st0" d="M1194.3,1052.9c3.5-0.6,6.6,4.6,9.5,2.9c2.4-1.3-1.8-4.5-0.9-6.6c2-4.7-4.4-6.6-8.9-8.6
		c-3.7-1.6,1.7-4.7-8.1-3.4c-1.8,0.3-1.9,0.4-3.3,0c-1.1-0.3-2.3,1.5-3.9,1.5s-2.1-0.8-4.1-0.4c-1.5,0.4-4.6-0.3-1.1,1.7
		c1,0.5,1.3,1.2,2.2,2c1.6,1.6,3.9-1.7,3.1,1.5c-0.4,1.4-0.6,2.8-0.6,4.3c0,2.2-0.4,2.3-1.9,3.3c-3,2.1-2.8,6.2,1.9,7.7
		c3.7,1.2,3.6,3.1,5.8,6.1c2.8,3.7,1.3,7.7,6.8,7.7c3.1-1.2,3.2-2.3,4.7-4.9c0.4-0.8,3.3-2.7,3.5-3.5c0.4-1.6-0.5-2.9-0.9-4.3
		c-0.4-1.8,1.6-1.2,0.6-3.1c-0.8-1.5-2.8,1.6-2.8-1.9C1195.9,1053.7,1193.8,1053,1194.3,1052.9z"/>
	<path id="_Trace_39" class="st2" d="M1387.7,994.2c1.9-0.1,1.3-3.7,2-3.9c2.3-0.9,5.2,0.5,7.6-1.4c1.4-1.1,3.8,0.8,5.8,1.5
		c1.3,0.4-1.7,2.3-1.2,3.5c1.2,3.7,2.9,0.3,2.8,5.4c-0.1,1.1-2.9,2.8,1.2,2.9c4.7,0.3,4.7,4.7,0.9,4.9c-2.5,0.1-3.1,2.1-3.6,2.2
		c-2.7,0.1-7.7-0.4-8.1,0.4c-0.4,0.7,6.5,0.1,6.5,2c0,2.3-1.2,3.2-3.6,3.2c-4,0.8-0.6,3.2-0.1,5.4c-1.2,2.8-3.9-1.7-4.6-3.1
		c-0.7-1.4-1.9-0.9-3.7-0.9c-2.1,0-3.9,0.6-3.5-1.4c0.8-3.2-3-0.2-3.3-4.6c-0.4-3.6,6.3-4.2,2.9-4.6c-2.4-0.3-5.5-2.1-5.4-3.7
		c0.4-1.3,3.5-0.7,4.3-1.9c1.5-2.2,6.4,0.2,4.6-0.8c-2.3-1.2-4.6-1.6-6-3.9C1382.7,993.1,1386.2,994.3,1387.7,994.2z"/>
	<path id="_Trace_40" class="st1" d="M1336.1,88.7c0.5,0.4,0.4,2.3,0.4,3.7c0,0.3,2.1,0.4,2.3,1.4c0.4,1.5,0.8,1.3,2.1,0.7
		c0.9-0.4,1.9-0.7,2.8-0.9c1.3-0.4-0.3-1.9-1.4-1.9c-1.3,0-1.5-1.2-2.1-2.3c-0.3-0.5-2-1-2.8-1.2C1337,88.3,1333,88.7,1336.1,88.7z"
		/>
	<path id="_Trace_41" class="st2" d="M601.8,353.7c0.1-0.4,3.2-0.4,4.4-0.9c1.2-0.6,2.8-0.4,3.9-0.7c1.8-0.4,1.2-2.6,2.6-3.2
		s0.5,1.8,1.4,2.3c1.4,0.7-3.3,4-1.7,3.4c7.6-2.9,5.3-2.2,5.2,1.6c-0.1,1.3,1.8,2,2.3,3.2c0.8,2,1.5,3.3-2.1,3.1
		c-1.4,0-2.2,0.5-3.4-0.2c-1.2-0.5-1.6-0.3-2.8-0.8c-1.1-0.5-2.8-1.1-3.2-2c-1.4-2.6-3.3-1-3.6-1.7c-0.4-0.8-0.2-2.6-2.1-2.8
		C601.9,355,601.7,354,601.8,353.7z"/>
</g>
<g class="st3">
	<text transform="matrix(1 0 0 1 633.0767 501.5918)" class="st4 st5 st6">Kleifarvatn</text>
	<text transform="matrix(1 0 0 1 546.8916 523.6055)" class="st4 st5 st6">Seltún Geothermal Area</text>
	<circle class="st7" cx="628.4" cy="503.2" r="3"/>
	<circle class="st7" cx="611.3" cy="520" r="3"/>
</g>
<g id="trail-path" class="st3">
	<path class="st8" d="M1262.5,228.2c-0.9,10.7-4.7,16.5-7.8,19.8c-7,7.4-15,6.6-19.9,14.5c-2.7,4.3-4,10.5-2.7,15.4
		c4,15.5,31.3,11.7,64.4,32.6c12.9,8.1,25.7,16.3,29.5,30.8c4,15.7-6.4,23.5-1.4,34.9c6.5,14.7,28.1,11,47.6,22.2
		c13.3,7.6,29.5,24.3,37.6,65.3"/>
</g>
<g id="camera-path" class="st3">
	<path class="st9" d="M1267.4,225.9c-27.2,19.9-31.8,33.7-30.4,42.9c2.1,13.2,26,18.1,51.6,37.2c20,14.9,34.8,31.8,34.8,34.9
		c2.2,4.4-4.2,26.3,1.9,37c6.3,11,23.9,16.6,34.5,20.1c17.2,5.7,31.3,21.2,50.3,65.3"/>
</g>
<g id="points" class="st3">
	<circle id="Saint-Malo" class="st10" cx="1264.9" cy="227.2" r="5.8"/>
	<circle id="Rennes" class="st10" cx="1409.6" cy="463.2" r="5.8"/>
</g>
</svg>
